<?xml version="1.0" encoding="utf-8"?>
<!-- Generator: Adobe Illustrator 22.0.1, SVG Export Plug-In . SVG Version: 6.00 Build 0)  -->
<svg version="1.1" id="Layer_1" xmlns="http://www.w3.org/2000/svg" xmlns:xlink="http://www.w3.org/1999/xlink" x="0px" y="0px"
	 width="982px" height="788px" viewBox="0 0 982 788" style="enable-background:new 0 0 982 788;" xml:space="preserve">
<style type="text/css">
	.st0{fill:#4D4D4D;}
	.st1{fill:#F7941D;}
	.st2{fill:#FFFFFF;}
</style>
<g>
	<g>
		<g>
			<path class="st0" d="M55.4,774.4c-7.4,0-14.8-0.2-22.1-0.7s-15-1.5-22.9-3.2V639.6c6.2-1.2,13.1-2,20.5-2.6s14.3-0.9,20.7-0.9
				c8.6,0,16.5,0.6,23.7,1.9c7.2,1.2,13.4,3.3,18.6,6.3s9.3,6.9,12.2,11.8c2.9,4.9,4.4,10.9,4.4,18c0,10.8-5.2,19.3-15.6,25.5
				c8.6,3.2,14.4,7.7,17.5,13.2c3.1,5.6,4.7,11.9,4.7,18.9c0,14.2-5.2,24.8-15.5,31.9C91.1,770.9,75.8,774.4,55.4,774.4z M40,690.7
				h14.8c9.4,0,16-1.2,20.1-3.6c4-2.4,6-6.3,6-11.6c0-5.5-2.1-9.3-6.2-11.5c-4.2-2.2-10.3-3.3-18.3-3.3c-2.6,0-5.4,0-8.4,0.1
				c-3,0.1-5.6,0.2-8,0.5C40,661.3,40,690.7,40,690.7z M40,713.9v34.9c2.2,0.3,4.6,0.5,7.2,0.6c2.6,0.1,5.5,0.2,8.6,0.2
				c9.1,0,16.4-1.3,22-3.9c5.6-2.6,8.4-7.4,8.4-14.4c0-6.2-2.3-10.7-7-13.3c-4.7-2.7-11.4-4-20.1-4L40,713.9L40,713.9z"/>
			<path class="st0" d="M160.4,640.6c0,5.3-1.7,9.5-5.2,12.6c-3.4,3.1-7.5,4.6-12.2,4.6s-8.7-1.5-12.2-4.6
				c-3.4-3.1-5.2-7.2-5.2-12.6c0-5.3,1.7-9.5,5.2-12.6c3.4-3,7.5-4.6,12.2-4.6s8.7,1.5,12.2,4.6S160.4,635.3,160.4,640.6z
				 M157.6,772.7h-29V670.2h29V772.7z"/>
			<path class="st0" d="M173.2,644.7l29-4.7v30.2h34.9v24.2h-34.9v36c0,6.1,1.1,11,3.2,14.6c2.1,3.6,6.5,5.5,13,5.5
				c3.1,0,6.3-0.3,9.6-0.9c3.3-0.6,6.3-1.4,9.1-2.4l4.1,22.6c-3.5,1.4-7.4,2.7-11.7,3.7s-9.5,1.6-15.8,1.6c-7.9,0-14.5-1.1-19.7-3.2
				c-5.2-2.1-9.4-5.1-12.5-9c-3.1-3.8-5.3-8.5-6.5-13.9c-1.2-5.5-1.9-11.5-1.9-18.1L173.2,644.7L173.2,644.7z"/>
			<path class="st0" d="M241.2,721.5c0-7.4,1.2-14.4,3.6-20.9c2.4-6.6,5.9-12.3,10.4-17.1c4.5-4.9,10.1-8.7,16.6-11.6
				c6.5-2.9,13.9-4.3,22.2-4.3c5.5,0,10.5,0.5,15,1.5s9,2.4,13.2,4.2l-6,23.2c-2.7-1-5.7-1.9-9-2.7c-3.2-0.8-6.9-1.2-10.9-1.2
				c-8.6,0-15,2.7-19.2,8s-6.3,12.3-6.3,21c0,9.2,2,16.4,5.9,21.4c4,5.1,10.9,7.6,20.7,7.6c3.5,0,7.3-0.3,11.3-1
				c4-0.6,7.7-1.7,11.1-3.1l4.1,23.8c-3.4,1.4-7.6,2.7-12.7,3.7s-10.7,1.6-16.8,1.6c-9.4,0-17.4-1.4-24.2-4.2
				c-6.8-2.8-12.3-6.6-16.7-11.4c-4.4-4.8-7.5-10.5-9.5-17C242.2,736.2,241.2,729.1,241.2,721.5z"/>
			<path class="st0" d="M423.8,721.3c0,8.1-1.2,15.4-3.5,22.1c-2.3,6.7-5.7,12.4-10.1,17.1c-4.4,4.7-9.7,8.4-15.9,11
				c-6.2,2.6-13.1,3.9-20.7,3.9c-7.5,0-14.4-1.3-20.6-3.9c-6.2-2.6-11.5-6.3-15.9-11s-7.9-10.5-10.3-17.1
				c-2.5-6.7-3.7-14.1-3.7-22.1c0-8.1,1.3-15.4,3.8-22s6-12.3,10.5-16.9c4.5-4.7,9.8-8.3,16-10.9c6.2-2.6,12.9-3.9,20.2-3.9
				c7.4,0,14.2,1.3,20.4,3.9c6.2,2.6,11.5,6.2,15.9,10.9s7.9,10.3,10.3,16.9C422.5,705.9,423.8,713.2,423.8,721.3z M394.2,721.3
				c0-9-1.8-16-5.4-21.1s-8.7-7.7-15.3-7.7c-6.6,0-11.8,2.6-15.4,7.7c-3.6,5.1-5.5,12.2-5.5,21.1c0,9,1.8,16.1,5.5,21.3
				c3.6,5.3,8.8,7.9,15.4,7.9s11.7-2.6,15.3-7.9C392.4,737.3,394.2,730.2,394.2,721.3z"/>
			<path class="st0" d="M467.2,640.6c0,5.3-1.7,9.5-5.2,12.6c-3.4,3.1-7.5,4.6-12.2,4.6s-8.7-1.5-12.2-4.6
				c-3.4-3.1-5.2-7.2-5.2-12.6c0-5.3,1.7-9.5,5.2-12.6c3.4-3,7.5-4.6,12.2-4.6s8.7,1.5,12.2,4.6
				C465.5,631.1,467.2,635.3,467.2,640.6z M464.5,772.7h-29V670.2h29V772.7z"/>
			<path class="st0" d="M481,673.7c4.9-1.4,11.3-2.8,19.1-4c7.8-1.2,16-1.9,24.5-1.9c8.7,0,15.9,1.1,21.7,3.4
				c5.8,2.3,10.4,5.5,13.7,9.6c3.4,4.2,5.8,9.1,7.2,14.8s2.1,12.1,2.1,19.1v57.9h-29v-54.4c0-9.4-1.2-16-3.7-19.9s-7.1-5.8-13.8-5.8
				c-2.1,0-4.3,0.1-6.6,0.3s-4.4,0.4-6.2,0.7v79.1h-29L481,673.7L481,673.7z"/>
			<path class="st0" d="M648.6,775.4c-22,0-38.7-6.1-50.2-18.3s-17.2-29.5-17.2-52c0-11.2,1.8-21.1,5.3-29.9
				c3.5-8.8,8.3-16.2,14.4-22.2c6.1-6,13.4-10.6,21.8-13.7c8.4-3.1,17.6-4.7,27.5-4.7c5.7,0,10.9,0.4,15.6,1.3
				c4.7,0.8,8.8,1.8,12.3,2.9c3.5,1.1,6.4,2.2,8.8,3.4c2.3,1.2,4,2.1,5.1,2.7l-8.8,24.5c-4.2-2.2-9-4.1-14.5-5.6
				c-5.5-1.6-11.8-2.3-18.8-2.3c-4.7,0-9.3,0.8-13.7,2.3c-4.5,1.6-8.4,4.1-11.9,7.5c-3.4,3.4-6.2,7.9-8.3,13.3
				c-2.1,5.5-3.1,12.1-3.1,19.9c0,6.2,0.7,12,2,17.4c1.4,5.4,3.6,10,6.6,13.9c3.1,3.9,7,7,12,9.3c4.9,2.3,10.9,3.4,17.9,3.4
				c4.4,0,8.4-0.3,11.9-0.8s6.6-1.1,9.4-1.9c2.7-0.7,5.1-1.5,7.2-2.4c2.1-0.9,4-1.8,5.6-2.5l8.4,24.4c-4.3,2.6-10.3,4.9-18.1,7
				C667.9,774.4,658.8,775.4,648.6,775.4z"/>
			<path class="st0" d="M739.4,667.5c8.6,0,15.7,1,21.4,2.9s10.3,4.7,13.7,8.4c3.4,3.6,5.9,8.1,7.3,13.2c1.4,5.2,2.1,11,2.1,17.3
				v60.4c-4.2,0.9-9.9,2-17.3,3.2c-7.4,1.2-16.4,1.9-26.9,1.9c-6.6,0-12.6-0.6-18-1.8s-10-3.1-13.9-5.7c-3.9-2.7-6.9-6.1-9-10.4
				c-2.1-4.3-3.1-9.5-3.1-15.8c0-6,1.2-11,3.6-15.2c2.4-4.2,5.6-7.5,9.6-9.9c4-2.5,8.6-4.3,13.8-5.4c5.2-1.1,10.6-1.7,16.2-1.7
				c3.8,0,7.1,0.2,10,0.5s5.3,0.7,7.1,1.3V708c0-4.9-1.5-8.9-4.5-11.9s-8.2-4.5-15.6-4.5c-4.9,0-9.8,0.4-14.6,1.1
				c-4.8,0.7-9,1.7-12.5,3l-3.7-23.4c1.7-0.5,3.8-1.1,6.3-1.7c2.5-0.6,5.3-1.1,8.3-1.6s6.1-0.8,9.4-1.2
				C732.6,667.7,736,667.5,739.4,667.5z M741.7,752.4c2.9,0,5.6-0.1,8.2-0.2c2.6-0.1,4.7-0.3,6.2-0.6v-22c-1.2-0.3-2.9-0.5-5.3-0.8
				c-2.3-0.3-4.5-0.4-6.4-0.4c-2.7,0-5.3,0.2-7.7,0.5s-4.5,0.9-6.3,1.9c-1.8,0.9-3.2,2.1-4.3,3.7c-1,1.6-1.6,3.5-1.6,5.8
				c0,4.5,1.5,7.7,4.6,9.4C732.2,751.6,736.4,752.4,741.7,752.4z"/>
			<path class="st0" d="M829,751.9c5.3,0,9.1-0.5,11.3-1.6c2.2-1,3.3-3.1,3.3-6c0-2.3-1.4-4.4-4.3-6.1c-2.9-1.8-7.2-3.7-13.1-5.9
				c-4.5-1.7-8.7-3.4-12.4-5.3c-3.7-1.8-6.9-4-9.4-6.5c-2.6-2.5-4.6-5.6-6-9.1s-2.1-7.7-2.1-12.7c0-9.6,3.6-17.2,10.7-22.8
				c7.1-5.6,16.9-8.4,29.4-8.4c6.2,0,12.2,0.6,17.9,1.7c5.7,1.1,10.3,2.3,13.6,3.6l-5.1,22.6c-3.4-1.2-7-2.2-11-3.1
				c-4-0.9-8.4-1.4-13.3-1.4c-9.1,0-13.6,2.5-13.6,7.6c0,1.2,0.2,2.2,0.6,3.1c0.4,0.9,1.2,1.8,2.3,2.6c1.2,0.8,2.8,1.8,4.8,2.7
				c2,1,4.6,2.1,7.7,3.2c6.4,2.4,11.6,4.7,15.8,7s7.4,4.8,9.8,7.4c2.4,2.7,4.1,5.6,5.1,8.8s1.5,7,1.5,11.3
				c0,10.1-3.8,17.8-11.4,22.9c-7.6,5.2-18.3,7.8-32.2,7.8c-9.1,0-16.7-0.8-22.7-2.3c-6-1.6-10.2-2.9-12.6-3.9l4.9-23.6
				c4.9,1.9,10,3.5,15.2,4.6C818.8,751.3,823.9,751.9,829,751.9z"/>
			<path class="st0" d="M883.3,772.7V626.2l29-4.7v49.1c1.9-0.6,4.4-1.3,7.5-1.9c3.1-0.6,6-0.9,8.9-0.9c8.3,0,15.2,1.1,20.7,3.4
				c5.5,2.3,9.9,5.5,13.2,9.6c3.3,4.2,5.6,9.1,7,14.8s2,12.1,2,19.1v57.9h-29v-54.4c0-9.4-1.2-16-3.6-19.9
				c-2.4-3.9-6.9-5.8-13.3-5.8c-2.6,0-5,0.2-7.3,0.7s-4.3,0.9-6.1,1.5v77.9h-29L883.3,772.7L883.3,772.7z"/>
		</g>
	</g>
	<g>
		<g>
			<path class="st1" d="M699.305,607.081c93.502-65.601,154.603-174.204,154.603-297.106S792.807,78.37,699.305,12.768H972.01
				v594.313L699.305,607.081L699.305,607.081z"/>
			<path class="st1" d="M128.392,309.875c0,122.903,61.101,231.505,154.603,297.106H9.99V12.768h273.006
				C189.493,78.37,128.392,186.972,128.392,309.875z"/>
		</g>
		<g>
			<circle class="st1" cx="491" cy="309.731" r="296.905"/>
			<path class="st2" d="M630.256,322.063l-0.165-0.307l-0.028-0.051c-0.1-0.309-0.175-0.632-0.289-0.966l-0.014-0.026l-0.014-0.026
				l-0.014-0.026l-0.014-0.026l-0.014-0.026l-0.014-0.026l-0.028-0.051c-3.803-12.336-10.935-22.584-19.831-29.671l-0.014-0.026
				c-0.279-0.213-0.572-0.451-0.852-0.663l-0.386-0.287l-0.279-0.212l-0.12-0.1l-0.266-0.187l-0.12-0.1l-0.266-0.187l-0.12-0.1
				l-0.279-0.212l-0.146-0.087l-0.279-0.212l-0.146-0.087l-0.305-0.199l-0.146-0.087l-0.177-0.268l-0.159-0.112l-0.305-0.199
				l-0.159-0.112l-0.305-0.199l-0.159-0.112l-0.305-0.199l-0.159-0.112l-0.319-0.224l-0.159-0.112l-0.344-0.211l-0.159-0.112
				l-0.344-0.211l-0.159-0.112l-0.344-0.211l-0.159-0.112l-0.344-0.211l-0.185-0.098l-0.344-0.211l-0.185-0.098l-0.37-0.197
				l-0.185-0.098l-0.384-0.222l-0.185-0.098l-0.384-0.222l-0.185-0.098l-0.384-0.222l-0.199-0.124l-0.384-0.222l-0.199-0.124
				l-0.409-0.209l-0.199-0.124l-0.409-0.209l-0.277-0.148l-0.014-0.026c-0.199-0.124-0.409-0.209-0.608-0.333
				c-8.489-4.371-17.66-7.253-27.11-8.566c2.656-2.848,5.073-5.898,7.263-9.122l0.348-0.517l0.026-0.014l0.161-0.252l0.211-0.344
				l0.112-0.159l0.211-0.344l0.112-0.159l0.211-0.344l0.112-0.159l0.211-0.344l0.112-0.159l0.211-0.344l0.112-0.159l0.185-0.331
				l0.112-0.159l0.185-0.331l0.087-0.146l0.185-0.331l0.087-0.146l0.185-0.331l0.087-0.146l0.159-0.317l0.087-0.146l0.159-0.317
				l0.087-0.146l0.159-0.317l0.087-0.146l0.173-0.291l0.087-0.146l0.173-0.291l0.087-0.146l0.148-0.277l0.087-0.146l0.148-0.277
				l0.061-0.132l0.148-0.277l0.061-0.132l0.148-0.277l0.061-0.132l0.148-0.277l0.061-0.132l0.122-0.264l0.061-0.132l0.122-0.264
				l0.061-0.132l0.122-0.264l0.061-0.132l0.134-0.303l0.183-0.395c0.134-0.303,0.242-0.592,0.376-0.895l0.026-0.014
				c3.917-9.333,5.051-20.401,2.737-31.626l-0.014-0.026l-0.028-0.051l-0.014-0.026l-0.014-0.026l-0.014-0.026l-0.014-0.026
				l-0.014-0.026l-0.014-0.026c-0.061-0.297-0.122-0.594-0.208-0.878l-0.002-0.065l-0.014-0.026l-0.014-0.026l-0.014-0.026
				l0.014,0.026l-0.124-0.23c-0.09-0.413-0.181-0.826-0.311-1.251c-0.09-0.413-0.22-0.838-0.336-1.238l-0.151-0.281l-0.028-0.051
				c-0.087-0.283-0.173-0.567-0.26-0.85l-0.014-0.026l-0.014-0.026l-0.014-0.026l-0.014-0.026l-0.014-0.026l-0.014-0.026
				l-0.014-0.026c-3.359-10.959-9.716-20.073-17.64-26.397l-0.014-0.026c-0.24-0.201-0.506-0.388-0.746-0.588l-0.332-0.25
				l-0.266-0.187l-0.12-0.1l-0.226-0.175l-0.12-0.1l-0.226-0.175l-0.12-0.1l-0.252-0.161l-0.12-0.1l-0.266-0.187l-0.12-0.1
				l-0.266-0.187l-0.12-0.1l-0.266-0.187l-0.146-0.087l-0.266-0.187l-0.146-0.087l-0.266-0.187l-0.146-0.087l-0.291-0.173
				l-0.146-0.087l-0.291-0.173l-0.146-0.087l-0.291-0.173l-0.146-0.087l-0.291-0.173l-0.146-0.087l-0.305-0.199l-0.146-0.087
				l-0.305-0.199l-0.146-0.087l-0.331-0.185l-0.146-0.087l-0.33-0.185l-0.159-0.112l-0.331-0.185l-0.159-0.112l-0.33-0.185
				l-0.159-0.112l-0.344-0.211l-0.185-0.098l-0.344-0.211l-0.185-0.098l-0.37-0.197l-0.185-0.098l-0.37-0.197l-0.264-0.122
				l-0.014-0.026l-0.555-0.295c-16.214-8.427-36.813-10.964-57.538-5.647l-5.391,1.384l-13.636-53.097l-31.598,8.101l13.591,52.89
				l-25.278,6.481l-13.599-52.721l-31.598,8.101l13.591,52.89l-65.167,16.769l8.671,33.699l26.258-6.744
				c8.692-2.238,17.584,3.005,19.796,11.711l0,0L429.59,396.79c1.5,5.79-2.012,11.706-7.803,13.206l-23.008,5.919l1.352,40.08
				l65.09-16.727l13.77,52.794l31.584-8.127l-13.605-52.916l25.278-6.481l13.605,52.915l31.584-8.127l-13.65-53.122
				c5.352-1.396,9.956-2.588,13.141-3.412c23.356-6.007,42.243-19.703,53.672-36.775l0.386-0.57l0.026-0.014l0.187-0.266
				l0.248-0.397l0.124-0.199l0.248-0.397l0.124-0.199l0.222-0.384l0.124-0.199l0.222-0.384l0.098-0.185l0.222-0.384l0.098-0.185
				l0.222-0.384l0.098-0.185l0.197-0.37l0.098-0.185l0.197-0.37l0.098-0.185l0.211-0.344l0.098-0.185l0.211-0.344l0.098-0.185
				l0.185-0.331l0.098-0.185l0.185-0.33l0.098-0.185l0.185-0.33l0.073-0.171l0.185-0.33l0.073-0.171l0.159-0.317l0.087-0.146
				l0.159-0.317l0.087-0.146l0.159-0.317l0.087-0.146l0.159-0.317l0.087-0.146l0.159-0.317l0.087-0.146l0.159-0.317l0.087-0.146
				l0.134-0.303l0.087-0.146l0.134-0.303l0.061-0.132l0.146-0.342l0.195-0.435c0.146-0.342,0.305-0.659,0.425-0.988l0.012-0.039
				c4.375-10.503,5.703-22.929,3.086-35.574l-0.014-0.026l-0.014-0.026l-0.014-0.026l-0.014-0.026l-0.014-0.026l-0.014-0.026
				l-0.014-0.026l-0.014-0.026c-0.075-0.323-0.149-0.645-0.224-0.968l-0.002-0.065l-0.014-0.026l-0.014-0.026l-0.014-0.026
				l-0.014-0.026l-0.014-0.026l-0.014-0.026l-0.014-0.026l-0.014-0.026l-0.014-0.026l-0.014-0.026l-0.014-0.026l-0.014-0.026
				l-0.014-0.026l-0.055-0.102c-0.118-0.464-0.21-0.942-0.354-1.393C630.352,323.1,630.285,322.608,630.256,322.063z
				 M444.595,227.197c5.391-1.384,27.681-6.982,35.031-8.893c11.685-2.991,23.196-1.83,32.19,2.499l0.303,0.134l0,0l0.132,0.061
				l0.185,0.098l0.092,0.049l0.185,0.098l0.092,0.049l0.185,0.098l0.092,0.049l0.185,0.098l0.092,0.049l0.185,0.098l0.092,0.049
				l0.185,0.098l0.092,0.049l0.185,0.098l0.092,0.049l0.185,0.098l0.092,0.049l0.185,0.098l0.092,0.049l0.159,0.112l0.092,0.049
				l0.159,0.112l0.092,0.049l0.159,0.112l0.092,0.049l0.146,0.087l0.092,0.049l0.146,0.087l0.092,0.049l0.146,0.087l0.092,0.049
				l0.146,0.087l0.092,0.049l0.146,0.087l0.067,0.063l0.146,0.087l0.053,0.037l0.146,0.087l0.053,0.037l0.146,0.087l0.053,0.037
				l0.146,0.087l0.053,0.037l0.12,0.1l0.053,0.037l0.146,0.087l0.199,0.124c0.146,0.087,0.279,0.213,0.425,0.299l0,0
				c4.601,3.461,7.971,8.312,9.658,13.836l0,0l0.041,0.077c0.043,0.142,0.1,0.309,0.143,0.451l0.014,0.026l0.083,0.153
				c0.059,0.232,0.13,0.425,0.189,0.657c0.059,0.232,0.104,0.439,0.126,0.724l0.083,0.153l0.014,0.026
				c0.018,0.155,0.061,0.297,0.118,0.464l0.041,0.077l0,0c1.184,5.631,0.555,11.511-1.795,16.768l0,0l-0.207,0.474l-0.11,0.224
				l-0.087,0.146l-0.024,0.079l-0.061,0.132l-0.024,0.079l-0.087,0.146l-0.024,0.079l-0.087,0.146l-0.024,0.079l-0.087,0.146
				l-0.024,0.079l-0.087,0.146l-0.024,0.079l-0.087,0.146l-0.024,0.079l-0.087,0.146l-0.049,0.092l-0.087,0.146l-0.049,0.092
				l-0.087,0.146l-0.049,0.092l-0.087,0.146l-0.049,0.092l-0.112,0.159l-0.049,0.092l-0.112,0.159l-0.049,0.092l-0.112,0.159
				l-0.049,0.092l-0.112,0.159l-0.049,0.092l-0.112,0.159l-0.049,0.092l-0.112,0.159l-0.049,0.092l-0.112,0.159l-0.049,0.092
				l-0.112,0.159l-0.049,0.092l-0.138,0.173l-0.049,0.092l-0.138,0.173l-0.049,0.092l-0.138,0.173l-0.049,0.092l-0.138,0.173
				l-0.1,0.12l0,0l-0.187,0.266c-5.811,8.142-15.334,14.72-27.019,17.711c-7.364,1.886-29.595,7.716-34.986,9.1L444.595,227.197z
				 M568.107,335.92l0.083,0.153l0.014,0.026c0.031,0.181,0.075,0.323,0.106,0.504l0,0l0.014,0.026l0,0l0,0l0.014,0.026l0.014,0.026
				l0.014,0.026l0,0c1.241,6.227,0.356,12.674-2.541,18.324l0,0l-0.283,0.515l-0.136,0.238l-0.098,0.185l-0.049,0.092l-0.087,0.146
				l-0.049,0.092l-0.087,0.146l-0.049,0.092l-0.112,0.159l-0.049,0.092l-0.112,0.159l-0.049,0.092l-0.112,0.159l-0.049,0.092
				l-0.112,0.159l-0.049,0.092l-0.112,0.159l-0.049,0.092l-0.112,0.159l-0.049,0.092l-0.112,0.159l-0.049,0.092l-0.112,0.159
				l-0.049,0.092l-0.112,0.159l-0.049,0.092l-0.138,0.173l-0.049,0.092l-0.138,0.173l-0.049,0.092l-0.124,0.199l-0.049,0.092
				l-0.124,0.199l-0.049,0.092l-0.124,0.199l-0.075,0.106l-0.124,0.199l-0.075,0.106l-0.15,0.212l-0.075,0.106l-0.15,0.212
				l-0.075,0.106l-0.15,0.212l-0.075,0.106l-0.15,0.212l-0.075,0.106l-0.15,0.212l-0.126,0.134l0,0l-0.238,0.293
				c-7.058,9.012-18.441,16.425-32.266,19.974c-8.718,2.251-35.063,9.141-41.473,10.777l-17.935-69.785
				c6.396-1.662,32.814-8.294,41.532-10.545c13.826-3.549,27.398-2.542,37.892,1.938l0.342,0.146l0,0l0.171,0.073l0.25,0.096
				l0.118,0.035l0.224,0.11l0.118,0.035l0.224,0.11l0.118,0.035l0.224,0.11l0.092,0.049l0.224,0.11l0.092,0.049l0.224,0.11
				l0.092,0.049l0.224,0.11l0.092,0.049l0.185,0.098l0.092,0.049l0.185,0.098l0.092,0.049l0.185,0.098l0.092,0.049l0.185,0.098
				l0.092,0.049l0.185,0.098l0.092,0.049l0.185,0.098l0.092,0.049l0.185,0.098l0.092,0.049l0.185,0.098l0.092,0.049l0.185,0.098
				l0.092,0.049l0.159,0.112l0.092,0.049l0.159,0.112l0.092,0.049l0.159,0.112l0.092,0.049l0.159,0.112l0.092,0.049l0.159,0.112
				l0.092,0.049l0.146,0.087l0.092,0.049l0.159,0.112l0.212,0.15c0.159,0.112,0.344,0.211,0.504,0.323l0,0
				c5.254,3.572,9.155,8.796,11.053,14.834l0,0l0.055,0.102c0.057,0.167,0.1,0.309,0.157,0.476l0.014,0.026l0.083,0.153
				c0.059,0.232,0.118,0.464,0.191,0.722C568.127,335.283,568.148,335.568,568.107,335.92L568.107,335.92z"/>
		</g>
	</g>
</g>
</svg>
