<?xml version="1.0" encoding="utf-8"?>
<!-- Generator: Adobe Illustrator 22.0.1, SVG Export Plug-In . SVG Version: 6.00 Build 0)  -->
<svg version="1.1" id="Layer_1" xmlns="http://www.w3.org/2000/svg" xmlns:xlink="http://www.w3.org/1999/xlink" x="0px" y="0px"
	 width="703.5px" height="270px" viewBox="0 0 703.5 270" enable-background="new 0 0 703.5 270" xml:space="preserve">
<g>
	<g>
		<g>
			<path id="SVGID_1_" fill="#F7941D" d="M637.3,262.3H66.2C34,262.3,7.7,236,7.7,203.8V66.2C7.7,34,34.1,7.7,66.2,7.7h571.1
				c32.2,0,58.5,26.3,58.5,58.5v137.6C695.8,236,669.5,262.3,637.3,262.3z"/>
		</g>
		<g>
			<defs>
				<path id="SVGID_2_" d="M637.3,262.3H66.2C34,262.3,7.7,236,7.7,203.8V66.2C7.7,34,34.1,7.7,66.2,7.7h571.1
					c32.2,0,58.5,26.3,58.5,58.5v137.6C695.8,236,669.5,262.3,637.3,262.3z"/>
			</defs>
			<clipPath id="SVGID_3_">
				<use xlink:href="#SVGID_2_"  overflow="visible"/>
			</clipPath>
			<path clip-path="url(#SVGID_3_)" fill="#F7941D" d="M695.8,7.7H7.7H695.8z"/>
		</g>
		<g>
			<defs>
				<path id="SVGID_4_" d="M637.3,262.3H66.2C34,262.3,7.7,236,7.7,203.8V66.2C7.7,34,34.1,7.7,66.2,7.7h571.1
					c32.2,0,58.5,26.3,58.5,58.5v137.6C695.8,236,669.5,262.3,637.3,262.3z"/>
			</defs>
			<clipPath id="SVGID_5_">
				<use xlink:href="#SVGID_4_"  overflow="visible"/>
			</clipPath>
			<rect x="7.7" y="7.7" clip-path="url(#SVGID_5_)" fill="#F7941D" width="688" height="6.5"/>
		</g>
		<g>
			<defs>
				<path id="SVGID_6_" d="M637.3,262.3H66.2C34,262.3,7.7,236,7.7,203.8V66.2C7.7,34,34.1,7.7,66.2,7.7h571.1
					c32.2,0,58.5,26.3,58.5,58.5v137.6C695.8,236,669.5,262.3,637.3,262.3z"/>
			</defs>
			<clipPath id="SVGID_7_">
				<use xlink:href="#SVGID_6_"  overflow="visible"/>
			</clipPath>
			<rect x="7.7" y="14.2" clip-path="url(#SVGID_7_)" fill="#F7941D" width="688" height="6.5"/>
		</g>
		<g>
			<defs>
				<path id="SVGID_8_" d="M637.3,262.3H66.2C34,262.3,7.7,236,7.7,203.8V66.2C7.7,34,34.1,7.7,66.2,7.7h571.1
					c32.2,0,58.5,26.3,58.5,58.5v137.6C695.8,236,669.5,262.3,637.3,262.3z"/>
			</defs>
			<clipPath id="SVGID_9_">
				<use xlink:href="#SVGID_8_"  overflow="visible"/>
			</clipPath>
			<rect x="7.7" y="20.8" clip-path="url(#SVGID_9_)" fill="#F7941D" width="688" height="6.5"/>
		</g>
		<g>
			<defs>
				<path id="SVGID_10_" d="M637.3,262.3H66.2C34,262.3,7.7,236,7.7,203.8V66.2C7.7,34,34.1,7.7,66.2,7.7h571.1
					c32.2,0,58.5,26.3,58.5,58.5v137.6C695.8,236,669.5,262.3,637.3,262.3z"/>
			</defs>
			<clipPath id="SVGID_11_">
				<use xlink:href="#SVGID_10_"  overflow="visible"/>
			</clipPath>
			<rect x="7.7" y="27.3" clip-path="url(#SVGID_11_)" fill="#F7941D" width="688" height="6.5"/>
		</g>
		<g>
			<defs>
				<path id="SVGID_12_" d="M637.3,262.3H66.2C34,262.3,7.7,236,7.7,203.8V66.2C7.7,34,34.1,7.7,66.2,7.7h571.1
					c32.2,0,58.5,26.3,58.5,58.5v137.6C695.8,236,669.5,262.3,637.3,262.3z"/>
			</defs>
			<clipPath id="SVGID_13_">
				<use xlink:href="#SVGID_12_"  overflow="visible"/>
			</clipPath>
			<rect x="7.7" y="33.8" clip-path="url(#SVGID_13_)" fill="#F7941D" width="688" height="6.5"/>
		</g>
		<g>
			<defs>
				<path id="SVGID_14_" d="M637.3,262.3H66.2C34,262.3,7.7,236,7.7,203.8V66.2C7.7,34,34.1,7.7,66.2,7.7h571.1
					c32.2,0,58.5,26.3,58.5,58.5v137.6C695.8,236,669.5,262.3,637.3,262.3z"/>
			</defs>
			<clipPath id="SVGID_15_">
				<use xlink:href="#SVGID_14_"  overflow="visible"/>
			</clipPath>
			<rect x="7.7" y="40.4" clip-path="url(#SVGID_15_)" fill="#F7941D" width="688" height="6.5"/>
		</g>
		<g>
			<defs>
				<path id="SVGID_16_" d="M637.3,262.3H66.2C34,262.3,7.7,236,7.7,203.8V66.2C7.7,34,34.1,7.7,66.2,7.7h571.1
					c32.2,0,58.5,26.3,58.5,58.5v137.6C695.8,236,669.5,262.3,637.3,262.3z"/>
			</defs>
			<clipPath id="SVGID_17_">
				<use xlink:href="#SVGID_16_"  overflow="visible"/>
			</clipPath>
			<rect x="7.7" y="46.9" clip-path="url(#SVGID_17_)" fill="#F7941D" width="688" height="6.5"/>
		</g>
		<g>
			<defs>
				<path id="SVGID_18_" d="M637.3,262.3H66.2C34,262.3,7.7,236,7.7,203.8V66.2C7.7,34,34.1,7.7,66.2,7.7h571.1
					c32.2,0,58.5,26.3,58.5,58.5v137.6C695.8,236,669.5,262.3,637.3,262.3z"/>
			</defs>
			<clipPath id="SVGID_19_">
				<use xlink:href="#SVGID_18_"  overflow="visible"/>
			</clipPath>
			<rect x="7.7" y="53.4" clip-path="url(#SVGID_19_)" fill="#F7941D" width="688" height="6.5"/>
		</g>
		<g>
			<defs>
				<path id="SVGID_20_" d="M637.3,262.3H66.2C34,262.3,7.7,236,7.7,203.8V66.2C7.7,34,34.1,7.7,66.2,7.7h571.1
					c32.2,0,58.5,26.3,58.5,58.5v137.6C695.8,236,669.5,262.3,637.3,262.3z"/>
			</defs>
			<clipPath id="SVGID_21_">
				<use xlink:href="#SVGID_20_"  overflow="visible"/>
			</clipPath>
			<rect x="7.7" y="59.9" clip-path="url(#SVGID_21_)" fill="#F7941D" width="688" height="6.5"/>
		</g>
		<g>
			<defs>
				<path id="SVGID_22_" d="M637.3,262.3H66.2C34,262.3,7.7,236,7.7,203.8V66.2C7.7,34,34.1,7.7,66.2,7.7h571.1
					c32.2,0,58.5,26.3,58.5,58.5v137.6C695.8,236,669.5,262.3,637.3,262.3z"/>
			</defs>
			<clipPath id="SVGID_23_">
				<use xlink:href="#SVGID_22_"  overflow="visible"/>
			</clipPath>
			<rect x="7.7" y="66.5" clip-path="url(#SVGID_23_)" fill="#F7941D" width="688" height="6.5"/>
		</g>
		<g>
			<defs>
				<path id="SVGID_24_" d="M637.3,262.3H66.2C34,262.3,7.7,236,7.7,203.8V66.2C7.7,34,34.1,7.7,66.2,7.7h571.1
					c32.2,0,58.5,26.3,58.5,58.5v137.6C695.8,236,669.5,262.3,637.3,262.3z"/>
			</defs>
			<clipPath id="SVGID_25_">
				<use xlink:href="#SVGID_24_"  overflow="visible"/>
			</clipPath>
			<rect x="7.7" y="73" clip-path="url(#SVGID_25_)" fill="#F7941D" width="688" height="6.5"/>
		</g>
		<g>
			<defs>
				<path id="SVGID_26_" d="M637.3,262.3H66.2C34,262.3,7.7,236,7.7,203.8V66.2C7.7,34,34.1,7.7,66.2,7.7h571.1
					c32.2,0,58.5,26.3,58.5,58.5v137.6C695.8,236,669.5,262.3,637.3,262.3z"/>
			</defs>
			<clipPath id="SVGID_27_">
				<use xlink:href="#SVGID_26_"  overflow="visible"/>
			</clipPath>
			<rect x="7.7" y="79.5" clip-path="url(#SVGID_27_)" fill="#F7941D" width="688" height="6.5"/>
		</g>
		<g>
			<defs>
				<path id="SVGID_28_" d="M637.3,262.3H66.2C34,262.3,7.7,236,7.7,203.8V66.2C7.7,34,34.1,7.7,66.2,7.7h571.1
					c32.2,0,58.5,26.3,58.5,58.5v137.6C695.8,236,669.5,262.3,637.3,262.3z"/>
			</defs>
			<clipPath id="SVGID_29_">
				<use xlink:href="#SVGID_28_"  overflow="visible"/>
			</clipPath>
			<rect x="7.7" y="86" clip-path="url(#SVGID_29_)" fill="#F7941D" width="688" height="6.5"/>
		</g>
		<g>
			<defs>
				<path id="SVGID_30_" d="M637.3,262.3H66.2C34,262.3,7.7,236,7.7,203.8V66.2C7.7,34,34.1,7.7,66.2,7.7h571.1
					c32.2,0,58.5,26.3,58.5,58.5v137.6C695.8,236,669.5,262.3,637.3,262.3z"/>
			</defs>
			<clipPath id="SVGID_31_">
				<use xlink:href="#SVGID_30_"  overflow="visible"/>
			</clipPath>
			<rect x="7.7" y="92.6" clip-path="url(#SVGID_31_)" fill="#F7941D" width="688" height="6.5"/>
		</g>
		<g>
			<defs>
				<path id="SVGID_32_" d="M637.3,262.3H66.2C34,262.3,7.7,236,7.7,203.8V66.2C7.7,34,34.1,7.7,66.2,7.7h571.1
					c32.2,0,58.5,26.3,58.5,58.5v137.6C695.8,236,669.5,262.3,637.3,262.3z"/>
			</defs>
			<clipPath id="SVGID_33_">
				<use xlink:href="#SVGID_32_"  overflow="visible"/>
			</clipPath>
			<rect x="7.7" y="99.1" clip-path="url(#SVGID_33_)" fill="#F7941D" width="688" height="6.5"/>
		</g>
		<g>
			<defs>
				<path id="SVGID_34_" d="M637.3,262.3H66.2C34,262.3,7.7,236,7.7,203.8V66.2C7.7,34,34.1,7.7,66.2,7.7h571.1
					c32.2,0,58.5,26.3,58.5,58.5v137.6C695.8,236,669.5,262.3,637.3,262.3z"/>
			</defs>
			<clipPath id="SVGID_35_">
				<use xlink:href="#SVGID_34_"  overflow="visible"/>
			</clipPath>
			<rect x="7.7" y="105.6" clip-path="url(#SVGID_35_)" fill="#F7941D" width="688" height="6.5"/>
		</g>
		<g>
			<defs>
				<path id="SVGID_36_" d="M637.3,262.3H66.2C34,262.3,7.7,236,7.7,203.8V66.2C7.7,34,34.1,7.7,66.2,7.7h571.1
					c32.2,0,58.5,26.3,58.5,58.5v137.6C695.8,236,669.5,262.3,637.3,262.3z"/>
			</defs>
			<clipPath id="SVGID_37_">
				<use xlink:href="#SVGID_36_"  overflow="visible"/>
			</clipPath>
			<rect x="7.7" y="112.2" clip-path="url(#SVGID_37_)" fill="#F7941D" width="688" height="6.5"/>
		</g>
		<g>
			<defs>
				<path id="SVGID_38_" d="M637.3,262.3H66.2C34,262.3,7.7,236,7.7,203.8V66.2C7.7,34,34.1,7.7,66.2,7.7h571.1
					c32.2,0,58.5,26.3,58.5,58.5v137.6C695.8,236,669.5,262.3,637.3,262.3z"/>
			</defs>
			<clipPath id="SVGID_39_">
				<use xlink:href="#SVGID_38_"  overflow="visible"/>
			</clipPath>
			<rect x="7.7" y="118.7" clip-path="url(#SVGID_39_)" fill="#F7941D" width="688" height="6.5"/>
		</g>
		<g>
			<defs>
				<path id="SVGID_40_" d="M637.3,262.3H66.2C34,262.3,7.7,236,7.7,203.8V66.2C7.7,34,34.1,7.7,66.2,7.7h571.1
					c32.2,0,58.5,26.3,58.5,58.5v137.6C695.8,236,669.5,262.3,637.3,262.3z"/>
			</defs>
			<clipPath id="SVGID_41_">
				<use xlink:href="#SVGID_40_"  overflow="visible"/>
			</clipPath>
			<rect x="7.7" y="125.2" clip-path="url(#SVGID_41_)" fill="#F7941D" width="688" height="6.5"/>
		</g>
		<g>
			<defs>
				<path id="SVGID_42_" d="M637.3,262.3H66.2C34,262.3,7.7,236,7.7,203.8V66.2C7.7,34,34.1,7.7,66.2,7.7h571.1
					c32.2,0,58.5,26.3,58.5,58.5v137.6C695.8,236,669.5,262.3,637.3,262.3z"/>
			</defs>
			<clipPath id="SVGID_43_">
				<use xlink:href="#SVGID_42_"  overflow="visible"/>
			</clipPath>
			<rect x="7.7" y="131.7" clip-path="url(#SVGID_43_)" fill="#F7941D" width="688" height="6.5"/>
		</g>
		<g>
			<defs>
				<path id="SVGID_44_" d="M637.3,262.3H66.2C34,262.3,7.7,236,7.7,203.8V66.2C7.7,34,34.1,7.7,66.2,7.7h571.1
					c32.2,0,58.5,26.3,58.5,58.5v137.6C695.8,236,669.5,262.3,637.3,262.3z"/>
			</defs>
			<clipPath id="SVGID_45_">
				<use xlink:href="#SVGID_44_"  overflow="visible"/>
			</clipPath>
			<rect x="7.7" y="138.3" clip-path="url(#SVGID_45_)" fill="#F7941D" width="688" height="6.5"/>
		</g>
		<g>
			<defs>
				<path id="SVGID_46_" d="M637.3,262.3H66.2C34,262.3,7.7,236,7.7,203.8V66.2C7.7,34,34.1,7.7,66.2,7.7h571.1
					c32.2,0,58.5,26.3,58.5,58.5v137.6C695.8,236,669.5,262.3,637.3,262.3z"/>
			</defs>
			<clipPath id="SVGID_47_">
				<use xlink:href="#SVGID_46_"  overflow="visible"/>
			</clipPath>
			<rect x="7.7" y="144.8" clip-path="url(#SVGID_47_)" fill="#F7941D" width="688" height="6.5"/>
		</g>
		<g>
			<defs>
				<path id="SVGID_48_" d="M637.3,262.3H66.2C34,262.3,7.7,236,7.7,203.8V66.2C7.7,34,34.1,7.7,66.2,7.7h571.1
					c32.2,0,58.5,26.3,58.5,58.5v137.6C695.8,236,669.5,262.3,637.3,262.3z"/>
			</defs>
			<clipPath id="SVGID_49_">
				<use xlink:href="#SVGID_48_"  overflow="visible"/>
			</clipPath>
			<rect x="7.7" y="151.3" clip-path="url(#SVGID_49_)" fill="#F7941D" width="688" height="6.5"/>
		</g>
		<g>
			<defs>
				<path id="SVGID_50_" d="M637.3,262.3H66.2C34,262.3,7.7,236,7.7,203.8V66.2C7.7,34,34.1,7.7,66.2,7.7h571.1
					c32.2,0,58.5,26.3,58.5,58.5v137.6C695.8,236,669.5,262.3,637.3,262.3z"/>
			</defs>
			<clipPath id="SVGID_51_">
				<use xlink:href="#SVGID_50_"  overflow="visible"/>
			</clipPath>
			<rect x="7.7" y="157.8" clip-path="url(#SVGID_51_)" fill="#F7941D" width="688" height="6.5"/>
		</g>
		<g>
			<defs>
				<path id="SVGID_52_" d="M637.3,262.3H66.2C34,262.3,7.7,236,7.7,203.8V66.2C7.7,34,34.1,7.7,66.2,7.7h571.1
					c32.2,0,58.5,26.3,58.5,58.5v137.6C695.8,236,669.5,262.3,637.3,262.3z"/>
			</defs>
			<clipPath id="SVGID_53_">
				<use xlink:href="#SVGID_52_"  overflow="visible"/>
			</clipPath>
			<rect x="7.7" y="164.4" clip-path="url(#SVGID_53_)" fill="#F7941D" width="688" height="6.5"/>
		</g>
		<g>
			<defs>
				<path id="SVGID_54_" d="M637.3,262.3H66.2C34,262.3,7.7,236,7.7,203.8V66.2C7.7,34,34.1,7.7,66.2,7.7h571.1
					c32.2,0,58.5,26.3,58.5,58.5v137.6C695.8,236,669.5,262.3,637.3,262.3z"/>
			</defs>
			<clipPath id="SVGID_55_">
				<use xlink:href="#SVGID_54_"  overflow="visible"/>
			</clipPath>
			<rect x="7.7" y="170.9" clip-path="url(#SVGID_55_)" fill="#F7941D" width="688" height="6.5"/>
		</g>
		<g>
			<defs>
				<path id="SVGID_56_" d="M637.3,262.3H66.2C34,262.3,7.7,236,7.7,203.8V66.2C7.7,34,34.1,7.7,66.2,7.7h571.1
					c32.2,0,58.5,26.3,58.5,58.5v137.6C695.8,236,669.5,262.3,637.3,262.3z"/>
			</defs>
			<clipPath id="SVGID_57_">
				<use xlink:href="#SVGID_56_"  overflow="visible"/>
			</clipPath>
			<rect x="7.7" y="177.4" clip-path="url(#SVGID_57_)" fill="#F7941D" width="688" height="6.5"/>
		</g>
		<g>
			<defs>
				<path id="SVGID_58_" d="M637.3,262.3H66.2C34,262.3,7.7,236,7.7,203.8V66.2C7.7,34,34.1,7.7,66.2,7.7h571.1
					c32.2,0,58.5,26.3,58.5,58.5v137.6C695.8,236,669.5,262.3,637.3,262.3z"/>
			</defs>
			<clipPath id="SVGID_59_">
				<use xlink:href="#SVGID_58_"  overflow="visible"/>
			</clipPath>
			<rect x="7.7" y="184" clip-path="url(#SVGID_59_)" fill="#F7941D" width="688" height="6.5"/>
		</g>
		<g>
			<defs>
				<path id="SVGID_60_" d="M637.3,262.3H66.2C34,262.3,7.7,236,7.7,203.8V66.2C7.7,34,34.1,7.7,66.2,7.7h571.1
					c32.2,0,58.5,26.3,58.5,58.5v137.6C695.8,236,669.5,262.3,637.3,262.3z"/>
			</defs>
			<clipPath id="SVGID_61_">
				<use xlink:href="#SVGID_60_"  overflow="visible"/>
			</clipPath>
			<rect x="7.7" y="190.5" clip-path="url(#SVGID_61_)" fill="#F7941D" width="688" height="6.5"/>
		</g>
		<g>
			<defs>
				<path id="SVGID_62_" d="M637.3,262.3H66.2C34,262.3,7.7,236,7.7,203.8V66.2C7.7,34,34.1,7.7,66.2,7.7h571.1
					c32.2,0,58.5,26.3,58.5,58.5v137.6C695.8,236,669.5,262.3,637.3,262.3z"/>
			</defs>
			<clipPath id="SVGID_63_">
				<use xlink:href="#SVGID_62_"  overflow="visible"/>
			</clipPath>
			<rect x="7.7" y="197" clip-path="url(#SVGID_63_)" fill="#F7941D" width="688" height="6.5"/>
		</g>
		<g>
			<defs>
				<path id="SVGID_64_" d="M637.3,262.3H66.2C34,262.3,7.7,236,7.7,203.8V66.2C7.7,34,34.1,7.7,66.2,7.7h571.1
					c32.2,0,58.5,26.3,58.5,58.5v137.6C695.8,236,669.5,262.3,637.3,262.3z"/>
			</defs>
			<clipPath id="SVGID_65_">
				<use xlink:href="#SVGID_64_"  overflow="visible"/>
			</clipPath>
			<rect x="7.7" y="203.5" clip-path="url(#SVGID_65_)" fill="#F7941D" width="688" height="6.5"/>
		</g>
		<g>
			<defs>
				<path id="SVGID_66_" d="M637.3,262.3H66.2C34,262.3,7.7,236,7.7,203.8V66.2C7.7,34,34.1,7.7,66.2,7.7h571.1
					c32.2,0,58.5,26.3,58.5,58.5v137.6C695.8,236,669.5,262.3,637.3,262.3z"/>
			</defs>
			<clipPath id="SVGID_67_">
				<use xlink:href="#SVGID_66_"  overflow="visible"/>
			</clipPath>
			<rect x="7.7" y="210.1" clip-path="url(#SVGID_67_)" fill="#F7941D" width="688" height="6.5"/>
		</g>
		<g>
			<defs>
				<path id="SVGID_68_" d="M637.3,262.3H66.2C34,262.3,7.7,236,7.7,203.8V66.2C7.7,34,34.1,7.7,66.2,7.7h571.1
					c32.2,0,58.5,26.3,58.5,58.5v137.6C695.8,236,669.5,262.3,637.3,262.3z"/>
			</defs>
			<clipPath id="SVGID_69_">
				<use xlink:href="#SVGID_68_"  overflow="visible"/>
			</clipPath>
			<rect x="7.7" y="216.6" clip-path="url(#SVGID_69_)" fill="#F7941D" width="688" height="6.5"/>
		</g>
		<g>
			<defs>
				<path id="SVGID_70_" d="M637.3,262.3H66.2C34,262.3,7.7,236,7.7,203.8V66.2C7.7,34,34.1,7.7,66.2,7.7h571.1
					c32.2,0,58.5,26.3,58.5,58.5v137.6C695.8,236,669.5,262.3,637.3,262.3z"/>
			</defs>
			<clipPath id="SVGID_71_">
				<use xlink:href="#SVGID_70_"  overflow="visible"/>
			</clipPath>
			<rect x="7.7" y="223.1" clip-path="url(#SVGID_71_)" fill="#F7941D" width="688" height="6.5"/>
		</g>
		<g>
			<defs>
				<path id="SVGID_72_" d="M637.3,262.3H66.2C34,262.3,7.7,236,7.7,203.8V66.2C7.7,34,34.1,7.7,66.2,7.7h571.1
					c32.2,0,58.5,26.3,58.5,58.5v137.6C695.8,236,669.5,262.3,637.3,262.3z"/>
			</defs>
			<clipPath id="SVGID_73_">
				<use xlink:href="#SVGID_72_"  overflow="visible"/>
			</clipPath>
			<rect x="7.7" y="229.6" clip-path="url(#SVGID_73_)" fill="#F7941D" width="688" height="6.5"/>
		</g>
		<g>
			<defs>
				<path id="SVGID_74_" d="M637.3,262.3H66.2C34,262.3,7.7,236,7.7,203.8V66.2C7.7,34,34.1,7.7,66.2,7.7h571.1
					c32.2,0,58.5,26.3,58.5,58.5v137.6C695.8,236,669.5,262.3,637.3,262.3z"/>
			</defs>
			<clipPath id="SVGID_75_">
				<use xlink:href="#SVGID_74_"  overflow="visible"/>
			</clipPath>
			<rect x="7.7" y="236.2" clip-path="url(#SVGID_75_)" fill="#F7941D" width="688" height="6.5"/>
		</g>
		<g>
			<defs>
				<path id="SVGID_76_" d="M637.3,262.3H66.2C34,262.3,7.7,236,7.7,203.8V66.2C7.7,34,34.1,7.7,66.2,7.7h571.1
					c32.2,0,58.5,26.3,58.5,58.5v137.6C695.8,236,669.5,262.3,637.3,262.3z"/>
			</defs>
			<clipPath id="SVGID_77_">
				<use xlink:href="#SVGID_76_"  overflow="visible"/>
			</clipPath>
			<rect x="7.7" y="242.7" clip-path="url(#SVGID_77_)" fill="#F7941D" width="688" height="6.5"/>
		</g>
		<g>
			<defs>
				<path id="SVGID_78_" d="M637.3,262.3H66.2C34,262.3,7.7,236,7.7,203.8V66.2C7.7,34,34.1,7.7,66.2,7.7h571.1
					c32.2,0,58.5,26.3,58.5,58.5v137.6C695.8,236,669.5,262.3,637.3,262.3z"/>
			</defs>
			<clipPath id="SVGID_79_">
				<use xlink:href="#SVGID_78_"  overflow="visible"/>
			</clipPath>
			<rect x="7.7" y="249.2" clip-path="url(#SVGID_79_)" fill="#F7941D" width="688" height="6.5"/>
		</g>
		<g>
			<defs>
				<path id="SVGID_80_" d="M637.3,262.3H66.2C34,262.3,7.7,236,7.7,203.8V66.2C7.7,34,34.1,7.7,66.2,7.7h571.1
					c32.2,0,58.5,26.3,58.5,58.5v137.6C695.8,236,669.5,262.3,637.3,262.3z"/>
			</defs>
			<clipPath id="SVGID_81_">
				<use xlink:href="#SVGID_80_"  overflow="visible"/>
			</clipPath>
			<rect x="7.7" y="255.8" clip-path="url(#SVGID_81_)" fill="#F7941D" width="688" height="6.5"/>
		</g>
		<g>
			<defs>
				<path id="SVGID_82_" d="M637.3,262.3H66.2C34,262.3,7.7,236,7.7,203.8V66.2C7.7,34,34.1,7.7,66.2,7.7h571.1
					c32.2,0,58.5,26.3,58.5,58.5v137.6C695.8,236,669.5,262.3,637.3,262.3z"/>
			</defs>
			<clipPath id="SVGID_83_">
				<use xlink:href="#SVGID_82_"  overflow="visible"/>
			</clipPath>
			<path clip-path="url(#SVGID_83_)" fill="#F7941D" d="M7.7,262.3h688H7.7z"/>
		</g>
	</g>
	<g>
		<g>
			<g id="g16" transform="scale(0.015625)">
				<path id="coin" fill="#FFFFFF" d="M8881,6412.4c291.2,1199.7-445.4,2408.3-1645.2,2699.5c-1199.4,291-2408-445.6-2699-1645.3
					c-291.4-1199.7,445.1-2408.4,1644.6-2699.5C7381.1,4476,8589.8,5212.7,8881,6412.4L8881,6412.4z"/>
				<path id="symbol" fill="#F7941D" d="M7434,6200.1c-98.6-284.2-373.5-320.8-697.4-271.6l-98-403.6l-245.7,59.7l95.4,393
					c-64.6,15.7-130.3,33-195.6,50.2l-96-395.6l-245.6,59.6l97.8,403.5c-52.9,14-104.9,27.7-155.9,40l-0.3-1.2l-338.9,82.1
					l63.8,262.4c0,0,180.6-47.5,178.4-43.4c99.5-24.1,145.9,25.8,167.5,73.4l111.6,459.8c6.9-1.6,15.9-3.5,26.4-4.6
					c-8.2,2-17,4.1-25.9,6.3l156.3,644.2c3.2,32.4-3.1,86.8-72.6,103.8c3.8,2-178.6,43.3-178.6,43.3l22.4,305.3l319.7-77.6
					c59.5-14.4,118.3-27.6,175.9-41.2l99.2,408.2l245.4-59.5l-98-403.9c67.7-15,133.1-30.2,196.7-45.8l97.5,402.1l245.7-59.7
					l-98.8-407.5c407.3-123.9,671.2-298.2,612.9-694.8c-46.8-319.4-227.6-423.1-475.7-422.5
					C7448.5,6557.4,7506.6,6407.9,7434,6200.1L7434,6200.1z M7302.2,7156.4c74.2,305-456.6,397.1-623.1,437.7l-131.2-540.9
					C6714.4,7012.8,7224.9,6838.2,7302.2,7156.4z M7002.7,6421c67.3,277.6-376.2,350.9-514.9,384.6l-119-490.6
					C6507.4,6281.4,6932.4,6131.5,7002.7,6421z"/>
			</g>
			<path fill="#FFFFFF" d="M129.4,143.5c11-7.7,18.2-20.5,18.2-35s-7.2-27.3-18.2-35h32.1v70H129.4L129.4,143.5z"/>
			<path fill="#FFFFFF" d="M62.1,108.5c0,14.5,7.2,27.3,18.2,35H48.2v-70h32.2C69.3,81.2,62.1,94,62.1,108.5z"/>
		</g>
		<g>
			<path fill="#FFFFFF" d="M196.2,143.1c-3.7,0-7.4-0.1-11.1-0.4c-3.7-0.2-7.5-0.8-11.5-1.6V75.5c3.1-0.6,6.6-1,10.3-1.3
				s7.2-0.4,10.4-0.4c4.3,0,8.3,0.3,11.9,1c3.6,0.6,6.7,1.7,9.3,3.1c2.6,1.5,4.7,3.5,6.1,5.9c1.5,2.5,2.2,5.5,2.2,9
				c0,5.4-2.6,9.7-7.8,12.8c4.3,1.6,7.2,3.9,8.8,6.6c1.6,2.8,2.4,6,2.4,9.5c0,7.1-2.6,12.4-7.8,16
				C214.1,141.3,206.5,143.1,196.2,143.1z M188.5,101.1h7.4c4.7,0,8-0.6,10.1-1.8c2-1.2,3-3.1,3-5.8c0-2.7-1-4.7-3.1-5.8
				c-2.1-1.1-5.2-1.7-9.2-1.7c-1.3,0-2.7,0-4.2,0s-2.8,0.1-4,0.2C188.5,86.4,188.5,101.1,188.5,101.1z M188.5,112.8v17.5
				c1.1,0.2,2.3,0.2,3.6,0.3s2.7,0.1,4.3,0.1c4.6,0,8.2-0.6,11-2c2.8-1.3,4.2-3.7,4.2-7.2c0-3.1-1.2-5.4-3.5-6.7
				c-2.4-1.4-5.7-2-10.1-2L188.5,112.8L188.5,112.8L188.5,112.8z"/>
			<path fill="#FFFFFF" d="M248.8,76c0,2.7-0.8,4.8-2.6,6.3c-1.7,1.6-3.8,2.3-6.1,2.3s-4.4-0.8-6.1-2.3c-1.7-1.6-2.6-3.6-2.6-6.3
				c0-2.7,0.8-4.8,2.6-6.3c1.7-1.5,3.8-2.3,6.1-2.3s4.4,0.8,6.1,2.3C248,71.3,248.8,73.4,248.8,76z M247.5,142.2H233V90.8h14.5
				V142.2z"/>
			<path fill="#FFFFFF" d="M255.3,78.1l14.5-2.4v15.1h17.5V103h-17.5v18c0,3.1,0.6,5.5,1.6,7.3s3.3,2.7,6.5,2.7
				c1.6,0,3.1-0.2,4.8-0.4c1.7-0.3,3.1-0.7,4.6-1.2l2.1,11.3c-1.8,0.7-3.7,1.4-5.9,1.9c-2.2,0.5-4.8,0.8-7.9,0.8
				c-4,0-7.3-0.6-9.9-1.6s-4.7-2.6-6.3-4.5c-1.6-1.9-2.7-4.3-3.3-7c-0.6-2.7-1-5.8-1-9.1L255.3,78.1L255.3,78.1z"/>
			<path fill="#FFFFFF" d="M289.3,116.5c0-3.7,0.6-7.2,1.8-10.5c1.2-3.3,2.9-6.2,5.2-8.6c2.3-2.5,5.1-4.4,8.3-5.8
				c3.3-1.5,7-2.2,11.1-2.2c2.7,0,5.3,0.2,7.5,0.8c2.3,0.5,4.5,1.2,6.6,2.1l-3,11.6c-1.4-0.5-2.9-1-4.5-1.4s-3.5-0.6-5.5-0.6
				c-4.3,0-7.5,1.4-9.6,4c-2.1,2.7-3.1,6.2-3.1,10.5c0,4.6,1,8.2,2.9,10.7c2,2.6,5.5,3.8,10.4,3.8c1.8,0,3.7-0.2,5.7-0.5
				s3.9-0.8,5.6-1.6l2.1,11.9c-1.7,0.7-3.8,1.4-6.4,1.9s-5.4,0.8-8.4,0.8c-4.7,0-8.7-0.7-12.1-2.1c-3.4-1.4-6.2-3.3-8.4-5.7
				s-3.8-5.3-4.8-8.5C289.9,123.9,289.3,120.4,289.3,116.5z"/>
			<path fill="#FFFFFF" d="M380.8,116.5c0,4.1-0.6,7.7-1.8,11.1s-2.9,6.2-5.1,8.6s-4.9,4.2-8,5.5s-6.6,2-10.4,2s-7.2-0.6-10.3-2
				s-5.8-3.1-8-5.5s-4-5.3-5.2-8.6c-1.3-3.4-1.9-7.1-1.9-11.1c0-4.1,0.6-7.7,1.9-11s3-6.2,5.3-8.5c2.3-2.4,4.9-4.2,8-5.5
				s6.5-2,10.1-2c3.7,0,7.1,0.6,10.2,2c3.1,1.3,5.8,3.1,8,5.5s4,5.2,5.2,8.5C380.2,108.7,380.8,112.4,380.8,116.5z M366,116.5
				c0-4.5-0.9-8-2.7-10.6c-1.8-2.6-4.4-3.9-7.7-3.9c-3.3,0-5.9,1.3-7.7,3.9c-1.8,2.6-2.7,6.1-2.7,10.6s0.9,8.1,2.7,10.7
				c1.8,2.7,4.4,4,7.7,4c3.3,0,5.9-1.3,7.7-4S366,120.9,366,116.5z"/>
			<path fill="#FFFFFF" d="M402.6,76c0,2.7-0.8,4.8-2.6,6.3c-1.7,1.6-3.8,2.3-6.1,2.3c-2.4,0-4.4-0.8-6.1-2.3
				c-1.7-1.6-2.6-3.6-2.6-6.3c0-2.7,0.8-4.8,2.6-6.3c1.7-1.5,3.8-2.3,6.1-2.3c2.4,0,4.4,0.8,6.1,2.3C401.7,71.3,402.6,73.4,402.6,76
				z M401.2,142.2h-14.5V90.8h14.5V142.2z"/>
			<path fill="#FFFFFF" d="M409.5,92.6c2.5-0.7,5.7-1.4,9.6-2s8-1,12.3-1c4.4,0,8,0.6,10.9,1.7c2.9,1.2,5.2,2.7,6.9,4.8
				c1.7,2.1,2.9,4.6,3.6,7.4c0.7,2.9,1,6.1,1,9.6v29h-14.5v-27.3c0-4.7-0.6-8-1.9-10s-3.6-2.9-6.9-2.9c-1,0-2.2,0-3.3,0.2
				s-2.2,0.2-3.1,0.4v39.6h-14.5L409.5,92.6L409.5,92.6z"/>
			<path fill="#FFFFFF" d="M493.5,143.6c-11,0-19.4-3.1-25.1-9.2c-5.8-6.1-8.6-14.8-8.6-26.1c0-5.6,0.9-10.6,2.7-15
				c1.8-4.4,4.2-8.1,7.2-11.1c3.1-3,6.7-5.3,10.9-6.9c4.2-1.6,8.8-2.4,13.8-2.4c2.9,0,5.5,0.2,7.8,0.6c2.4,0.4,4.4,0.9,6.2,1.5
				c1.8,0.6,3.2,1.1,4.4,1.7c1.2,0.6,2,1,2.6,1.4L511,90.4c-2.1-1.1-4.5-2.1-7.3-2.8c-2.7-0.8-5.9-1.2-9.4-1.2
				c-2.4,0-4.7,0.4-6.9,1.2c-2.3,0.8-4.2,2.1-6,3.8c-1.7,1.7-3.1,4-4.2,6.7c-1,2.7-1.6,6.1-1.6,10c0,3.1,0.4,6,1,8.7
				c0.7,2.7,1.8,5,3.3,7c1.6,2,3.5,3.5,6,4.7s5.5,1.7,9,1.7c2.2,0,4.2-0.2,6-0.4s3.3-0.6,4.7-1c1.4-0.4,2.6-0.8,3.6-1.2
				c1-0.4,2-0.9,2.8-1.3l4.2,12.2c-2.2,1.3-5.2,2.5-9.1,3.5C503.2,143.1,498.6,143.6,493.5,143.6z"/>
			<path fill="#FFFFFF" d="M539,89.5c4.3,0,7.9,0.5,10.7,1.5s5.2,2.4,6.9,4.2c1.7,1.8,2.9,4.1,3.7,6.6c0.7,2.6,1,5.5,1,8.7v30.3
				c-2.1,0.4-5,1-8.7,1.6s-8.2,1-13.5,1c-3.3,0-6.3-0.3-9-0.9c-2.7-0.6-5-1.6-7-2.9c-2-1.4-3.5-3.1-4.5-5.2c-1-2.2-1.6-4.8-1.6-7.9
				c0-3,0.6-5.5,1.8-7.6s2.8-3.8,4.8-5c2-1.3,4.3-2.2,6.9-2.7c2.6-0.6,5.3-0.8,8.1-0.8c1.9,0,3.6,0.1,5,0.2c1.5,0.2,2.7,0.4,3.6,0.6
				v-1.4c0-2.5-0.8-4.5-2.3-6s-4.1-2.3-7.8-2.3c-2.5,0-4.9,0.2-7.3,0.6c-2.4,0.4-4.5,0.8-6.3,1.5l-1.9-11.7c0.8-0.2,1.9-0.6,3.1-0.8
				c1.3-0.3,2.7-0.6,4.2-0.8c1.5-0.2,3.1-0.4,4.7-0.6C535.6,89.6,537.3,89.5,539,89.5z M540.1,132c1.5,0,2.8,0,4.1-0.1
				c1.3,0,2.4-0.2,3.1-0.3v-11c-0.6-0.2-1.5-0.2-2.7-0.4c-1.2-0.2-2.3-0.2-3.2-0.2c-1.4,0-2.7,0.1-3.9,0.2c-1.2,0.2-2.3,0.4-3.1,1
				c-0.9,0.4-1.6,1-2.2,1.9c-0.5,0.8-0.8,1.8-0.8,2.9c0,2.3,0.8,3.9,2.3,4.7C535.4,131.6,537.5,132,540.1,132z"/>
			<path fill="#FFFFFF" d="M583.9,131.8c2.7,0,4.6-0.2,5.7-0.8c1.1-0.5,1.7-1.6,1.7-3c0-1.2-0.7-2.2-2.2-3.1s-3.6-1.9-6.6-2.9
				c-2.3-0.8-4.4-1.7-6.2-2.7c-1.9-0.9-3.5-2-4.7-3.3c-1.3-1.3-2.3-2.8-3-4.6s-1-3.9-1-6.4c0-4.8,1.8-8.6,5.4-11.4s8.5-4.2,14.7-4.2
				c3.1,0,6.1,0.3,9,0.8c2.9,0.6,5.2,1.2,6.8,1.8l-2.6,11.3c-1.7-0.6-3.5-1.1-5.5-1.6c-2-0.4-4.2-0.7-6.7-0.7
				c-4.6,0-6.8,1.3-6.8,3.8c0,0.6,0.1,1.1,0.3,1.6s0.6,0.9,1.2,1.3c0.6,0.4,1.4,0.9,2.4,1.4s2.3,1,3.9,1.6c3.2,1.2,5.8,2.4,7.9,3.5
				c2.1,1.2,3.7,2.4,4.9,3.7c1.2,1.4,2.1,2.8,2.6,4.4s0.8,3.5,0.8,5.7c0,5.1-1.9,8.9-5.7,11.5s-9.2,3.9-16.1,3.9
				c-4.6,0-8.4-0.4-11.4-1.2s-5.1-1.5-6.3-2l2.5-11.8c2.5,1,5,1.8,7.6,2.3C578.8,131.5,581.3,131.8,583.9,131.8z"/>
			<path fill="#FFFFFF" d="M611.1,142.2V68.8l14.5-2.4V91c1-0.3,2.2-0.6,3.8-1s3-0.4,4.5-0.4c4.2,0,7.6,0.6,10.4,1.7s5,2.7,6.6,4.8
				c1.7,2.1,2.8,4.6,3.5,7.4c0.7,2.9,1,6.1,1,9.6v29h-14.5v-27.3c0-4.7-0.6-8-1.8-10s-3.5-2.9-6.7-2.9c-1.3,0-2.5,0.1-3.7,0.4
				c-1.2,0.2-2.2,0.4-3.1,0.8v39L611.1,142.2L611.1,142.2z"/>
		</g>
		<g>
			<path fill="#FFFFFF" d="M204.7,184.4c0,3-0.5,5.7-1.5,8c-1,2.4-2.4,4.4-4.2,6c-1.8,1.6-4,2.9-6.6,3.8c-2.6,0.9-5.5,1.3-8.8,1.3
				c-1.2,0-2.7-0.1-4.3-0.2c-1.6-0.1-3.2-0.4-4.7-0.7l7.1-29.6c1.7-0.3,3.3-0.6,4.8-0.7c1.5-0.1,2.9-0.2,4.2-0.2
				c2.2,0,4.1,0.3,5.9,0.9c1.7,0.6,3.2,1.4,4.4,2.5c1.2,1.1,2.1,2.4,2.7,3.9C204.4,180.9,204.7,182.6,204.7,184.4z M182.7,197.6
				c0.3,0,0.7,0.1,1,0.1c0.3,0,0.8,0,1.4,0c1.9,0,3.7-0.3,5.2-0.9c1.5-0.6,2.9-1.4,3.9-2.5c1.1-1.1,1.9-2.5,2.5-4.1
				c0.6-1.6,0.9-3.4,0.9-5.4c0-1-0.1-2-0.4-2.8c-0.3-0.8-0.7-1.6-1.3-2.2c-0.6-0.6-1.4-1.1-2.3-1.4c-1-0.3-2.1-0.5-3.5-0.5
				c-0.9,0-1.8,0-2.7,0.1L182.7,197.6z"/>
			<path fill="#FFFFFF" d="M220.2,203.7c-1.8,0-3.5-0.3-5-0.9c-1.5-0.6-2.8-1.4-3.9-2.5c-1.1-1.1-1.9-2.5-2.5-4.1
				c-0.6-1.6-0.9-3.4-0.9-5.4c0-2.3,0.4-4.6,1.2-6.9c0.8-2.3,1.9-4.3,3.4-6.1c1.5-1.8,3.3-3.3,5.5-4.4c2.2-1.1,4.6-1.7,7.3-1.7
				c1.8,0,3.5,0.3,5,0.9c1.5,0.6,2.8,1.4,3.9,2.5c1.1,1.1,1.9,2.5,2.5,4.1c0.6,1.6,0.9,3.4,0.9,5.4c0,2.3-0.4,4.6-1.2,6.9
				c-0.8,2.3-1.9,4.3-3.4,6.2c-1.5,1.8-3.3,3.3-5.5,4.4C225.4,203.2,223,203.7,220.2,203.7z M224.6,177.7c-1.4,0-2.6,0.4-3.8,1.1
				c-1.2,0.7-2.2,1.7-3.1,2.8c-0.9,1.2-1.5,2.5-2,4.1c-0.5,1.5-0.7,3.1-0.7,4.7c0,2.2,0.5,4,1.4,5.4c0.9,1.4,2.4,2.1,4.5,2.1
				c1.4,0,2.6-0.4,3.8-1.1c1.2-0.7,2.2-1.7,3.1-2.8c0.9-1.2,1.5-2.5,2-4.1c0.5-1.5,0.7-3.1,0.7-4.8c0-2.2-0.5-4-1.4-5.4
				C228.2,178.3,226.7,177.7,224.6,177.7z"/>
			<path fill="#FFFFFF" d="M259.4,203.1c-1.2-3.5-2.6-7-4.1-10.4c-1.5-3.5-3.2-6.8-4.9-9.9l-4.9,20.3h-6.8l7.3-30.7h5.3
				c0.7,1,1.4,2.3,2.2,3.7c0.8,1.4,1.6,2.9,2.4,4.5c0.8,1.6,1.7,3.3,2.5,5.1c0.8,1.8,1.6,3.5,2.3,5.2l4.4-18.5h6.9l-7.4,30.7H259.4z
				"/>
			<path fill="#FFFFFF" d="M291,203.1c-0.1-1.2-0.1-2.3-0.2-3.4c-0.1-1.1-0.2-2.2-0.2-3.3h-11.5c-0.6,1.1-1.2,2.2-1.9,3.3
				c-0.6,1.1-1.3,2.2-1.9,3.4h-7.2c1.9-3.3,3.7-6.4,5.4-9.2s3.3-5.4,4.8-7.9c1.5-2.5,3.1-4.8,4.5-7.1c1.5-2.2,3-4.4,4.5-6.5h6.2
				c0.5,2.1,0.9,4.5,1.4,7.1c0.4,2.6,0.8,5.2,1.2,7.9c0.4,2.7,0.7,5.4,1,8.1c0.3,2.7,0.6,5.2,0.9,7.6H291z M289,179.2
				c-1.2,2-2.5,3.9-3.7,5.9c-1.2,1.9-2.4,3.9-3.5,6h8.3c-0.1-1.8-0.3-3.7-0.5-5.8C289.5,183.2,289.3,181.2,289,179.2z"/>
			<path fill="#FFFFFF" d="M328.1,172.4l-1.4,5.8h-9l-6,24.9h-6.9l6-24.9h-9l1.4-5.8H328.1z"/>
			<path fill="#FFFFFF" d="M331.6,172.4h6.9l-7.4,30.7h-6.9L331.6,172.4z"/>
			<path fill="#FFFFFF" d="M351.9,203.7c-1.8,0-3.5-0.3-5-0.9c-1.5-0.6-2.8-1.4-3.9-2.5c-1.1-1.1-1.9-2.5-2.5-4.1
				c-0.6-1.6-0.9-3.4-0.9-5.4c0-2.3,0.4-4.6,1.2-6.9c0.8-2.3,1.9-4.3,3.4-6.1c1.5-1.8,3.3-3.3,5.5-4.4c2.2-1.1,4.6-1.7,7.3-1.7
				c1.8,0,3.5,0.3,5,0.9c1.5,0.6,2.8,1.4,3.9,2.5c1.1,1.1,1.9,2.5,2.5,4.1c0.6,1.6,0.9,3.4,0.9,5.4c0,2.3-0.4,4.6-1.2,6.9
				c-0.8,2.3-1.9,4.3-3.4,6.2c-1.5,1.8-3.3,3.3-5.5,4.4C357.1,203.2,354.6,203.7,351.9,203.7z M356.3,177.7c-1.4,0-2.6,0.4-3.8,1.1
				c-1.2,0.7-2.2,1.7-3.1,2.8c-0.9,1.2-1.5,2.5-2,4.1c-0.5,1.5-0.7,3.1-0.7,4.7c0,2.2,0.5,4,1.4,5.4c0.9,1.4,2.4,2.1,4.5,2.1
				c1.4,0,2.6-0.4,3.8-1.1c1.2-0.7,2.2-1.7,3.1-2.8c0.9-1.2,1.5-2.5,2-4.1c0.5-1.5,0.7-3.1,0.7-4.8c0-2.2-0.5-4-1.4-5.4
				C359.9,178.3,358.4,177.7,356.3,177.7z"/>
			<path fill="#FFFFFF" d="M391,203.1c-1.2-3.5-2.6-7-4.1-10.4c-1.5-3.5-3.2-6.8-4.9-9.9l-4.9,20.3h-6.8l7.3-30.7h5.3
				c0.7,1,1.4,2.3,2.2,3.7c0.8,1.4,1.6,2.9,2.4,4.5c0.8,1.6,1.7,3.3,2.5,5.1s1.6,3.5,2.3,5.2l4.4-18.5h6.9l-7.4,30.7H391z"/>
			<path fill="#FFFFFF" d="M411.1,198c0.7,0,1.4-0.1,2-0.2s1.3-0.3,1.8-0.6s1-0.6,1.3-1.1c0.3-0.5,0.5-1.1,0.5-1.9
				c0-0.6-0.2-1.1-0.5-1.5c-0.3-0.4-0.7-0.8-1.2-1.2c-0.5-0.4-1.1-0.7-1.7-1c-0.6-0.3-1.2-0.6-1.9-1c-0.8-0.5-1.5-1-2.3-1.5
				s-1.3-1.1-1.8-1.8c-0.5-0.7-0.9-1.4-1.2-2.2s-0.4-1.7-0.4-2.8c0-1.4,0.3-2.6,0.8-3.8s1.3-2.2,2.3-3c1-0.9,2.3-1.5,3.8-2
				c1.5-0.5,3.3-0.7,5.4-0.7c0.9,0,1.9,0.1,2.7,0.2c0.9,0.2,1.7,0.4,2.5,0.6c0.8,0.2,1.5,0.5,2.1,0.8c0.6,0.3,1.2,0.6,1.6,0.9
				l-2.9,5.1c-0.7-0.6-1.6-1-2.7-1.4c-1.1-0.4-2.2-0.6-3.5-0.6c-0.7,0-1.3,0.1-1.9,0.2c-0.6,0.1-1.2,0.3-1.6,0.6
				c-0.5,0.3-0.8,0.6-1.1,1.1c-0.3,0.4-0.4,1-0.4,1.6c0,0.6,0.1,1.1,0.3,1.5c0.2,0.4,0.5,0.7,0.9,1c0.4,0.3,0.8,0.6,1.2,0.8
				c0.5,0.2,1,0.5,1.5,0.8c0.9,0.5,1.8,1,2.7,1.5c0.9,0.5,1.6,1.1,2.3,1.8s1.2,1.5,1.5,2.4c0.4,0.9,0.6,1.9,0.6,3.1
				c0,1.7-0.3,3.1-0.9,4.4c-0.6,1.2-1.5,2.3-2.6,3.1c-1.1,0.8-2.5,1.4-4,1.8s-3.3,0.6-5.2,0.6c-1.2,0-2.4-0.1-3.5-0.3
				c-1.1-0.2-2.1-0.4-2.9-0.7c-0.9-0.3-1.6-0.6-2.3-0.9c-0.6-0.3-1.1-0.6-1.5-0.9l2.9-5.3c0.4,0.2,0.8,0.5,1.3,0.8s1.1,0.5,1.7,0.8
				c0.6,0.2,1.3,0.4,2,0.6C409.6,197.9,410.3,198,411.1,198z"/>
			<path fill="#FFFFFF" d="M456.8,203.1c-0.1-1.2-0.1-2.3-0.2-3.4c-0.1-1.1-0.2-2.2-0.2-3.3h-11.5c-0.6,1.1-1.2,2.2-1.9,3.3
				c-0.7,1.1-1.3,2.2-1.9,3.4h-7.2c1.9-3.3,3.7-6.4,5.4-9.2c1.7-2.8,3.3-5.4,4.8-7.9c1.5-2.5,3.1-4.8,4.5-7.1s3-4.4,4.5-6.5h6.2
				c0.5,2.1,0.9,4.5,1.4,7.1c0.4,2.6,0.8,5.2,1.2,7.9c0.4,2.7,0.7,5.4,1,8.1c0.3,2.7,0.6,5.2,0.9,7.6H456.8z M454.7,179.2
				c-1.2,2-2.5,3.9-3.7,5.9c-1.2,1.9-2.4,3.9-3.5,6h8.3c-0.1-1.8-0.3-3.7-0.5-5.8C455.2,183.2,455,181.2,454.7,179.2z"/>
			<path fill="#FFFFFF" d="M489.3,201.8c-1.2,0.6-2.6,1.1-4,1.4c-1.5,0.4-3.3,0.5-5.4,0.5c-1.8,0-3.5-0.3-5-0.9
				c-1.5-0.6-2.8-1.5-3.9-2.6c-1.1-1.1-1.9-2.5-2.5-4.1c-0.6-1.6-0.9-3.4-0.9-5.4c0-2.3,0.4-4.6,1.2-6.9c0.8-2.3,2-4.3,3.6-6.1
				c1.6-1.8,3.5-3.2,5.8-4.4c2.3-1.1,4.9-1.7,7.9-1.7c1.4,0,2.8,0.2,4.2,0.5c1.4,0.3,2.8,0.9,4.3,1.7l-2.5,5.4
				c-1.2-0.6-2.3-1.1-3.3-1.3c-1-0.2-2-0.4-3.1-0.4c-1.7,0-3.2,0.3-4.5,1c-1.3,0.7-2.5,1.6-3.5,2.8c-1,1.2-1.7,2.5-2.2,4.1
				c-0.5,1.5-0.8,3.2-0.8,4.9c0,2.6,0.6,4.5,1.7,5.7c1.1,1.2,2.8,1.8,4.9,1.8c1.4,0,2.7-0.1,3.9-0.4c1.2-0.3,2.3-0.7,3.3-1.2
				L489.3,201.8z"/>
			<path fill="#FFFFFF" d="M516,201.8c-1.2,0.6-2.6,1.1-4,1.4c-1.5,0.4-3.3,0.5-5.4,0.5c-1.8,0-3.5-0.3-5-0.9
				c-1.5-0.6-2.8-1.5-3.9-2.6c-1.1-1.1-1.9-2.5-2.5-4.1c-0.6-1.6-0.9-3.4-0.9-5.4c0-2.3,0.4-4.6,1.2-6.9c0.8-2.3,2-4.3,3.6-6.1
				c1.6-1.8,3.5-3.2,5.8-4.4c2.3-1.1,4.9-1.7,7.9-1.7c1.4,0,2.8,0.2,4.2,0.5c1.4,0.3,2.8,0.9,4.3,1.7l-2.5,5.4
				c-1.2-0.6-2.3-1.1-3.3-1.3c-1-0.2-2-0.4-3.1-0.4c-1.7,0-3.2,0.3-4.5,1c-1.3,0.7-2.5,1.6-3.5,2.8c-1,1.2-1.7,2.5-2.2,4.1
				c-0.5,1.5-0.8,3.2-0.8,4.9c0,2.6,0.6,4.5,1.7,5.7c1.1,1.2,2.8,1.8,4.9,1.8c1.4,0,2.7-0.1,3.9-0.4c1.2-0.3,2.3-0.7,3.3-1.2
				L516,201.8z"/>
			<path fill="#FFFFFF" d="M519.8,203.1l7.3-30.7h20.1l-1.4,5.7h-13.1l-1.4,6.2h11.6l-1.4,5.6h-11.6l-1.8,7.5h14.2l-1.4,5.7H519.8z"
				/>
			<path fill="#FFFFFF" d="M561.2,172.1c1.9,0,3.5,0.2,5,0.6s2.8,1,3.8,1.7c1,0.8,1.8,1.7,2.4,2.8s0.8,2.3,0.8,3.7
				c0,2.2-0.4,4.1-1.3,5.6c-0.9,1.5-2,2.8-3.5,3.7c-1.5,0.9-3.3,1.6-5.3,2s-4.2,0.6-6.6,0.6h-1.7l-2.5,10.3h-6.9l7.2-30.2
				c1.6-0.3,3.1-0.5,4.5-0.6S559.9,172.1,561.2,172.1z M560.6,177.9c-0.5,0-0.9,0-1.3,0c-0.4,0-0.7,0.1-1.1,0.1l-2.1,9h1.7
				c1.2,0,2.4-0.1,3.4-0.3c1-0.2,1.9-0.5,2.6-1c0.7-0.4,1.3-1,1.7-1.7s0.6-1.5,0.6-2.5c0-1.3-0.5-2.3-1.4-2.8
				C563.8,178.2,562.4,177.9,560.6,177.9z"/>
			<path fill="#FFFFFF" d="M602.4,172.4l-1.4,5.8h-9l-6,24.9h-6.9l6-24.9h-9l1.4-5.8H602.4z"/>
			<path fill="#FFFFFF" d="M598.6,203.1l7.3-30.7h20.1l-1.4,5.7h-13.1l-1.4,6.2h11.6l-1.4,5.6h-11.6l-1.8,7.5h14.2l-1.4,5.7H598.6z"
				/>
			<path fill="#FFFFFF" d="M654.3,184.4c0,3-0.5,5.7-1.5,8c-1,2.4-2.4,4.4-4.2,6c-1.8,1.6-4,2.9-6.6,3.8c-2.6,0.9-5.5,1.3-8.8,1.3
				c-1.2,0-2.7-0.1-4.3-0.2c-1.6-0.1-3.2-0.4-4.7-0.7l7.1-29.6c1.7-0.3,3.3-0.6,4.8-0.7s2.9-0.2,4.2-0.2c2.2,0,4.1,0.3,5.9,0.9
				c1.7,0.6,3.2,1.4,4.4,2.5c1.2,1.1,2.1,2.4,2.7,3.9C654,180.9,654.3,182.6,654.3,184.4z M632.3,197.6c0.3,0,0.7,0.1,1,0.1
				c0.3,0,0.8,0,1.4,0c1.9,0,3.7-0.3,5.2-0.9c1.5-0.6,2.9-1.4,3.9-2.5c1.1-1.1,1.9-2.5,2.5-4.1c0.6-1.6,0.9-3.4,0.9-5.4
				c0-1-0.1-2-0.4-2.8c-0.3-0.8-0.7-1.6-1.3-2.2c-0.6-0.6-1.4-1.1-2.3-1.4c-1-0.3-2.1-0.5-3.5-0.5c-0.9,0-1.8,0-2.7,0.1L632.3,197.6
				z"/>
		</g>
	</g>
</g>
</svg>
