<?xml version="1.0" encoding="utf-8"?>
<!-- Generator: Adobe Illustrator 22.0.1, SVG Export Plug-In . SVG Version: 6.00 Build 0)  -->
<svg version="1.1" id="Layer_1" xmlns="http://www.w3.org/2000/svg" xmlns:xlink="http://www.w3.org/1999/xlink" x="0px" y="0px"
	 width="800px" height="800px" viewBox="0 0 800 800" style="enable-background:new 0 0 800 800;" xml:space="preserve">
<style type="text/css">
	.st0{clip-path:url(#SVGID_2_);}
	.st1{fill:#F7941D;}
	.st2{fill:#FFFFFF;}
</style>
<g>
	<defs>
		<path id="SVGID_1_" d="M722.364,794H77.636C38.236,794,6,761.764,6,722.364V77.636C6,38.236,38.236,6,77.636,6h644.727
			C761.764,6,794,38.236,794,77.636v644.727C794,761.764,761.764,794,722.364,794z"/>
	</defs>
	<clipPath id="SVGID_2_">
		<use xlink:href="#SVGID_1_"  style="overflow:visible;"/>
	</clipPath>
	<g class="st0">
		<g>
			<g>
				<path class="st1" d="M676.291,794.141c124.019-87.012,205.062-231.06,205.062-394.074S800.31,92.872,676.291,5.859H1038v788.282
					H676.291L676.291,794.141z"/>
				<path class="st1" d="M-80.954,399.934c0,163.016,81.043,307.063,205.062,394.074H-238V5.859h362.109
					C0.088,92.872-80.954,236.919-80.954,399.934z"/>
			</g>
			<g>
				<circle class="st1" cx="400" cy="399.743" r="393.808"/>
				<path class="st2" d="M584.706,416.1l-0.219-0.407l-0.037-0.068c-0.133-0.41-0.232-0.838-0.383-1.281l-0.019-0.035l-0.019-0.034
					l-0.019-0.034l-0.018-0.034l-0.019-0.034l-0.019-0.034l-0.037-0.068c-5.044-16.362-14.504-29.955-26.303-39.355l-0.018-0.034
					c-0.37-0.283-0.759-0.598-1.13-0.879l-0.512-0.381l-0.37-0.281l-0.159-0.133l-0.353-0.248l-0.159-0.133l-0.353-0.248
					l-0.159-0.133l-0.37-0.281l-0.194-0.115l-0.37-0.281l-0.194-0.115l-0.405-0.264l-0.194-0.115l-0.235-0.355l-0.211-0.149
					l-0.405-0.264l-0.211-0.149l-0.405-0.264l-0.211-0.149l-0.405-0.264l-0.211-0.149l-0.423-0.297l-0.211-0.149l-0.456-0.28
					l-0.211-0.149l-0.456-0.28l-0.211-0.149l-0.456-0.28l-0.211-0.149l-0.456-0.28l-0.245-0.13l-0.456-0.28l-0.245-0.13
					l-0.491-0.261l-0.245-0.13l-0.509-0.294l-0.245-0.13l-0.509-0.294l-0.245-0.13l-0.509-0.294l-0.264-0.164l-0.509-0.294
					l-0.264-0.164l-0.542-0.277l-0.264-0.164l-0.542-0.277l-0.367-0.196l-0.019-0.034c-0.264-0.164-0.542-0.277-0.806-0.442
					c-11.26-5.798-23.424-9.62-35.958-11.362c3.523-3.778,6.729-7.823,9.633-12.099l0.462-0.686l0.034-0.019l0.214-0.334l0.28-0.456
					l0.149-0.211l0.28-0.456l0.149-0.211l0.28-0.456l0.149-0.211l0.28-0.456l0.149-0.211l0.28-0.456l0.148-0.211l0.245-0.439
					l0.149-0.211l0.245-0.439l0.115-0.194l0.245-0.439l0.115-0.194l0.245-0.439l0.115-0.194l0.211-0.42l0.115-0.194l0.211-0.42
					l0.115-0.194l0.211-0.42l0.115-0.194l0.229-0.386l0.115-0.194l0.229-0.386l0.115-0.194l0.196-0.367l0.115-0.194l0.196-0.367
					l0.081-0.175l0.196-0.367l0.081-0.175l0.196-0.367l0.081-0.175l0.196-0.367l0.081-0.175l0.162-0.35l0.081-0.175l0.162-0.35
					l0.081-0.175l0.162-0.35l0.081-0.175l0.178-0.402l0.243-0.524c0.178-0.402,0.321-0.785,0.499-1.187l0.034-0.019
					c5.195-12.379,6.7-27.059,3.63-41.948l-0.019-0.034l-0.037-0.068l-0.019-0.034l-0.018-0.034l-0.019-0.034l-0.019-0.034
					l-0.019-0.034l-0.018-0.034c-0.081-0.394-0.162-0.788-0.276-1.165l-0.003-0.086l-0.019-0.034l-0.019-0.034l-0.019-0.034
					l0.019,0.034l-0.164-0.305c-0.119-0.548-0.24-1.096-0.412-1.659c-0.119-0.548-0.292-1.112-0.446-1.642l-0.2-0.373l-0.037-0.068
					c-0.115-0.375-0.229-0.752-0.345-1.127l-0.019-0.034l-0.019-0.034l-0.019-0.034l-0.018-0.034l-0.019-0.034l-0.019-0.034
					l-0.018-0.034c-4.455-14.536-12.887-26.624-23.397-35.012l-0.019-0.035c-0.318-0.267-0.671-0.515-0.989-0.78l-0.44-0.332
					L499,238.009l-0.159-0.133l-0.3-0.232l-0.159-0.133l-0.3-0.232l-0.159-0.133l-0.334-0.214l-0.159-0.133l-0.353-0.248
					l-0.159-0.133l-0.353-0.248l-0.159-0.133l-0.353-0.248l-0.194-0.115l-0.353-0.248l-0.194-0.115l-0.353-0.248l-0.194-0.115
					l-0.386-0.229l-0.194-0.115l-0.386-0.229l-0.194-0.115l-0.386-0.229l-0.194-0.115l-0.386-0.229l-0.194-0.115l-0.405-0.264
					l-0.194-0.115l-0.405-0.264l-0.194-0.115l-0.439-0.245l-0.194-0.115l-0.438-0.245l-0.211-0.149l-0.439-0.245l-0.211-0.149
					l-0.438-0.245l-0.211-0.149l-0.456-0.28l-0.245-0.13l-0.456-0.28l-0.245-0.13l-0.491-0.261l-0.245-0.13l-0.491-0.261
					l-0.35-0.162l-0.019-0.034l-0.736-0.391c-21.506-11.177-48.828-14.542-76.317-7.49l-7.15,1.836l-18.086-70.427l-41.911,10.745
					l18.027,70.152l-33.528,8.596l-18.037-69.928l-41.911,10.745l18.027,70.152l-86.436,22.242l11.501,44.698l34.828-8.945
					c11.529-2.968,23.323,3.986,26.257,15.533l0,0l48.348,188.099c1.99,7.68-2.669,15.527-10.35,17.516l-30.517,7.851l1.793,53.161
					l86.334-22.186l18.264,70.025l41.892-10.779l-18.045-70.187l33.528-8.596l18.045,70.185l41.892-10.779l-18.105-70.46
					c7.099-1.852,13.205-3.433,17.43-4.526c30.979-7.968,56.03-26.134,71.189-48.777l0.512-0.756l0.034-0.019l0.248-0.353
					l0.329-0.527l0.164-0.264l0.329-0.527l0.164-0.264l0.294-0.509l0.164-0.264l0.294-0.509l0.13-0.245l0.294-0.509l0.13-0.245
					l0.294-0.509l0.13-0.245l0.261-0.491l0.13-0.245l0.261-0.491l0.13-0.245l0.28-0.456l0.13-0.245l0.28-0.456l0.13-0.245
					l0.245-0.439l0.13-0.245l0.245-0.438l0.13-0.245l0.245-0.438l0.097-0.227l0.245-0.438l0.097-0.227l0.211-0.42l0.115-0.194
					l0.211-0.42l0.115-0.194l0.211-0.42l0.115-0.194l0.211-0.42l0.115-0.194l0.211-0.42l0.115-0.194l0.211-0.42l0.115-0.194
					l0.178-0.402l0.115-0.194l0.178-0.402l0.081-0.175l0.194-0.454l0.259-0.577c0.194-0.454,0.405-0.874,0.564-1.31l0.016-0.052
					c5.803-13.931,7.564-30.412,4.093-47.184l-0.019-0.035l-0.019-0.034l-0.018-0.034l-0.019-0.034l-0.019-0.034l-0.019-0.034
					l-0.018-0.034l-0.019-0.034c-0.099-0.428-0.198-0.855-0.297-1.284l-0.003-0.086l-0.018-0.034l-0.019-0.034l-0.019-0.034
					l-0.019-0.034l-0.018-0.034l-0.019-0.034l-0.019-0.034l-0.019-0.034l-0.018-0.034l-0.019-0.034l-0.019-0.034l-0.018-0.034
					l-0.019-0.034l-0.073-0.135c-0.156-0.615-0.279-1.249-0.47-1.848C584.833,417.476,584.744,416.823,584.706,416.1z
					 M338.45,290.272c7.15-1.836,36.715-9.261,46.464-11.795c15.499-3.967,30.767-2.427,42.696,3.315l0.402,0.178l0,0l0.175,0.081
					l0.245,0.13l0.122,0.065l0.245,0.13l0.122,0.065l0.245,0.13l0.122,0.065l0.245,0.13l0.122,0.065l0.245,0.13l0.122,0.065
					l0.245,0.13l0.122,0.065l0.245,0.13l0.122,0.065l0.245,0.13l0.122,0.065l0.245,0.13l0.122,0.065l0.211,0.149l0.122,0.065
					l0.211,0.149l0.122,0.065l0.211,0.149l0.122,0.065l0.194,0.115l0.122,0.065l0.194,0.115l0.122,0.065l0.194,0.115l0.122,0.065
					l0.194,0.115l0.122,0.065l0.194,0.115l0.089,0.084l0.194,0.115l0.07,0.049l0.194,0.115l0.07,0.049l0.194,0.115l0.07,0.049
					l0.194,0.115l0.07,0.049l0.159,0.133l0.07,0.049l0.194,0.115l0.264,0.164c0.194,0.115,0.37,0.283,0.564,0.397l0,0
					c6.103,4.591,10.573,11.025,12.81,18.352l0,0l0.054,0.102c0.057,0.188,0.133,0.41,0.19,0.598l0.019,0.035l0.11,0.203
					c0.078,0.308,0.172,0.564,0.251,0.871s0.138,0.582,0.167,0.96l0.11,0.203l0.019,0.034c0.024,0.206,0.081,0.394,0.156,0.615
					l0.054,0.102l0,0c1.57,7.469,0.736,15.268-2.381,22.241l0,0l-0.275,0.629l-0.146,0.297l-0.115,0.194l-0.032,0.105l-0.081,0.175
					l-0.032,0.105l-0.115,0.194l-0.032,0.105l-0.115,0.194l-0.032,0.105l-0.115,0.194l-0.032,0.105l-0.115,0.194l-0.032,0.105
					l-0.115,0.194l-0.032,0.105l-0.115,0.194l-0.065,0.122l-0.115,0.194l-0.065,0.122l-0.115,0.194l-0.065,0.122l-0.115,0.194
					l-0.065,0.122l-0.149,0.211l-0.065,0.122l-0.149,0.211l-0.065,0.122l-0.149,0.211l-0.065,0.122l-0.149,0.211l-0.065,0.122
					l-0.149,0.211l-0.065,0.122l-0.149,0.211l-0.065,0.122l-0.149,0.211l-0.065,0.122l-0.149,0.211l-0.065,0.122l-0.183,0.229
					l-0.065,0.122l-0.183,0.229l-0.065,0.122l-0.183,0.229l-0.065,0.122l-0.183,0.229l-0.133,0.159l0,0l-0.248,0.353
					c-7.708,10.799-20.339,19.524-35.837,23.491c-9.767,2.502-39.254,10.234-46.405,12.07L338.45,290.272z M502.273,434.48
					l0.11,0.203l0.019,0.034c0.041,0.24,0.099,0.428,0.141,0.668l0,0l0.019,0.035l0,0l0,0l0.019,0.034l0.019,0.034l0.019,0.034l0,0
					c1.646,8.259,0.472,16.81-3.37,24.305l0,0l-0.375,0.683l-0.18,0.316l-0.13,0.245l-0.065,0.122l-0.115,0.194l-0.065,0.122
					l-0.115,0.194l-0.065,0.122l-0.149,0.211l-0.065,0.122l-0.149,0.211l-0.065,0.122l-0.149,0.211l-0.065,0.122l-0.149,0.211
					l-0.065,0.122l-0.149,0.211l-0.065,0.122l-0.149,0.211l-0.065,0.122l-0.149,0.211l-0.065,0.122l-0.149,0.211l-0.065,0.122
					l-0.149,0.211l-0.065,0.122l-0.183,0.229l-0.065,0.122l-0.183,0.229l-0.065,0.122l-0.164,0.264l-0.065,0.122l-0.165,0.264
					l-0.065,0.122l-0.164,0.264l-0.1,0.141l-0.164,0.264l-0.099,0.141l-0.199,0.281l-0.099,0.141l-0.199,0.281l-0.1,0.141
					l-0.199,0.281l-0.099,0.141l-0.199,0.281l-0.099,0.141l-0.199,0.281l-0.167,0.178l0,0l-0.316,0.389
					c-9.362,11.953-24.46,21.786-42.797,26.493c-11.563,2.986-46.507,12.124-55.009,14.294l-23.789-92.561
					c8.483-2.204,43.524-11.001,55.087-13.987c18.338-4.707,36.34-3.372,50.259,2.57l0.454,0.194l0,0l0.227,0.097l0.332,0.127
					l0.156,0.046l0.297,0.146l0.156,0.046l0.297,0.146l0.156,0.046l0.297,0.146l0.122,0.065l0.297,0.146l0.122,0.065l0.297,0.146
					l0.122,0.065l0.297,0.146l0.122,0.065l0.245,0.13l0.122,0.065l0.245,0.13l0.122,0.065l0.245,0.13l0.122,0.065l0.245,0.13
					l0.122,0.065l0.245,0.13l0.122,0.065l0.245,0.13l0.122,0.065l0.245,0.13l0.122,0.065l0.245,0.13l0.122,0.065l0.245,0.13
					l0.122,0.065l0.211,0.149l0.122,0.065l0.211,0.149l0.122,0.065l0.211,0.149l0.122,0.065l0.211,0.149l0.122,0.065l0.211,0.149
					l0.122,0.065l0.194,0.115l0.122,0.065l0.211,0.149l0.281,0.199c0.211,0.149,0.456,0.28,0.669,0.428l0,0
					c6.969,4.738,12.143,11.667,14.66,19.675l0,0l0.073,0.135c0.076,0.221,0.133,0.41,0.208,0.631l0.019,0.034l0.11,0.203
					c0.078,0.308,0.156,0.615,0.253,0.958C502.299,433.635,502.327,434.013,502.273,434.48L502.273,434.48z"/>
			</g>
		</g>
	</g>
</g>
</svg>
