<?xml version="1.0" encoding="utf-8"?>
<!-- Generator: Adobe Illustrator 22.0.1, SVG Export Plug-In . SVG Version: 6.00 Build 0)  -->
<svg version="1.1" id="Layer_1" xmlns="http://www.w3.org/2000/svg" xmlns:xlink="http://www.w3.org/1999/xlink" x="0px" y="0px"
	 width="982px" height="788px" viewBox="0 0 982 788" enable-background="new 0 0 982 788" xml:space="preserve">
<g>
	<g id="g16" transform="scale(0.015625)">
		<path id="coin" fill="#F7941D" d="M49868,15315.5c2472.3,10186.3-3781.6,20448.8-13969.2,22921.1
			c-10183.7,2470.9-20446.5-3783.5-22917.4-13969.8C10507.5,14079.9,16761.1,3816.9,26945.8,1345.5
			C37132.7-1127.1,47395.4,5128.6,49868,15315.5L49868,15315.5z"/>
		<path id="symbol" fill="#FFFFFF" d="M37581.8,13512.3c-837.2-2413.2-3171.2-2723.9-5921.4-2306.3l-831.9-3427.3l-2086.1,506.5
			l810,3337c-548.4,133.2-1106.4,280.1-1660.7,426.3l-814.9-3359.2l-2085.1,506l830.8,3426.5c-449.4,118.8-891,234.9-1323.4,340.1
			l-2.9-10.6l-2877.6,697.3l541.3,2228c0,0,1533.4-403.3,1514.7-368.7c845.1-204.8,1239.2,219,1421.9,622.9l947.8,3904.4
			c58.4-13.8,135-29.9,224-39c-69.5,17-144,34.6-220.3,53.8l1326.9,5469.9c27.5,274.9-26,736.9-616.1,881.2
			c32.4,17.2-1516.6,367.6-1516.6,367.6l190.2,2592l2714.9-659c505.4-122,1004.5-234.1,1493.3-349.4l842.1,3466.1l2084-505.4
			l-832.4-3429.7c575.1-127,1129.9-256.9,1670.4-388.6l827.6,3414.1l2086.1-506.5l-839.1-3460.4
			c3458.5-1052.4,5698.8-2531.8,5204.3-5899.4c-397.5-2711.8-1932.3-3592.4-4039.3-3587.3
			C37704.7,16546.1,38197.5,15277.4,37581.8,13512.3L37581.8,13512.3z M36462,21632.5c629.8,2590.1-3877.2,3372-5290.7,3716.5
			l-1114.1-4592.8C31471.5,20413.2,35806.4,18930.6,36462,21632.5z M33919.1,15388.3c571.3,2356.9-3194.6,2979.7-4372.2,3265.6
			l-1010.8-4165.4C29713.8,14202.5,33322.3,12930.2,33919.1,15388.3z"/>
	</g>
	<path fill-rule="evenodd" clip-rule="evenodd" fill="#F7941D" d="M699.3,606.9c93.5-65.6,154.6-174.2,154.6-297.1
		S792.8,78.2,699.3,12.6H972v594.3H699.3z"/>
	<path fill-rule="evenodd" clip-rule="evenodd" fill="#F7941D" d="M128.4,309.7c0,122.9,61.1,231.5,154.6,297.1H10V12.6h273
		C189.5,78.2,128.4,186.8,128.4,309.7z"/>
	<g>
		<path fill="#FFFFFF" d="M55,774.4c-7.4,0-14.8-0.2-22.1-0.7c-7.3-0.5-15-1.5-22.9-3.2V639.6c6.2-1.2,13.1-2,20.5-2.6
			c7.4-0.6,14.3-0.9,20.7-0.9c8.6,0,16.5,0.6,23.7,1.9c7.2,1.2,13.4,3.3,18.6,6.3c5.2,3,9.3,6.9,12.2,11.8c2.9,4.9,4.4,10.9,4.4,18
			c0,10.8-5.2,19.3-15.6,25.5c8.6,3.2,14.4,7.7,17.5,13.2c3.1,5.6,4.7,11.9,4.7,18.9c0,14.2-5.2,24.8-15.5,31.9
			C90.7,770.9,75.4,774.4,55,774.4z M39.6,690.7h14.8c9.4,0,16-1.2,20.1-3.6c4-2.4,6-6.3,6-11.6c0-5.5-2.1-9.3-6.2-11.5
			c-4.2-2.2-10.3-3.3-18.3-3.3c-2.6,0-5.4,0-8.4,0.1c-3,0.1-5.6,0.2-8,0.5V690.7z M39.6,713.9v34.9c2.2,0.3,4.6,0.5,7.2,0.6
			c2.6,0.1,5.5,0.2,8.6,0.2c9.1,0,16.4-1.3,22-3.9c5.6-2.6,8.4-7.4,8.4-14.4c0-6.2-2.3-10.7-7-13.3c-4.7-2.7-11.4-4-20.1-4H39.6z"/>
		<path fill="#FFFFFF" d="M160,640.6c0,5.3-1.7,9.5-5.2,12.6c-3.4,3.1-7.5,4.6-12.2,4.6c-4.7,0-8.7-1.5-12.2-4.6
			c-3.4-3.1-5.2-7.2-5.2-12.6c0-5.3,1.7-9.5,5.2-12.6c3.4-3,7.5-4.6,12.2-4.6c4.7,0,8.7,1.5,12.2,4.6
			C158.3,631.1,160,635.3,160,640.6z M157.2,772.7h-29V670.2h29V772.7z"/>
		<path fill="#FFFFFF" d="M172.8,644.7l29-4.7v30.2h34.9v24.2h-34.9v36c0,6.1,1.1,11,3.2,14.6c2.1,3.6,6.5,5.5,13,5.5
			c3.1,0,6.3-0.3,9.6-0.9c3.3-0.6,6.3-1.4,9.1-2.4l4.1,22.6c-3.5,1.4-7.4,2.7-11.7,3.7c-4.3,1-9.5,1.6-15.8,1.6
			c-7.9,0-14.5-1.1-19.7-3.2c-5.2-2.1-9.4-5.1-12.5-9c-3.1-3.8-5.3-8.5-6.5-13.9c-1.2-5.5-1.9-11.5-1.9-18.1V644.7z"/>
		<path fill="#FFFFFF" d="M240.8,721.5c0-7.4,1.2-14.4,3.6-20.9c2.4-6.6,5.9-12.3,10.4-17.1c4.5-4.9,10.1-8.7,16.6-11.6
			c6.5-2.9,13.9-4.3,22.2-4.3c5.5,0,10.5,0.5,15,1.5c4.5,1,9,2.4,13.2,4.2l-6,23.2c-2.7-1-5.7-1.9-9-2.7c-3.2-0.8-6.9-1.2-10.9-1.2
			c-8.6,0-15,2.7-19.2,8c-4.2,5.3-6.3,12.3-6.3,21c0,9.2,2,16.4,5.9,21.4c4,5.1,10.9,7.6,20.7,7.6c3.5,0,7.3-0.3,11.3-1
			c4-0.6,7.7-1.7,11.1-3.1l4.1,23.8c-3.4,1.4-7.6,2.7-12.7,3.7c-5.1,1-10.7,1.6-16.8,1.6c-9.4,0-17.4-1.4-24.2-4.2
			c-6.8-2.8-12.3-6.6-16.7-11.4c-4.4-4.8-7.5-10.5-9.5-17C241.8,736.2,240.8,729.1,240.8,721.5z"/>
		<path fill="#FFFFFF" d="M423.4,721.3c0,8.1-1.2,15.4-3.5,22.1c-2.3,6.7-5.7,12.4-10.1,17.1c-4.4,4.7-9.7,8.4-15.9,11
			c-6.2,2.6-13.1,3.9-20.7,3.9c-7.5,0-14.4-1.3-20.6-3.9c-6.2-2.6-11.5-6.3-15.9-11c-4.4-4.7-7.9-10.5-10.3-17.1
			c-2.5-6.7-3.7-14.1-3.7-22.1c0-8.1,1.3-15.4,3.8-22c2.5-6.6,6-12.3,10.5-16.9c4.5-4.7,9.8-8.3,16-10.9c6.2-2.6,12.9-3.9,20.2-3.9
			c7.4,0,14.2,1.3,20.4,3.9c6.2,2.6,11.5,6.2,15.9,10.9c4.4,4.7,7.9,10.3,10.3,16.9C422.1,705.9,423.4,713.2,423.4,721.3z
			 M393.8,721.3c0-9-1.8-16-5.4-21.1c-3.6-5.1-8.7-7.7-15.3-7.7c-6.6,0-11.8,2.6-15.4,7.7c-3.6,5.1-5.5,12.2-5.5,21.1
			c0,9,1.8,16.1,5.5,21.3c3.6,5.3,8.8,7.9,15.4,7.9c6.6,0,11.7-2.6,15.3-7.9C392,737.3,393.8,730.2,393.8,721.3z"/>
		<path fill="#FFFFFF" d="M466.8,640.6c0,5.3-1.7,9.5-5.2,12.6c-3.4,3.1-7.5,4.6-12.2,4.6c-4.7,0-8.7-1.5-12.2-4.6
			c-3.4-3.1-5.2-7.2-5.2-12.6c0-5.3,1.7-9.5,5.2-12.6c3.4-3,7.5-4.6,12.2-4.6c4.7,0,8.7,1.5,12.2,4.6
			C465.1,631.1,466.8,635.3,466.8,640.6z M464.1,772.7h-29V670.2h29V772.7z"/>
		<path fill="#FFFFFF" d="M480.6,673.7c4.9-1.4,11.3-2.8,19.1-4c7.8-1.2,16-1.9,24.5-1.9c8.7,0,15.9,1.1,21.7,3.4
			c5.8,2.3,10.4,5.5,13.7,9.6c3.4,4.2,5.8,9.1,7.2,14.8c1.4,5.7,2.1,12.1,2.1,19.1v57.9h-29v-54.4c0-9.4-1.2-16-3.7-19.9
			c-2.5-3.9-7.1-5.8-13.8-5.8c-2.1,0-4.3,0.1-6.6,0.3c-2.3,0.2-4.4,0.4-6.2,0.7v79.1h-29V673.7z"/>
		<path fill="#F7941D" d="M648.2,775.4c-22,0-38.7-6.1-50.2-18.3c-11.5-12.2-17.2-29.5-17.2-52c0-11.2,1.8-21.1,5.3-29.9
			c3.5-8.8,8.3-16.2,14.4-22.2c6.1-6,13.4-10.6,21.8-13.7c8.4-3.1,17.6-4.7,27.5-4.7c5.7,0,10.9,0.4,15.6,1.3
			c4.7,0.8,8.8,1.8,12.3,2.9c3.5,1.1,6.4,2.2,8.8,3.4c2.3,1.2,4,2.1,5.1,2.7l-8.8,24.5c-4.2-2.2-9-4.1-14.5-5.6
			c-5.5-1.6-11.8-2.3-18.8-2.3c-4.7,0-9.3,0.8-13.7,2.3c-4.5,1.6-8.4,4.1-11.9,7.5c-3.4,3.4-6.2,7.9-8.3,13.3
			c-2.1,5.5-3.1,12.1-3.1,19.9c0,6.2,0.7,12,2,17.4c1.4,5.4,3.6,10,6.6,13.9c3.1,3.9,7,7,12,9.3c4.9,2.3,10.9,3.4,17.9,3.4
			c4.4,0,8.4-0.3,11.9-0.8c3.5-0.5,6.6-1.1,9.4-1.9c2.7-0.7,5.1-1.5,7.2-2.4c2.1-0.9,4-1.8,5.6-2.5l8.4,24.4
			c-4.3,2.6-10.3,4.9-18.1,7C667.5,774.4,658.4,775.4,648.2,775.4z"/>
		<path fill="#F7941D" d="M739,667.5c8.6,0,15.7,1,21.4,2.9c5.7,1.9,10.3,4.7,13.7,8.4c3.4,3.6,5.9,8.1,7.3,13.2
			c1.4,5.2,2.1,11,2.1,17.3v60.4c-4.2,0.9-9.9,2-17.3,3.2c-7.4,1.2-16.4,1.9-26.9,1.9c-6.6,0-12.6-0.6-18-1.8
			c-5.4-1.2-10-3.1-13.9-5.7c-3.9-2.7-6.9-6.1-9-10.4c-2.1-4.3-3.1-9.5-3.1-15.8c0-6,1.2-11,3.6-15.2c2.4-4.2,5.6-7.5,9.6-9.9
			c4-2.5,8.6-4.3,13.8-5.4c5.2-1.1,10.6-1.7,16.2-1.7c3.8,0,7.1,0.2,10,0.5c2.9,0.3,5.3,0.7,7.1,1.3V708c0-4.9-1.5-8.9-4.5-11.9
			c-3-3-8.2-4.5-15.6-4.5c-4.9,0-9.8,0.4-14.6,1.1c-4.8,0.7-9,1.7-12.5,3l-3.7-23.4c1.7-0.5,3.8-1.1,6.3-1.7
			c2.5-0.6,5.3-1.1,8.3-1.6c3-0.5,6.1-0.8,9.4-1.2C732.2,667.7,735.6,667.5,739,667.5z M741.3,752.4c2.9,0,5.6-0.1,8.2-0.2
			c2.6-0.1,4.7-0.3,6.2-0.6v-22c-1.2-0.3-2.9-0.5-5.3-0.8c-2.3-0.3-4.5-0.4-6.4-0.4c-2.7,0-5.3,0.2-7.7,0.5
			c-2.4,0.3-4.5,0.9-6.3,1.9c-1.8,0.9-3.2,2.1-4.3,3.7c-1,1.6-1.6,3.5-1.6,5.8c0,4.5,1.5,7.7,4.6,9.4
			C731.8,751.6,736,752.4,741.3,752.4z"/>
		<path fill="#F7941D" d="M828.6,751.9c5.3,0,9.1-0.5,11.3-1.6c2.2-1,3.3-3.1,3.3-6c0-2.3-1.4-4.4-4.3-6.1
			c-2.9-1.8-7.2-3.7-13.1-5.9c-4.5-1.7-8.7-3.4-12.4-5.3c-3.7-1.8-6.9-4-9.4-6.5c-2.6-2.5-4.6-5.6-6-9.1c-1.4-3.5-2.1-7.7-2.1-12.7
			c0-9.6,3.6-17.2,10.7-22.8c7.1-5.6,16.9-8.4,29.4-8.4c6.2,0,12.2,0.6,17.9,1.7c5.7,1.1,10.3,2.3,13.6,3.6l-5.1,22.6
			c-3.4-1.2-7-2.2-11-3.1c-4-0.9-8.4-1.4-13.3-1.4c-9.1,0-13.6,2.5-13.6,7.6c0,1.2,0.2,2.2,0.6,3.1c0.4,0.9,1.2,1.8,2.3,2.6
			c1.2,0.8,2.8,1.8,4.8,2.7c2,1,4.6,2.1,7.7,3.2c6.4,2.4,11.6,4.7,15.8,7c4.2,2.3,7.4,4.8,9.8,7.4c2.4,2.7,4.1,5.6,5.1,8.8
			c1,3.2,1.5,7,1.5,11.3c0,10.1-3.8,17.8-11.4,22.9c-7.6,5.2-18.3,7.8-32.2,7.8c-9.1,0-16.7-0.8-22.7-2.3c-6-1.6-10.2-2.9-12.6-3.9
			l4.9-23.6c4.9,1.9,10,3.5,15.2,4.6C818.4,751.3,823.5,751.9,828.6,751.9z"/>
		<path fill="#F7941D" d="M882.9,772.7V626.2l29-4.7v49.1c1.9-0.6,4.4-1.3,7.5-1.9c3.1-0.6,6-0.9,8.9-0.9c8.3,0,15.2,1.1,20.7,3.4
			c5.5,2.3,9.9,5.5,13.2,9.6c3.3,4.2,5.6,9.1,7,14.8c1.4,5.7,2,12.1,2,19.1v57.9h-29v-54.4c0-9.4-1.2-16-3.6-19.9
			c-2.4-3.9-6.9-5.8-13.3-5.8c-2.6,0-5,0.2-7.3,0.7c-2.3,0.5-4.3,0.9-6.1,1.5v77.9H882.9z"/>
	</g>
</g>
</svg>
