<?xml version="1.0" encoding="utf-8"?>
<!-- Generator: Adobe Illustrator 22.0.1, SVG Export Plug-In . SVG Version: 6.00 Build 0)  -->
<svg version="1.1" id="Layer_1" xmlns="http://www.w3.org/2000/svg" xmlns:xlink="http://www.w3.org/1999/xlink" x="0px" y="0px"
	 width="982px" height="618px" viewBox="0 0 982 618" enable-background="new 0 0 982 618" xml:space="preserve">
<g>
	<g id="g16" transform="scale(0.015625)">
		<path id="coin" fill="#F7941D" d="M49868,15315.5c2472.3,10186.3-3781.6,20448.8-13969.2,22921.1
			c-10183.7,2470.9-20446.5-3783.5-22917.4-13969.8C10507.5,14079.9,16761.1,3816.9,26945.8,1345.5
			C37132.7-1127.1,47395.4,5128.6,49868,15315.5L49868,15315.5z"/>
		<path id="symbol" fill="#FFFFFF" d="M37581.8,13512.3c-837.2-2413.2-3171.2-2723.9-5921.4-2306.3l-831.9-3427.3l-2086.1,506.5
			l810,3337c-548.4,133.2-1106.4,280.1-1660.7,426.3l-814.9-3359.2l-2085.1,506l830.8,3426.5c-449.4,118.8-891,234.9-1323.4,340.1
			l-2.9-10.6l-2877.6,697.3l541.3,2228c0,0,1533.4-403.3,1514.7-368.7c845.1-204.8,1239.2,219,1421.9,622.9l947.8,3904.4
			c58.4-13.8,135-29.9,224-39c-69.5,17-144,34.6-220.3,53.8l1326.9,5469.9c27.5,274.9-26,736.9-616.1,881.2
			c32.4,17.2-1516.6,367.6-1516.6,367.6l190.2,2592l2714.9-659c505.4-122,1004.5-234.1,1493.3-349.4l842.1,3466.1l2084-505.4
			l-832.4-3429.7c575.1-127,1129.9-256.9,1670.4-388.6l827.6,3414.1l2086.1-506.5l-839.1-3460.4
			c3458.5-1052.4,5698.8-2531.8,5204.3-5899.4c-397.5-2711.8-1932.3-3592.4-4039.3-3587.3
			C37704.7,16546.1,38197.5,15277.4,37581.8,13512.3L37581.8,13512.3z M36462,21632.5c629.8,2590.1-3877.2,3372-5290.7,3716.5
			l-1114.1-4592.8C31471.5,20413.2,35806.4,18930.6,36462,21632.5z M33919.1,15388.3c571.3,2356.9-3194.6,2979.7-4372.2,3265.6
			l-1010.8-4165.4C29713.8,14202.5,33322.3,12930.2,33919.1,15388.3z"/>
	</g>
	<path fill-rule="evenodd" clip-rule="evenodd" fill="#F7941D" d="M699.3,606.9c93.5-65.6,154.6-174.2,154.6-297.1
		S792.8,78.2,699.3,12.6H972v594.3H699.3z"/>
	<path fill-rule="evenodd" clip-rule="evenodd" fill="#F7941D" d="M128.4,309.7c0,122.9,61.1,231.5,154.6,297.1H10V12.6h273
		C189.5,78.2,128.4,186.8,128.4,309.7z"/>
</g>
</svg>
