<?xml version="1.0" encoding="utf-8"?>
<!-- Generator: Adobe Illustrator 22.0.1, SVG Export Plug-In . SVG Version: 6.00 Build 0)  -->
<svg version="1.1" id="Layer_1" xmlns="http://www.w3.org/2000/svg" xmlns:xlink="http://www.w3.org/1999/xlink" x="0px" y="0px"
	 width="982px" height="618px" viewBox="0 0 982 618" style="enable-background:new 0 0 982 618;" xml:space="preserve">
<style type="text/css">
	.st0{fill:#F7941D;}
	.st1{fill:#FFFFFF;}
</style>
<g>
	<g>
		<path class="st0" d="M699.305,607.081c93.502-65.601,154.603-174.204,154.603-297.106S792.807,78.37,699.305,12.768H972.01
			v594.313H699.305L699.305,607.081z"/>
		<path class="st0" d="M128.392,309.875c0,122.903,61.101,231.505,154.603,297.106H9.99V12.768h273.006
			C189.493,78.37,128.392,186.972,128.392,309.875z"/>
	</g>
	<g>
		<circle class="st0" cx="491" cy="309.731" r="296.905"/>
		<path class="st1" d="M630.256,322.063l-0.165-0.307l-0.028-0.051c-0.1-0.309-0.175-0.632-0.289-0.966l-0.014-0.026l-0.014-0.026
			l-0.014-0.026l-0.014-0.026l-0.014-0.026l-0.014-0.026l-0.028-0.051c-3.803-12.336-10.935-22.584-19.831-29.671l-0.014-0.026
			c-0.279-0.213-0.572-0.451-0.852-0.663l-0.386-0.287l-0.279-0.212l-0.12-0.1l-0.266-0.187l-0.12-0.1l-0.266-0.187l-0.12-0.1
			l-0.279-0.212l-0.146-0.087l-0.279-0.212l-0.146-0.087l-0.305-0.199l-0.146-0.087l-0.177-0.268l-0.159-0.112l-0.305-0.199
			l-0.159-0.112l-0.305-0.199l-0.159-0.112l-0.305-0.199l-0.159-0.112l-0.319-0.224l-0.159-0.112l-0.344-0.211l-0.159-0.112
			l-0.344-0.211l-0.159-0.112l-0.344-0.211l-0.159-0.112l-0.344-0.211l-0.185-0.098l-0.344-0.211l-0.185-0.098l-0.37-0.197
			l-0.185-0.098l-0.384-0.222l-0.185-0.098l-0.384-0.222l-0.185-0.098l-0.384-0.222l-0.199-0.124l-0.384-0.222l-0.199-0.124
			l-0.409-0.209l-0.199-0.124l-0.409-0.209l-0.277-0.148l-0.014-0.026c-0.199-0.124-0.409-0.209-0.608-0.333
			c-8.489-4.371-17.66-7.253-27.11-8.566c2.656-2.848,5.073-5.898,7.263-9.122l0.348-0.517l0.026-0.014l0.161-0.252l0.211-0.344
			l0.112-0.159l0.211-0.344l0.112-0.159l0.211-0.344l0.112-0.159l0.211-0.344l0.112-0.159l0.211-0.344l0.112-0.159l0.185-0.331
			l0.112-0.159l0.185-0.331l0.087-0.146l0.185-0.331l0.087-0.146l0.185-0.331l0.087-0.146l0.159-0.317l0.087-0.146l0.159-0.317
			l0.087-0.146l0.159-0.317l0.087-0.146l0.173-0.291l0.087-0.146l0.173-0.291l0.087-0.146l0.148-0.277l0.087-0.146l0.148-0.277
			l0.061-0.132l0.148-0.277l0.061-0.132l0.148-0.277l0.061-0.132l0.148-0.277l0.061-0.132l0.122-0.264l0.061-0.132l0.122-0.264
			l0.061-0.132l0.122-0.264l0.061-0.132l0.134-0.303l0.183-0.395c0.134-0.303,0.242-0.592,0.376-0.895l0.026-0.014
			c3.917-9.333,5.051-20.401,2.737-31.626l-0.014-0.026l-0.028-0.051l-0.014-0.026l-0.014-0.026l-0.014-0.026l-0.014-0.026
			l-0.014-0.026l-0.014-0.026c-0.061-0.297-0.122-0.594-0.208-0.878l-0.002-0.065l-0.014-0.026l-0.014-0.026l-0.014-0.026
			l0.014,0.026l-0.124-0.23c-0.09-0.413-0.181-0.826-0.311-1.251c-0.09-0.413-0.22-0.838-0.336-1.238l-0.151-0.281l-0.028-0.051
			c-0.087-0.283-0.173-0.567-0.26-0.85l-0.014-0.026l-0.014-0.026l-0.014-0.026l-0.014-0.026l-0.014-0.026l-0.014-0.026
			l-0.014-0.026c-3.359-10.959-9.716-20.073-17.64-26.397l-0.014-0.026c-0.24-0.201-0.506-0.388-0.746-0.588l-0.332-0.25
			l-0.266-0.187l-0.12-0.1l-0.226-0.175l-0.12-0.1l-0.226-0.175l-0.12-0.1l-0.252-0.161l-0.12-0.1l-0.266-0.187l-0.12-0.1
			l-0.266-0.187l-0.12-0.1l-0.266-0.187l-0.146-0.087l-0.266-0.187l-0.146-0.087l-0.266-0.187l-0.146-0.087l-0.291-0.173
			l-0.146-0.087l-0.291-0.173l-0.146-0.087l-0.291-0.173l-0.146-0.087l-0.291-0.173l-0.146-0.087l-0.305-0.199l-0.146-0.087
			l-0.305-0.199l-0.146-0.087l-0.331-0.185l-0.146-0.087l-0.33-0.185l-0.159-0.112l-0.331-0.185l-0.159-0.112l-0.33-0.185
			l-0.159-0.112l-0.344-0.211l-0.185-0.098l-0.344-0.211l-0.185-0.098l-0.37-0.197l-0.185-0.098l-0.37-0.197l-0.264-0.122
			l-0.014-0.026l-0.555-0.295c-16.214-8.427-36.813-10.964-57.538-5.647l-5.391,1.384l-13.636-53.097l-31.598,8.101l13.591,52.89
			l-25.278,6.481l-13.599-52.721l-31.598,8.101l13.591,52.89l-65.167,16.769l8.671,33.699l26.258-6.744
			c8.692-2.238,17.584,3.005,19.796,11.711l0,0L429.59,396.79c1.5,5.79-2.012,11.706-7.803,13.206l-23.008,5.919l1.352,40.08
			l65.09-16.727l13.77,52.794l31.584-8.127l-13.605-52.916l25.278-6.481l13.605,52.915l31.584-8.127l-13.65-53.122
			c5.352-1.396,9.956-2.588,13.141-3.412c23.356-6.007,42.243-19.703,53.672-36.775l0.386-0.57l0.026-0.014l0.187-0.266l0.248-0.397
			l0.124-0.199l0.248-0.397l0.124-0.199l0.222-0.384l0.124-0.199l0.222-0.384l0.098-0.185l0.222-0.384l0.098-0.185l0.222-0.384
			l0.098-0.185l0.197-0.37l0.098-0.185l0.197-0.37l0.098-0.185l0.211-0.344l0.098-0.185l0.211-0.344l0.098-0.185l0.185-0.331
			l0.098-0.185l0.185-0.33l0.098-0.185l0.185-0.33l0.073-0.171l0.185-0.33l0.073-0.171l0.159-0.317l0.087-0.146l0.159-0.317
			l0.087-0.146l0.159-0.317l0.087-0.146l0.159-0.317l0.087-0.146l0.159-0.317l0.087-0.146l0.159-0.317l0.087-0.146l0.134-0.303
			l0.087-0.146l0.134-0.303l0.061-0.132l0.146-0.342l0.195-0.435c0.146-0.342,0.305-0.659,0.425-0.988l0.012-0.039
			c4.375-10.503,5.703-22.929,3.086-35.574l-0.014-0.026l-0.014-0.026l-0.014-0.026l-0.014-0.026l-0.014-0.026l-0.014-0.026
			l-0.014-0.026l-0.014-0.026c-0.075-0.323-0.149-0.645-0.224-0.968l-0.002-0.065l-0.014-0.026l-0.014-0.026l-0.014-0.026
			l-0.014-0.026l-0.014-0.026l-0.014-0.026l-0.014-0.026l-0.014-0.026l-0.014-0.026l-0.014-0.026l-0.014-0.026l-0.014-0.026
			l-0.014-0.026l-0.055-0.102c-0.118-0.464-0.21-0.942-0.354-1.393C630.352,323.1,630.285,322.608,630.256,322.063z
			 M444.595,227.197c5.391-1.384,27.681-6.982,35.031-8.893c11.685-2.991,23.196-1.83,32.19,2.499l0.303,0.134l0,0l0.132,0.061
			l0.185,0.098l0.092,0.049l0.185,0.098l0.092,0.049l0.185,0.098l0.092,0.049l0.185,0.098l0.092,0.049l0.185,0.098l0.092,0.049
			l0.185,0.098l0.092,0.049l0.185,0.098l0.092,0.049l0.185,0.098l0.092,0.049l0.185,0.098l0.092,0.049l0.159,0.112l0.092,0.049
			l0.159,0.112l0.092,0.049l0.159,0.112l0.092,0.049l0.146,0.087l0.092,0.049l0.146,0.087l0.092,0.049l0.146,0.087l0.092,0.049
			l0.146,0.087l0.092,0.049l0.146,0.087l0.067,0.063l0.146,0.087l0.053,0.037l0.146,0.087l0.053,0.037l0.146,0.087l0.053,0.037
			l0.146,0.087l0.053,0.037l0.12,0.1l0.053,0.037l0.146,0.087l0.199,0.124c0.146,0.087,0.279,0.213,0.425,0.299l0,0
			c4.601,3.461,7.971,8.312,9.658,13.836l0,0l0.041,0.077c0.043,0.142,0.1,0.309,0.143,0.451l0.014,0.026l0.083,0.153
			c0.059,0.232,0.13,0.425,0.189,0.657s0.104,0.439,0.126,0.724l0.083,0.153l0.014,0.026c0.018,0.155,0.061,0.297,0.118,0.464
			l0.041,0.077l0,0c1.184,5.631,0.555,11.511-1.795,16.768l0,0l-0.207,0.474l-0.11,0.224l-0.087,0.146l-0.024,0.079l-0.061,0.132
			l-0.024,0.079l-0.087,0.146l-0.024,0.079l-0.087,0.146l-0.024,0.079l-0.087,0.146l-0.024,0.079l-0.087,0.146l-0.024,0.079
			l-0.087,0.146l-0.024,0.079l-0.087,0.146l-0.049,0.092l-0.087,0.146l-0.049,0.092l-0.087,0.146l-0.049,0.092l-0.087,0.146
			l-0.049,0.092l-0.112,0.159l-0.049,0.092l-0.112,0.159l-0.049,0.092l-0.112,0.159l-0.049,0.092l-0.112,0.159l-0.049,0.092
			l-0.112,0.159l-0.049,0.092l-0.112,0.159l-0.049,0.092l-0.112,0.159l-0.049,0.092l-0.112,0.159l-0.049,0.092l-0.138,0.173
			l-0.049,0.092l-0.138,0.173l-0.049,0.092l-0.138,0.173l-0.049,0.092l-0.138,0.173l-0.1,0.12l0,0l-0.187,0.266
			c-5.811,8.142-15.334,14.72-27.019,17.711c-7.364,1.886-29.595,7.716-34.986,9.1L444.595,227.197z M568.107,335.92l0.083,0.153
			l0.014,0.026c0.031,0.181,0.075,0.323,0.106,0.504l0,0l0.014,0.026l0,0l0,0l0.014,0.026l0.014,0.026l0.014,0.026l0,0
			c1.241,6.227,0.356,12.674-2.541,18.324l0,0l-0.283,0.515l-0.136,0.238l-0.098,0.185l-0.049,0.092l-0.087,0.146l-0.049,0.092
			l-0.087,0.146l-0.049,0.092l-0.112,0.159l-0.049,0.092l-0.112,0.159l-0.049,0.092l-0.112,0.159l-0.049,0.092l-0.112,0.159
			l-0.049,0.092l-0.112,0.159l-0.049,0.092l-0.112,0.159l-0.049,0.092l-0.112,0.159l-0.049,0.092l-0.112,0.159l-0.049,0.092
			l-0.112,0.159l-0.049,0.092l-0.138,0.173l-0.049,0.092l-0.138,0.173l-0.049,0.092l-0.124,0.199l-0.049,0.092l-0.124,0.199
			l-0.049,0.092l-0.124,0.199l-0.075,0.106l-0.124,0.199l-0.075,0.106l-0.15,0.212l-0.075,0.106l-0.15,0.212l-0.075,0.106
			l-0.15,0.212l-0.075,0.106l-0.15,0.212l-0.075,0.106l-0.15,0.212l-0.126,0.134l0,0l-0.238,0.293
			c-7.058,9.012-18.441,16.425-32.266,19.974c-8.718,2.251-35.063,9.141-41.473,10.777l-17.935-69.785
			c6.396-1.662,32.814-8.294,41.532-10.545c13.826-3.549,27.398-2.542,37.892,1.938l0.342,0.146l0,0l0.171,0.073l0.25,0.096
			l0.118,0.035l0.224,0.11l0.118,0.035l0.224,0.11l0.118,0.035l0.224,0.11l0.092,0.049l0.224,0.11l0.092,0.049l0.224,0.11
			l0.092,0.049l0.224,0.11l0.092,0.049l0.185,0.098l0.092,0.049l0.185,0.098l0.092,0.049l0.185,0.098l0.092,0.049l0.185,0.098
			l0.092,0.049l0.185,0.098l0.092,0.049l0.185,0.098l0.092,0.049l0.185,0.098l0.092,0.049l0.185,0.098l0.092,0.049l0.185,0.098
			l0.092,0.049l0.159,0.112l0.092,0.049l0.159,0.112l0.092,0.049l0.159,0.112l0.092,0.049l0.159,0.112l0.092,0.049l0.159,0.112
			l0.092,0.049l0.146,0.087l0.092,0.049l0.159,0.112l0.212,0.15c0.159,0.112,0.344,0.211,0.504,0.323l0,0
			c5.254,3.572,9.155,8.796,11.053,14.834l0,0l0.055,0.102c0.057,0.167,0.1,0.309,0.157,0.476l0.014,0.026l0.083,0.153
			c0.059,0.232,0.118,0.464,0.191,0.722C568.127,335.283,568.148,335.568,568.107,335.92L568.107,335.92z"/>
	</g>
</g>
</svg>
