<?xml version="1.0" encoding="utf-8"?>
<!-- Generator: Adobe Illustrator 22.0.1, SVG Export Plug-In . SVG Version: 6.00 Build 0)  -->
<svg version="1.1" id="Layer_1" xmlns="http://www.w3.org/2000/svg" xmlns:xlink="http://www.w3.org/1999/xlink" x="0px" y="0px"
	 width="4059.6px" height="588px" viewBox="0 0 4059.6 588" style="enable-background:new 0 0 4059.6 588;" xml:space="preserve">
<style type="text/css">
	.st0{fill:#FFFFFF;}
	.st1{fill:#F7941D;}
</style>
<g>
	<g>
		<path class="st0" d="M1017.4,541.4c-24.1,0-48.3-0.7-72.1-2.3s-48.9-4.9-74.7-10.4v-427c20.2-3.9,42.7-6.5,66.9-8.5
			c24.1-2,46.6-2.9,67.5-2.9c28.1,0,53.8,2,77.3,6.2c23.5,3.9,43.7,10.8,60.7,20.5c17,9.8,30.3,22.5,39.8,38.5s14.4,35.6,14.4,58.7
			c0,35.2-17,63-50.9,83.2c28.1,10.4,47,25.1,57.1,43.1c10.1,18.3,15.3,38.8,15.3,61.6c0,46.3-17,80.9-50.6,104.1
			C1133.9,530,1084,541.4,1017.4,541.4z M967.2,268.4h48.3c30.7,0,52.2-3.9,65.6-11.7c13-7.8,19.6-20.5,19.6-37.8
			c0-17.9-6.8-30.3-20.2-37.5c-13.7-7.2-33.6-10.8-59.7-10.8c-8.5,0-17.6,0-27.4,0.3c-9.8,0.3-18.3,0.7-26.1,1.6
			C967.2,172.5,967.2,268.4,967.2,268.4z M967.2,344.1v113.8c7.2,1,15,1.6,23.5,2s17.9,0.7,28.1,0.7c29.7,0,53.5-4.2,71.8-12.7
			c18.3-8.5,27.4-24.1,27.4-47c0-20.2-7.5-34.9-22.8-43.4c-15.3-8.8-37.2-13-65.6-13h-62.3v-0.4H967.2z"/>
		<path class="st0" d="M1359.9,105c0,17.3-5.5,31-17,41.1c-11.1,10.1-24.5,15-39.8,15s-28.4-4.9-39.8-15c-11.1-10.1-17-23.5-17-41.1
			c0-17.3,5.5-31,17-41.1c11.1-9.8,24.5-15,39.8-15s28.4,4.9,39.8,15S1359.9,87.7,1359.9,105z M1350.8,535.9h-94.6V201.5h94.6V535.9
			z"/>
		<path class="st0" d="M1401.7,118.3l94.6-15.3v98.5h113.8v78.9h-113.8v117.4c0,19.9,3.6,35.9,10.4,47.6s21.2,17.9,42.4,17.9
			c10.1,0,20.5-1,31.3-2.9c10.8-2,20.5-4.6,29.7-7.8l13.4,73.7c-11.4,4.6-24.1,8.8-38.2,12.1c-14,3.3-31,5.2-51.5,5.2
			c-25.8,0-47.3-3.6-64.3-10.4c-17-6.8-30.7-16.6-40.8-29.4c-10.1-12.4-17.3-27.7-21.2-45.3c-3.9-17.9-6.2-37.5-6.2-59V118.3H1401.7
			z"/>
		<path class="st0" d="M1623.5,368.8c0-24.1,3.9-47,11.7-68.2c7.8-21.5,19.2-40.1,33.9-55.8c14.7-16,32.9-28.4,54.1-37.8
			c21.2-9.5,45.3-14,72.4-14c17.9,0,34.2,1.6,48.9,4.9c14.7,3.3,29.4,7.8,43.1,13.7l-19.6,75.7c-8.8-3.3-18.6-6.2-29.4-8.8
			c-10.4-2.6-22.5-3.9-35.6-3.9c-28.1,0-48.9,8.8-62.6,26.1c-13.7,17.3-20.5,40.1-20.5,68.5c0,30,6.5,53.5,19.2,69.8
			c13,16.6,35.6,24.8,67.5,24.8c11.4,0,23.8-1,36.9-3.3c13-2,25.1-5.5,36.2-10.1l13.4,77.6c-11.1,4.6-24.8,8.8-41.4,12.1
			s-34.9,5.2-54.8,5.2c-30.7,0-56.8-4.6-78.9-13.7c-22.2-9.1-40.1-21.5-54.5-37.2s-24.5-34.2-31-55.5
			C1626.8,416.8,1623.5,393.6,1623.5,368.8z"/>
		<path class="st0" d="M2219.1,368.2c0,26.4-3.9,50.2-11.4,72.1s-18.6,40.4-32.9,55.8c-14.4,15.3-31.6,27.4-51.9,35.9
			s-42.7,12.7-67.5,12.7c-24.5,0-47-4.2-67.2-12.7s-37.5-20.5-51.9-35.9c-14.4-15.3-25.8-34.2-33.6-55.8
			c-8.2-21.9-12.1-46-12.1-72.1c0-26.4,4.2-50.2,12.4-71.8c8.2-21.5,19.6-40.1,34.2-55.1c14.7-15.3,32-27.1,52.2-35.6
			s42.1-12.7,65.9-12.7c24.1,0,46.3,4.2,66.5,12.7s37.5,20.2,51.9,35.6s25.8,33.6,33.6,55.1C2214.9,318,2219.1,341.8,2219.1,368.2z
			 M2122.6,368.2c0-29.4-5.9-52.2-17.6-68.8c-11.7-16.6-28.4-25.1-49.9-25.1s-38.5,8.5-50.2,25.1s-17.9,39.8-17.9,68.8
			c0,29.4,5.9,52.5,17.9,69.5c11.7,17.3,28.7,25.8,50.2,25.8s38.2-8.5,49.9-25.8C2116.7,420.4,2122.6,397.2,2122.6,368.2z"/>
		<path class="st0" d="M2360.7,105c0,17.3-5.5,31-17,41.1c-11.1,10.1-24.5,15-39.8,15s-28.4-4.9-39.8-15c-11.1-10.1-17-23.5-17-41.1
			c0-17.3,5.5-31,17-41.1c11.1-9.8,24.5-15,39.8-15s28.4,4.9,39.8,15S2360.7,87.7,2360.7,105z M2351.9,535.9h-94.6V201.5h94.6V535.9
			z"/>
		<path class="st0" d="M2405.7,212.9c16-4.6,36.9-9.1,62.3-13c25.4-3.9,52.2-6.2,79.9-6.2c28.4,0,51.9,3.6,70.8,11.1
			c18.9,7.5,33.9,17.9,44.7,31.3c11.1,13.7,18.9,29.7,23.5,48.3s6.8,39.5,6.8,62.3v188.9h-94.6V358.1c0-30.7-3.9-52.2-12.1-64.9
			c-8.2-12.7-23.2-18.9-45-18.9c-6.8,0-14,0.3-21.5,1s-14.4,1.3-20.2,2.3v258h-94.6L2405.7,212.9L2405.7,212.9z"/>
		<path class="st1" d="M2952.4,544.7c-71.8,0-126.2-19.9-163.7-59.7s-56.1-96.2-56.1-169.6c0-36.5,5.9-68.8,17.3-97.5
			c11.4-28.7,27.1-52.8,47-72.4s43.7-34.6,71.1-44.7c27.4-10.1,57.4-15.3,89.7-15.3c18.6,0,35.6,1.3,50.9,4.2
			c15.3,2.6,28.7,5.9,40.1,9.5c11.4,3.6,20.9,7.2,28.7,11.1c7.5,3.9,13,6.8,16.6,8.8l-28.7,79.9c-13.7-7.2-29.4-13.4-47.3-18.3
			c-17.9-5.2-38.5-7.5-61.3-7.5c-15.3,0-30.3,2.6-44.7,7.5c-14.7,5.2-27.4,13.4-38.8,24.5c-11.1,11.1-20.2,25.8-27.1,43.4
			c-6.8,17.9-10.1,39.5-10.1,64.9c0,20.2,2.3,39.1,6.5,56.8c4.6,17.6,11.7,32.6,21.5,45.3c10.1,12.7,22.8,22.8,39.1,30.3
			c16,7.5,35.6,11.1,58.4,11.1c14.4,0,27.4-1,38.8-2.6c11.4-1.6,21.5-3.6,30.7-6.2c8.8-2.3,16.6-4.9,23.5-7.8
			c6.8-2.9,13-5.9,18.3-8.2l27.4,79.6c-14,8.5-33.6,16-59,22.8C3015.3,541.4,2985.7,544.7,2952.4,544.7z"/>
		<path class="st1" d="M3248.6,192.7c28.1,0,51.2,3.3,69.8,9.5s33.6,15.3,44.7,27.4c11.1,11.7,19.2,26.4,23.8,43.1
			c4.6,17,6.8,35.9,6.8,56.4v197c-13.7,2.9-32.3,6.5-56.4,10.4c-24.1,3.9-53.5,6.2-87.7,6.2c-21.5,0-41.1-2-58.7-5.9
			c-17.6-3.9-32.6-10.1-45.3-18.6c-12.7-8.8-22.5-19.9-29.4-33.9c-6.8-14-10.1-31-10.1-51.5c0-19.6,3.9-35.9,11.7-49.6
			s18.3-24.5,31.3-32.3c13-8.2,28.1-14,45-17.6c17-3.6,34.6-5.5,52.8-5.5c12.4,0,23.2,0.7,32.6,1.6c9.5,1,17.3,2.3,23.2,4.2v-8.8
			c0-16-4.9-29-14.7-38.8s-26.7-14.7-50.9-14.7c-16,0-32,1.3-47.6,3.6c-15.7,2.3-29.4,5.5-40.8,9.8l-12.1-76.3
			c5.5-1.6,12.4-3.6,20.5-5.5c8.2-2,17.3-3.6,27.1-5.2c9.8-1.6,19.9-2.6,30.7-3.9C3226.4,193.4,3237.5,192.7,3248.6,192.7z
			 M3256.1,469.6c9.5,0,18.3-0.3,26.7-0.7c8.5-0.3,15.3-1,20.2-2v-71.8c-3.9-1-9.5-1.6-17.3-2.6c-7.5-1-14.7-1.3-20.9-1.3
			c-8.8,0-17.3,0.7-25.1,1.6c-7.8,1-14.7,2.9-20.5,6.2c-5.9,2.9-10.4,6.8-14,12.1c-3.3,5.2-5.2,11.4-5.2,18.9
			c0,14.7,4.9,25.1,15,30.7C3225.1,467,3238.8,469.6,3256.1,469.6z"/>
		<path class="st1" d="M3540.8,468c17.3,0,29.7-1.6,36.9-5.2c7.2-3.3,10.8-10.1,10.8-19.6c0-7.5-4.6-14.4-14-19.9
			c-9.5-5.9-23.5-12.1-42.7-19.2c-14.7-5.5-28.4-11.1-40.4-17.3c-12.1-5.9-22.5-13-30.7-21.2c-8.5-8.2-15-18.3-19.6-29.7
			c-4.6-11.4-6.8-25.1-6.8-41.4c0-31.3,11.7-56.1,34.9-74.4s55.1-27.4,95.9-27.4c20.2,0,39.8,2,58.4,5.5
			c18.6,3.6,33.6,7.5,44.4,11.7l-16.6,73.7c-11.1-3.9-22.8-7.2-35.9-10.1c-13-2.9-27.4-4.6-43.4-4.6c-29.7,0-44.4,8.2-44.4,24.8
			c0,3.9,0.7,7.2,2,10.1s3.9,5.9,7.5,8.5c3.9,2.6,9.1,5.9,15.7,8.8c6.5,3.3,15,6.8,25.1,10.4c20.9,7.8,37.8,15.3,51.5,22.8
			s24.1,15.7,32,24.1c7.8,8.8,13.4,18.3,16.6,28.7c3.3,10.4,4.9,22.8,4.9,36.9c0,32.9-12.4,58.1-37.2,74.7
			c-24.8,17-59.7,25.4-105,25.4c-29.7,0-54.5-2.6-74-7.5c-19.6-5.2-33.3-9.5-41.1-12.7l16-77c16,6.2,32.6,11.4,49.6,15
			C3507.6,466,3524.2,468,3540.8,468z"/>
		<path class="st1" d="M3718,535.9V58l94.6-15.3v160.2c6.2-2,14.4-4.2,24.5-6.2s19.6-2.9,29-2.9c27.1,0,49.6,3.6,67.5,11.1
			s32.3,17.9,43.1,31.3c10.8,13.7,18.3,29.7,22.8,48.3c4.6,18.6,6.5,39.5,6.5,62.3v188.9h-94.6V358.1c0-30.7-3.9-52.2-11.7-64.9
			c-7.8-12.7-22.5-18.9-43.4-18.9c-8.5,0-16.3,0.7-23.8,2.3c-7.5,1.6-14,2.9-19.9,4.9v254.1H3718V535.9z"/>
	</g>
</g>
<g>
	<g>
		<g>
			<path class="st1" d="M582.138,543.74c71.612-50.243,118.409-133.42,118.409-227.55S653.75,138.807,582.138,88.564H791V543.74
				L582.138,543.74L582.138,543.74z"/>
			<path class="st1" d="M144.884,316.114c0,94.129,46.797,177.307,118.409,227.55H54.201v-455.1h209.091
				C191.681,138.807,144.884,221.984,144.884,316.114z"/>
		</g>
		<g>
			<circle class="st1" cx="422.601" cy="316.003" r="227.395"/>
			<path class="st0" d="M529.255,325.449l-0.127-0.235l-0.021-0.039c-0.077-0.237-0.134-0.484-0.221-0.74l-0.01-0.02l-0.011-0.02
				l-0.011-0.02l-0.01-0.02l-0.011-0.02l-0.011-0.02l-0.021-0.039c-2.913-9.448-8.375-17.296-15.188-22.725l-0.011-0.02
				c-0.214-0.163-0.438-0.345-0.652-0.508l-0.295-0.22l-0.214-0.163l-0.092-0.077l-0.203-0.143l-0.092-0.077l-0.203-0.143
				l-0.092-0.077l-0.214-0.163l-0.112-0.066l-0.214-0.163l-0.112-0.066l-0.234-0.152l-0.112-0.066l-0.136-0.205l-0.122-0.086
				l-0.234-0.152l-0.122-0.086l-0.234-0.152l-0.122-0.086l-0.234-0.152l-0.122-0.086l-0.244-0.172l-0.122-0.086l-0.264-0.161
				l-0.122-0.086l-0.264-0.161l-0.122-0.086l-0.264-0.161l-0.122-0.086l-0.264-0.161l-0.142-0.075l-0.264-0.161l-0.142-0.075
				l-0.283-0.151l-0.142-0.075l-0.294-0.17l-0.142-0.075l-0.294-0.17l-0.142-0.075l-0.294-0.17l-0.152-0.095l-0.294-0.17
				l-0.152-0.095l-0.313-0.16l-0.152-0.095l-0.313-0.16l-0.212-0.113l-0.011-0.02c-0.152-0.095-0.313-0.16-0.466-0.255
				c-6.501-3.348-13.526-5.555-20.763-6.561c2.035-2.182,3.885-4.517,5.563-6.986l0.267-0.396l0.02-0.011l0.124-0.193l0.161-0.264
				l0.086-0.122l0.161-0.264l0.086-0.122l0.161-0.264l0.086-0.122l0.161-0.264l0.086-0.122l0.161-0.264l0.086-0.122l0.142-0.253
				l0.086-0.122l0.142-0.253l0.066-0.111l0.142-0.253l0.066-0.111l0.142-0.253l0.066-0.112l0.122-0.243l0.066-0.111l0.122-0.243
				l0.066-0.111l0.122-0.243l0.066-0.112l0.133-0.223l0.066-0.112l0.133-0.223l0.066-0.111l0.113-0.212l0.066-0.112l0.113-0.212
				l0.047-0.101l0.113-0.212l0.047-0.101l0.113-0.212l0.047-0.101l0.113-0.212l0.047-0.101l0.093-0.202l0.047-0.101l0.093-0.202
				l0.047-0.101l0.093-0.202l0.047-0.101l0.103-0.232l0.14-0.303c0.103-0.232,0.185-0.454,0.288-0.686l0.02-0.011
				c3-7.148,3.869-15.625,2.096-24.222l-0.011-0.02l-0.021-0.039l-0.011-0.02l-0.011-0.02l-0.011-0.02l-0.011-0.02l-0.011-0.02
				l-0.011-0.02c-0.047-0.228-0.093-0.455-0.16-0.672l-0.002-0.05l-0.011-0.02l-0.011-0.02l-0.011-0.02l0.011,0.02l-0.095-0.176
				c-0.069-0.316-0.139-0.633-0.238-0.958c-0.069-0.316-0.169-0.642-0.258-0.948l-0.116-0.215l-0.021-0.039
				c-0.066-0.217-0.133-0.434-0.199-0.651l-0.011-0.02l-0.011-0.02l-0.011-0.02l-0.011-0.02l-0.011-0.02l-0.011-0.02l-0.011-0.02
				c-2.572-8.393-7.441-15.374-13.51-20.217l-0.011-0.02c-0.184-0.154-0.387-0.297-0.571-0.451l-0.255-0.191l-0.203-0.143
				l-0.092-0.077l-0.173-0.134l-0.092-0.077l-0.173-0.134l-0.092-0.077L478.953,222l-0.092-0.077l-0.203-0.143l-0.092-0.077
				l-0.203-0.143l-0.092-0.077l-0.203-0.143l-0.112-0.066l-0.203-0.143l-0.111-0.066l-0.203-0.143l-0.112-0.066l-0.223-0.133
				l-0.112-0.066l-0.223-0.133l-0.112-0.066l-0.223-0.133l-0.112-0.066l-0.223-0.133l-0.112-0.066l-0.234-0.152l-0.112-0.066
				l-0.234-0.152l-0.112-0.066l-0.253-0.142l-0.112-0.066l-0.253-0.142l-0.122-0.086l-0.253-0.142l-0.122-0.086l-0.253-0.142
				l-0.122-0.086l-0.264-0.161l-0.142-0.075l-0.264-0.161l-0.142-0.075l-0.283-0.151l-0.142-0.075l-0.283-0.151l-0.202-0.093
				l-0.011-0.02l-0.425-0.226c-12.418-6.454-28.194-8.397-44.068-4.325l-4.129,1.06l-10.444-40.666l-24.2,6.205l10.409,40.508
				l-19.36,4.964l-10.415-40.378l-24.2,6.205l10.409,40.508l-49.911,12.843l6.641,25.81l20.111-5.165
				c6.657-1.714,13.468,2.301,15.162,8.969l0,0l27.911,108.603c1.149,4.435-1.541,8.965-5.976,10.114l-17.621,4.533l1.035,30.697
				l49.852-12.811l10.546,40.434l24.19-6.224l-10.42-40.527l19.36-4.964l10.42,40.527l24.19-6.224l-10.454-40.685
				c4.099-1.069,7.625-1.982,10.064-2.613c17.888-4.601,32.353-15.091,41.107-28.165l0.295-0.437l0.02-0.011l0.143-0.203l0.19-0.304
				l0.095-0.152l0.19-0.304l0.095-0.152l0.17-0.294l0.095-0.152l0.17-0.294l0.075-0.142l0.17-0.294l0.075-0.142l0.17-0.294
				l0.075-0.142l0.151-0.283l0.075-0.142l0.151-0.283l0.075-0.142l0.161-0.264l0.075-0.142l0.161-0.264l0.075-0.142l0.142-0.253
				l0.075-0.142l0.142-0.253l0.075-0.142l0.142-0.253l0.056-0.131l0.142-0.253l0.056-0.131l0.122-0.243l0.066-0.112l0.122-0.243
				l0.066-0.112l0.122-0.243l0.066-0.112l0.122-0.243l0.066-0.111l0.122-0.243l0.066-0.112l0.122-0.243l0.066-0.112l0.102-0.232
				l0.066-0.112l0.102-0.232l0.047-0.101l0.112-0.262l0.149-0.333c0.112-0.262,0.234-0.505,0.326-0.756l0.009-0.03
				c3.351-8.044,4.368-17.561,2.364-27.246l-0.011-0.02l-0.011-0.02l-0.01-0.02l-0.011-0.02l-0.011-0.02l-0.011-0.02l-0.01-0.02
				l-0.011-0.02c-0.057-0.247-0.114-0.494-0.172-0.741l-0.001-0.05l-0.011-0.02l-0.011-0.02l-0.01-0.02l-0.011-0.02l-0.011-0.02
				l-0.011-0.02l-0.01-0.02l-0.011-0.02l-0.011-0.02l-0.011-0.02l-0.01-0.02l-0.011-0.02l-0.011-0.02l-0.042-0.078
				c-0.09-0.356-0.161-0.722-0.271-1.067C529.328,326.243,529.277,325.866,529.255,325.449z M387.06,252.792
				c4.129-1.06,21.2-5.348,26.83-6.811c8.949-2.291,17.766-1.402,24.654,1.914l0.232,0.103l0,0l0.101,0.047l0.142,0.075l0.071,0.038
				l0.142,0.075l0.071,0.038l0.142,0.075l0.071,0.038l0.142,0.075l0.071,0.038l0.142,0.075l0.071,0.038l0.142,0.075l0.071,0.038
				l0.142,0.075l0.071,0.038l0.142,0.075l0.071,0.038l0.142,0.075l0.071,0.038l0.122,0.086l0.071,0.038l0.122,0.086l0.071,0.038
				l0.122,0.086l0.071,0.038l0.112,0.066l0.071,0.038l0.112,0.066l0.071,0.038l0.112,0.066l0.071,0.038l0.112,0.066l0.071,0.038
				l0.112,0.066l0.051,0.048l0.112,0.066l0.041,0.029l0.111,0.066l0.041,0.029l0.112,0.066l0.041,0.029l0.112,0.066l0.041,0.029
				l0.092,0.077l0.041,0.029l0.112,0.066l0.152,0.095c0.112,0.066,0.214,0.163,0.325,0.229l0,0
				c3.524,2.651,6.105,6.366,7.397,10.597l0,0l0.032,0.059c0.033,0.108,0.077,0.237,0.11,0.345l0.011,0.02l0.063,0.118
				c0.045,0.178,0.099,0.326,0.145,0.503c0.045,0.178,0.08,0.336,0.096,0.555l0.063,0.118l0.011,0.02
				c0.014,0.119,0.047,0.228,0.09,0.356l0.032,0.059l0,0c0.906,4.313,0.425,8.816-1.375,12.842l0,0l-0.158,0.363l-0.084,0.172
				l-0.066,0.111l-0.018,0.06l-0.047,0.101l-0.018,0.06l-0.066,0.111l-0.018,0.06l-0.066,0.112l-0.018,0.06l-0.066,0.112
				l-0.018,0.06l-0.066,0.111l-0.018,0.06l-0.066,0.111l-0.018,0.06l-0.066,0.111l-0.038,0.071l-0.066,0.112l-0.038,0.071
				l-0.066,0.112l-0.038,0.071l-0.066,0.112l-0.038,0.071l-0.086,0.122l-0.038,0.071l-0.086,0.122l-0.038,0.071l-0.086,0.122
				l-0.038,0.071l-0.086,0.122l-0.038,0.071l-0.086,0.122l-0.038,0.071l-0.086,0.122l-0.038,0.071l-0.086,0.122l-0.038,0.071
				l-0.086,0.122l-0.038,0.071l-0.105,0.133l-0.038,0.071l-0.105,0.133l-0.038,0.071l-0.105,0.133l-0.038,0.071l-0.105,0.133
				l-0.077,0.092l0,0l-0.143,0.203c-4.451,6.236-11.744,11.274-20.694,13.564c-5.64,1.444-22.666,5.909-26.795,6.97L387.06,252.792z
				 M481.656,336.062l0.063,0.118l0.011,0.02c0.024,0.139,0.057,0.247,0.081,0.386l0,0l0.011,0.02l0,0l0,0l0.011,0.02l0.011,0.02
				l0.011,0.02l0,0c0.95,4.769,0.273,9.707-1.946,14.034l0,0l-0.217,0.395l-0.104,0.182l-0.075,0.142l-0.038,0.071l-0.066,0.112
				l-0.038,0.071l-0.066,0.112l-0.038,0.071l-0.086,0.122l-0.038,0.071l-0.086,0.122l-0.038,0.071l-0.086,0.122l-0.038,0.071
				l-0.086,0.122l-0.038,0.071l-0.086,0.122l-0.038,0.071l-0.086,0.122l-0.038,0.071l-0.086,0.122l-0.038,0.071l-0.086,0.122
				l-0.038,0.071l-0.086,0.122l-0.038,0.071l-0.105,0.133l-0.038,0.071l-0.105,0.133l-0.038,0.071l-0.095,0.152l-0.038,0.071
				l-0.095,0.152l-0.038,0.071l-0.095,0.152l-0.057,0.081l-0.095,0.152l-0.057,0.081l-0.115,0.163l-0.057,0.081l-0.115,0.163
				l-0.057,0.081l-0.115,0.163l-0.057,0.081l-0.115,0.163l-0.057,0.081l-0.115,0.163l-0.096,0.102l0,0l-0.182,0.224
				c-5.406,6.902-14.124,12.58-24.712,15.298c-6.677,1.724-26.854,7.001-31.763,8.254l-13.736-53.447
				c4.899-1.273,25.132-6.352,31.809-8.076c10.589-2.718,20.984-1.947,29.021,1.484l0.262,0.112l0,0l0.131,0.056l0.191,0.074
				l0.09,0.027l0.172,0.084l0.09,0.027l0.172,0.084l0.09,0.027l0.172,0.084l0.071,0.038l0.172,0.084l0.071,0.038l0.172,0.084
				l0.071,0.038l0.172,0.084l0.071,0.038l0.142,0.075l0.071,0.038l0.142,0.075l0.071,0.038l0.142,0.075l0.071,0.038l0.142,0.075
				l0.071,0.038l0.142,0.075l0.071,0.038l0.142,0.075l0.071,0.038l0.142,0.075l0.071,0.038l0.142,0.075l0.071,0.038l0.142,0.075
				l0.071,0.038l0.122,0.086l0.071,0.038l0.122,0.086l0.071,0.038l0.122,0.086l0.071,0.038l0.122,0.086l0.071,0.038l0.122,0.086
				l0.071,0.038l0.111,0.066l0.071,0.038l0.122,0.086l0.163,0.115c0.122,0.086,0.264,0.161,0.386,0.247l0,0
				c4.024,2.735,7.012,6.736,8.465,11.361l0,0l0.042,0.078c0.044,0.128,0.077,0.237,0.12,0.365l0.011,0.02l0.063,0.118
				c0.045,0.178,0.09,0.356,0.146,0.553C481.671,335.574,481.688,335.792,481.656,336.062L481.656,336.062z"/>
		</g>
	</g>
</g>
</svg>
