<?xml version="1.0" encoding="utf-8"?>
<!-- Generator: Adobe Illustrator 22.0.1, SVG Export Plug-In . SVG Version: 6.00 Build 0)  -->
<svg version="1.1" id="Layer_1" xmlns="http://www.w3.org/2000/svg" xmlns:xlink="http://www.w3.org/1999/xlink" x="0px" y="0px"
	 width="4059.6px" height="588px" viewBox="0 0 4059.6 588" enable-background="new 0 0 4059.6 588" xml:space="preserve">
<g>
	<g>
		<g id="g16" transform="scale(0.015625)">
			<path id="coin" fill="#F7941D" d="M41172.2,16791.3c1895.4,7809.2-2899.1,15676.8-10709.3,17572.2
				c-7807.2,1894.3-15675.1-2900.6-17569.3-10709.8C10997,15844,15791.2,7976,23599.2,6081.4
				C31408.8,4185.8,39276.6,8981.6,41172.2,16791.3L41172.2,16791.3z"/>
			<path id="symbol" fill="#FFFFFF" d="M31753.1,15408.9c-641.8-1850-2431.2-2088.2-4539.6-1768.1l-637.8-2627.5l-1599.3,388.3
				l621,2558.3c-420.4,102.1-848.2,214.7-1273.2,326.8l-624.7-2575.3l-1598.5,387.9l636.9,2626.9
				c-344.5,91.1-683.1,180.1-1014.6,260.7l-2.2-8.1l-2206.1,534.6l415,1708.1c0,0,1175.6-309.2,1161.2-282.7
				c647.9-157,950,167.9,1090.1,477.5l726.6,2993.3c44.8-10.6,103.5-22.9,171.7-29.9c-53.3,13-110.4,26.5-168.9,41.2l1017.3,4193.4
				c21.1,210.7-19.9,564.9-472.3,675.6c24.8,13.2-1162.7,281.8-1162.7,281.8l145.8,1987.1l2081.3-505.2
				c387.5-93.5,770.1-179.5,1144.8-267.9l645.6,2657.2l1597.7-387.5l-638.1-2629.3c440.9-97.4,866.2-196.9,1280.6-297.9
				l634.5,2617.4l1599.3-388.3l-643.3-2652.9c2651.4-806.8,4368.9-1941,3989.8-4522.7c-304.7-2079-1481.4-2754.1-3096.7-2750.2
				C31847.4,17734.7,32225.2,16762.1,31753.1,15408.9L31753.1,15408.9z M30894.7,21634.1c482.8,1985.7-2972.4,2585.1-4056,2849.2
				l-854.1-3521C27068.7,20699.4,30392,19562.8,30894.7,21634.1z M28945.2,16847.1c438,1806.9-2449.1,2284.4-3351.9,2503.5
				l-774.9-3193.4C25721.2,15938,28487.6,14962.6,28945.2,16847.1z"/>
		</g>
		<path fill="#F7941D" d="M582.1,544.2c71.7-50.3,118.5-133.5,118.5-227.8S653.8,138.9,582.1,88.6h209.1v455.6L582.1,544.2
			L582.1,544.2z"/>
		<path fill="#F7941D" d="M144.4,316.3c0,94.2,46.8,177.5,118.5,227.8H53.6V88.6h209.3C191.2,138.9,144.4,222.1,144.4,316.3z"/>
	</g>
	<g>
		<path fill="#FFFFFF" d="M1017.4,541.4c-24.1,0-48.3-0.7-72.1-2.3c-23.8-1.6-48.9-4.9-74.7-10.4v-427c20.2-3.9,42.7-6.5,66.9-8.5
			c24.1-2,46.6-2.9,67.5-2.9c28.1,0,53.8,2,77.3,6.2c23.5,3.9,43.7,10.8,60.7,20.5c17,9.8,30.3,22.5,39.8,38.5
			c9.5,16,14.4,35.6,14.4,58.7c0,35.2-17,63-50.9,83.2c28.1,10.4,47,25.1,57.1,43.1c10.1,18.3,15.3,38.8,15.3,61.6
			c0,46.3-17,80.9-50.6,104.1C1133.9,530,1084,541.4,1017.4,541.4z M967.2,268.4h48.3c30.7,0,52.2-3.9,65.6-11.7
			c13-7.8,19.6-20.5,19.6-37.8c0-17.9-6.8-30.3-20.2-37.5c-13.7-7.2-33.6-10.8-59.7-10.8c-8.5,0-17.6,0-27.4,0.3
			c-9.8,0.3-18.3,0.7-26.1,1.6C967.2,172.5,967.2,268.4,967.2,268.4z M967.2,344.1v113.8c7.2,1,15,1.6,23.5,2s17.9,0.7,28.1,0.7
			c29.7,0,53.5-4.2,71.8-12.7c18.3-8.5,27.4-24.1,27.4-47c0-20.2-7.5-34.9-22.8-43.4c-15.3-8.8-37.2-13-65.6-13h-62.3V344.1z"/>
		<path fill="#FFFFFF" d="M1359.9,105c0,17.3-5.5,31-17,41.1c-11.1,10.1-24.5,15-39.8,15c-15.3,0-28.4-4.9-39.8-15
			c-11.1-10.1-17-23.5-17-41.1c0-17.3,5.5-31,17-41.1c11.1-9.8,24.5-15,39.8-15c15.3,0,28.4,4.9,39.8,15S1359.9,87.7,1359.9,105z
			 M1350.8,535.9h-94.6V201.5h94.6V535.9z"/>
		<path fill="#FFFFFF" d="M1401.7,118.3l94.6-15.3v98.5h113.8v78.9h-113.8v117.4c0,19.9,3.6,35.9,10.4,47.6
			c6.8,11.7,21.2,17.9,42.4,17.9c10.1,0,20.5-1,31.3-2.9c10.8-2,20.5-4.6,29.7-7.8l13.4,73.7c-11.4,4.6-24.1,8.8-38.2,12.1
			c-14,3.3-31,5.2-51.5,5.2c-25.8,0-47.3-3.6-64.3-10.4c-17-6.8-30.7-16.6-40.8-29.4c-10.1-12.4-17.3-27.7-21.2-45.3
			c-3.9-17.9-6.2-37.5-6.2-59V118.3H1401.7z"/>
		<path fill="#FFFFFF" d="M1623.5,368.8c0-24.1,3.9-47,11.7-68.2c7.8-21.5,19.2-40.1,33.9-55.8c14.7-16,32.9-28.4,54.1-37.8
			c21.2-9.5,45.3-14,72.4-14c17.9,0,34.2,1.6,48.9,4.9c14.7,3.3,29.4,7.8,43.1,13.7l-19.6,75.7c-8.8-3.3-18.6-6.2-29.4-8.8
			c-10.4-2.6-22.5-3.9-35.6-3.9c-28.1,0-48.9,8.8-62.6,26.1c-13.7,17.3-20.5,40.1-20.5,68.5c0,30,6.5,53.5,19.2,69.8
			c13,16.6,35.6,24.8,67.5,24.8c11.4,0,23.8-1,36.9-3.3c13-2,25.1-5.5,36.2-10.1l13.4,77.6c-11.1,4.6-24.8,8.8-41.4,12.1
			c-16.6,3.3-34.9,5.2-54.8,5.2c-30.7,0-56.8-4.6-78.9-13.7c-22.2-9.1-40.1-21.5-54.5-37.2c-14.4-15.7-24.5-34.2-31-55.5
			C1626.8,416.8,1623.5,393.6,1623.5,368.8z"/>
		<path fill="#FFFFFF" d="M2219.1,368.2c0,26.4-3.9,50.2-11.4,72.1c-7.5,21.9-18.6,40.4-32.9,55.8c-14.4,15.3-31.6,27.4-51.9,35.9
			s-42.7,12.7-67.5,12.7c-24.5,0-47-4.2-67.2-12.7c-20.2-8.5-37.5-20.5-51.9-35.9c-14.4-15.3-25.8-34.2-33.6-55.8
			c-8.2-21.9-12.1-46-12.1-72.1c0-26.4,4.2-50.2,12.4-71.8c8.2-21.5,19.6-40.1,34.2-55.1c14.7-15.3,32-27.1,52.2-35.6
			c20.2-8.5,42.1-12.7,65.9-12.7c24.1,0,46.3,4.2,66.5,12.7c20.2,8.5,37.5,20.2,51.9,35.6s25.8,33.6,33.6,55.1
			C2214.9,318,2219.1,341.8,2219.1,368.2z M2122.6,368.2c0-29.4-5.9-52.2-17.6-68.8c-11.7-16.6-28.4-25.1-49.9-25.1
			s-38.5,8.5-50.2,25.1c-11.7,16.6-17.9,39.8-17.9,68.8c0,29.4,5.9,52.5,17.9,69.5c11.7,17.3,28.7,25.8,50.2,25.8
			c21.5,0,38.2-8.5,49.9-25.8C2116.7,420.4,2122.6,397.2,2122.6,368.2z"/>
		<path fill="#FFFFFF" d="M2360.7,105c0,17.3-5.5,31-17,41.1c-11.1,10.1-24.5,15-39.8,15s-28.4-4.9-39.8-15
			c-11.1-10.1-17-23.5-17-41.1c0-17.3,5.5-31,17-41.1c11.1-9.8,24.5-15,39.8-15s28.4,4.9,39.8,15C2355.1,74,2360.7,87.7,2360.7,105z
			 M2351.9,535.9h-94.6V201.5h94.6V535.9z"/>
		<path fill="#FFFFFF" d="M2405.7,212.9c16-4.6,36.9-9.1,62.3-13c25.4-3.9,52.2-6.2,79.9-6.2c28.4,0,51.9,3.6,70.8,11.1
			c18.9,7.5,33.9,17.9,44.7,31.3c11.1,13.7,18.9,29.7,23.5,48.3s6.8,39.5,6.8,62.3v188.9h-94.6V358.1c0-30.7-3.9-52.2-12.1-64.9
			c-8.2-12.7-23.2-18.9-45-18.9c-6.8,0-14,0.3-21.5,1c-7.5,0.7-14.4,1.3-20.2,2.3v258h-94.6V212.9L2405.7,212.9z"/>
		<path fill="#F7941D" d="M2952.4,544.7c-71.8,0-126.2-19.9-163.7-59.7c-37.5-39.8-56.1-96.2-56.1-169.6c0-36.5,5.9-68.8,17.3-97.5
			c11.4-28.7,27.1-52.8,47-72.4c19.9-19.6,43.7-34.6,71.1-44.7c27.4-10.1,57.4-15.3,89.7-15.3c18.6,0,35.6,1.3,50.9,4.2
			c15.3,2.6,28.7,5.9,40.1,9.5c11.4,3.6,20.9,7.2,28.7,11.1c7.5,3.9,13,6.8,16.6,8.8l-28.7,79.9c-13.7-7.2-29.4-13.4-47.3-18.3
			c-17.9-5.2-38.5-7.5-61.3-7.5c-15.3,0-30.3,2.6-44.7,7.5c-14.7,5.2-27.4,13.4-38.8,24.5c-11.1,11.1-20.2,25.8-27.1,43.4
			c-6.8,17.9-10.1,39.5-10.1,64.9c0,20.2,2.3,39.1,6.5,56.8c4.6,17.6,11.7,32.6,21.5,45.3c10.1,12.7,22.8,22.8,39.1,30.3
			c16,7.5,35.6,11.1,58.4,11.1c14.4,0,27.4-1,38.8-2.6c11.4-1.6,21.5-3.6,30.7-6.2c8.8-2.3,16.6-4.9,23.5-7.8
			c6.8-2.9,13-5.9,18.3-8.2l27.4,79.6c-14,8.5-33.6,16-59,22.8C3015.3,541.4,2985.7,544.7,2952.4,544.7z"/>
		<path fill="#F7941D" d="M3248.6,192.7c28.1,0,51.2,3.3,69.8,9.5c18.6,6.2,33.6,15.3,44.7,27.4c11.1,11.7,19.2,26.4,23.8,43.1
			c4.6,17,6.8,35.9,6.8,56.4v197c-13.7,2.9-32.3,6.5-56.4,10.4c-24.1,3.9-53.5,6.2-87.7,6.2c-21.5,0-41.1-2-58.7-5.9
			c-17.6-3.9-32.6-10.1-45.3-18.6c-12.7-8.8-22.5-19.9-29.4-33.9c-6.8-14-10.1-31-10.1-51.5c0-19.6,3.9-35.9,11.7-49.6
			c7.8-13.7,18.3-24.5,31.3-32.3c13-8.2,28.1-14,45-17.6c17-3.6,34.6-5.5,52.8-5.5c12.4,0,23.2,0.7,32.6,1.6
			c9.5,1,17.3,2.3,23.2,4.2v-8.8c0-16-4.9-29-14.7-38.8c-9.8-9.8-26.7-14.7-50.9-14.7c-16,0-32,1.3-47.6,3.6
			c-15.7,2.3-29.4,5.5-40.8,9.8l-12.1-76.3c5.5-1.6,12.4-3.6,20.5-5.5c8.2-2,17.3-3.6,27.1-5.2c9.8-1.6,19.9-2.6,30.7-3.9
			C3226.4,193.4,3237.5,192.7,3248.6,192.7z M3256.1,469.6c9.5,0,18.3-0.3,26.7-0.7c8.5-0.3,15.3-1,20.2-2v-71.8
			c-3.9-1-9.5-1.6-17.3-2.6c-7.5-1-14.7-1.3-20.9-1.3c-8.8,0-17.3,0.7-25.1,1.6c-7.8,1-14.7,2.9-20.5,6.2c-5.9,2.9-10.4,6.8-14,12.1
			c-3.3,5.2-5.2,11.4-5.2,18.9c0,14.7,4.9,25.1,15,30.7C3225.1,467,3238.8,469.6,3256.1,469.6z"/>
		<path fill="#F7941D" d="M3540.8,468c17.3,0,29.7-1.6,36.9-5.2c7.2-3.3,10.8-10.1,10.8-19.6c0-7.5-4.6-14.4-14-19.9
			c-9.5-5.9-23.5-12.1-42.7-19.2c-14.7-5.5-28.4-11.1-40.4-17.3c-12.1-5.9-22.5-13-30.7-21.2c-8.5-8.2-15-18.3-19.6-29.7
			c-4.6-11.4-6.8-25.1-6.8-41.4c0-31.3,11.7-56.1,34.9-74.4c23.2-18.3,55.1-27.4,95.9-27.4c20.2,0,39.8,2,58.4,5.5
			c18.6,3.6,33.6,7.5,44.4,11.7l-16.6,73.7c-11.1-3.9-22.8-7.2-35.9-10.1c-13-2.9-27.4-4.6-43.4-4.6c-29.7,0-44.4,8.2-44.4,24.8
			c0,3.9,0.7,7.2,2,10.1c1.3,2.9,3.9,5.9,7.5,8.5c3.9,2.6,9.1,5.9,15.7,8.8c6.5,3.3,15,6.8,25.1,10.4c20.9,7.8,37.8,15.3,51.5,22.8
			c13.7,7.5,24.1,15.7,32,24.1c7.8,8.8,13.4,18.3,16.6,28.7c3.3,10.4,4.9,22.8,4.9,36.9c0,32.9-12.4,58.1-37.2,74.7
			c-24.8,17-59.7,25.4-105,25.4c-29.7,0-54.5-2.6-74-7.5c-19.6-5.2-33.3-9.5-41.1-12.7l16-77c16,6.2,32.6,11.4,49.6,15
			C3507.6,466,3524.2,468,3540.8,468z"/>
		<path fill="#F7941D" d="M3718,535.9V58l94.6-15.3v160.2c6.2-2,14.4-4.2,24.5-6.2c10.1-2,19.6-2.9,29-2.9
			c27.1,0,49.6,3.6,67.5,11.1c17.9,7.5,32.3,17.9,43.1,31.3c10.8,13.7,18.3,29.7,22.8,48.3c4.6,18.6,6.5,39.5,6.5,62.3v188.9h-94.6
			V358.1c0-30.7-3.9-52.2-11.7-64.9c-7.8-12.7-22.5-18.9-43.4-18.9c-8.5,0-16.3,0.7-23.8,2.3c-7.5,1.6-14,2.9-19.9,4.9v254.1H3718
			V535.9z"/>
	</g>
</g>
</svg>
