<?xml version="1.0" encoding="utf-8"?>
<!-- Generator: Adobe Illustrator 22.0.1, SVG Export Plug-In . SVG Version: 6.00 Build 0)  -->
<svg version="1.1" id="Layer_1" xmlns="http://www.w3.org/2000/svg" xmlns:xlink="http://www.w3.org/1999/xlink" x="0px" y="0px"
	 width="703.5px" height="270px" viewBox="0 0 703.5 270" enable-background="new 0 0 703.5 270" xml:space="preserve">
<g>
	<g>
		<g>
			<defs>
				<path id="SVGID_1_" d="M637.3,262.3H66.2c-32.2,0-58.5-26.3-58.5-58.5V66.2C7.7,34,34.1,7.7,66.2,7.7h571.1
					c32.2,0,58.5,26.3,58.5,58.5v137.6C695.8,236,669.5,262.3,637.3,262.3z"/>
			</defs>
			<clipPath id="SVGID_2_">
				<use xlink:href="#SVGID_1_"  overflow="visible"/>
			</clipPath>
			<path clip-path="url(#SVGID_2_)" fill="#FFFFFF" d="M695.8,7.7H7.7H695.8z"/>
			<rect x="7.7" y="7.7" clip-path="url(#SVGID_2_)" fill="#FFFFFF" width="688" height="6.5"/>
			<rect x="7.7" y="14.2" clip-path="url(#SVGID_2_)" fill="#FFFFFF" width="688" height="6.5"/>
			<rect x="7.7" y="20.8" clip-path="url(#SVGID_2_)" fill="#FFFFFF" width="688" height="6.5"/>
			<rect x="7.7" y="27.3" clip-path="url(#SVGID_2_)" fill="#FEFEFE" width="688" height="6.5"/>
			<rect x="7.7" y="33.8" clip-path="url(#SVGID_2_)" fill="#FEFEFE" width="688" height="6.5"/>
			<rect x="7.7" y="40.4" clip-path="url(#SVGID_2_)" fill="#FDFDFE" width="688" height="6.5"/>
			<rect x="7.7" y="46.9" clip-path="url(#SVGID_2_)" fill="#FDFDFD" width="688" height="6.5"/>
			<rect x="7.7" y="53.4" clip-path="url(#SVGID_2_)" fill="#FCFCFC" width="688" height="6.5"/>
			<rect x="7.7" y="59.9" clip-path="url(#SVGID_2_)" fill="#FCFCFC" width="688" height="6.5"/>
			<rect x="7.7" y="66.5" clip-path="url(#SVGID_2_)" fill="#FBFBFB" width="688" height="6.5"/>
			<rect x="7.7" y="73" clip-path="url(#SVGID_2_)" fill="#FAFAFB" width="688" height="6.5"/>
			<rect x="7.7" y="79.5" clip-path="url(#SVGID_2_)" fill="#FAFAFA" width="688" height="6.5"/>
			<rect x="7.7" y="86" clip-path="url(#SVGID_2_)" fill="#F9F9F9" width="688" height="6.5"/>
			<rect x="7.7" y="92.6" clip-path="url(#SVGID_2_)" fill="#F8F8F8" width="688" height="6.5"/>
			<rect x="7.7" y="99.1" clip-path="url(#SVGID_2_)" fill="#F7F7F7" width="688" height="6.5"/>
			<rect x="7.7" y="105.6" clip-path="url(#SVGID_2_)" fill="#F6F6F7" width="688" height="6.5"/>
			<rect x="7.7" y="112.2" clip-path="url(#SVGID_2_)" fill="#F5F5F6" width="688" height="6.5"/>
			<rect x="7.7" y="118.7" clip-path="url(#SVGID_2_)" fill="#F4F4F5" width="688" height="6.5"/>
			<rect x="7.7" y="125.2" clip-path="url(#SVGID_2_)" fill="#F3F3F4" width="688" height="6.5"/>
			<rect x="7.7" y="131.7" clip-path="url(#SVGID_2_)" fill="#F2F2F3" width="688" height="6.5"/>
			<rect x="7.7" y="138.3" clip-path="url(#SVGID_2_)" fill="#F1F1F2" width="688" height="6.5"/>
			<rect x="7.7" y="144.8" clip-path="url(#SVGID_2_)" fill="#F0F0F1" width="688" height="6.5"/>
			<rect x="7.7" y="151.3" clip-path="url(#SVGID_2_)" fill="#EFEFEF" width="688" height="6.5"/>
			<rect x="7.7" y="157.8" clip-path="url(#SVGID_2_)" fill="#EDEEEE" width="688" height="6.5"/>
			<rect x="7.7" y="164.4" clip-path="url(#SVGID_2_)" fill="#ECEDED" width="688" height="6.5"/>
			<rect x="7.7" y="170.9" clip-path="url(#SVGID_2_)" fill="#EBEBEC" width="688" height="6.5"/>
			<rect x="7.7" y="177.4" clip-path="url(#SVGID_2_)" fill="#EAEAEB" width="688" height="6.5"/>
			<rect x="7.7" y="184" clip-path="url(#SVGID_2_)" fill="#E8E9E9" width="688" height="6.5"/>
			<rect x="7.7" y="190.5" clip-path="url(#SVGID_2_)" fill="#E7E8E8" width="688" height="6.5"/>
			<rect x="7.7" y="197" clip-path="url(#SVGID_2_)" fill="#E6E6E7" width="688" height="6.5"/>
			<rect x="7.7" y="203.5" clip-path="url(#SVGID_2_)" fill="#E4E5E6" width="688" height="6.5"/>
			<rect x="7.7" y="210.1" clip-path="url(#SVGID_2_)" fill="#E3E3E4" width="688" height="6.5"/>
			<rect x="7.7" y="216.6" clip-path="url(#SVGID_2_)" fill="#E1E2E3" width="688" height="6.5"/>
			<rect x="7.7" y="223.1" clip-path="url(#SVGID_2_)" fill="#E0E1E1" width="688" height="6.5"/>
			<rect x="7.7" y="229.6" clip-path="url(#SVGID_2_)" fill="#DEDFE0" width="688" height="6.5"/>
			<rect x="7.7" y="236.2" clip-path="url(#SVGID_2_)" fill="#DDDEDF" width="688" height="6.5"/>
			<rect x="7.7" y="242.7" clip-path="url(#SVGID_2_)" fill="#DBDCDD" width="688" height="6.5"/>
			<rect x="7.7" y="249.2" clip-path="url(#SVGID_2_)" fill="#DADBDC" width="688" height="6.5"/>
			<rect x="7.7" y="255.8" clip-path="url(#SVGID_2_)" fill="#D8D9DA" width="688" height="6.5"/>
			<path clip-path="url(#SVGID_2_)" fill="#D8D9DA" d="M7.7,262.3h688H7.7z"/>
		</g>
		<path fill="#AAAAAA" d="M637.3,264H66.2C33,264,6,237,6,203.8V66.2C6,33,33,6,66.2,6h571.1c33.2,0,60.2,27,60.2,60.2v137.6
			C697.5,237,670.5,264,637.3,264z M66.2,9.4C34.9,9.4,9.5,34.9,9.5,66.2v137.6c0,31.3,25.5,56.8,56.8,56.8h571.1
			c31.3,0,56.8-25.5,56.8-56.8V66.2c0-31.3-25.5-56.8-56.8-56.8H66.2z"/>
	</g>
	<g>
		<g>
			<g>
				<g id="g16" transform="scale(0.015625)">
					<path id="coin" fill="#F7941D" d="M8881,6412.5c291.2,1199.7-445.4,2408.3-1645.2,2699.5c-1199.4,291-2408-445.6-2699-1645.3
						c-291.4-1199.7,445.1-2408.4,1644.6-2699.5C7381.1,4476,8589.8,5212.7,8881,6412.5L8881,6412.5z"/>
					<path id="symbol" fill="#FFFFFF" d="M7434,6200.1c-98.6-284.2-373.5-320.8-697.4-271.6l-98-403.6l-245.7,59.7l95.4,393
						c-64.6,15.7-130.3,33-195.6,50.2l-96-395.6l-245.6,59.6l97.8,403.5c-52.9,14-104.9,27.7-155.9,40l-0.3-1.2l-338.9,82.1
						l63.8,262.4c0,0,180.6-47.5,178.4-43.4c99.5-24.1,145.9,25.8,167.5,73.4l111.6,459.8c6.9-1.6,15.9-3.5,26.4-4.6
						c-8.2,2-17,4.1-25.9,6.3l156.3,644.2c3.2,32.4-3.1,86.8-72.6,103.8c3.8,2-178.6,43.3-178.6,43.3l22.4,305.3l319.7-77.6
						c59.5-14.4,118.3-27.6,175.9-41.2l99.2,408.2l245.4-59.5l-98-403.9c67.7-15,133.1-30.2,196.7-45.8l97.5,402.1l245.7-59.7
						l-98.8-407.5c407.3-123.9,671.2-298.2,612.9-694.8c-46.8-319.4-227.6-423.1-475.7-422.5C7448.5,6557.4,7506.5,6408,7434,6200.1
						L7434,6200.1z M7302.1,7156.4c74.2,305-456.6,397.1-623.1,437.7l-131.2-540.9C6714.4,7012.8,7224.9,6838.2,7302.1,7156.4z
						 M7002.6,6421c67.3,277.6-376.2,350.9-514.9,384.6l-119-490.6C6507.4,6281.4,6932.3,6131.5,7002.6,6421z"/>
				</g>
				<path fill="#F7941D" d="M129.4,143.5c11-7.7,18.2-20.5,18.2-35s-7.2-27.3-18.2-35h32.1v70H129.4L129.4,143.5z"/>
				<path fill="#F7941D" d="M62.1,108.5c0,14.5,7.2,27.3,18.2,35H48.2v-70h32.2C69.3,81.2,62.1,94,62.1,108.5z"/>
			</g>
			<g>
				<path fill="#4D4D4D" d="M196.2,143.1c-3.7,0-7.4-0.1-11.1-0.4c-3.7-0.2-7.5-0.8-11.5-1.6V75.5c3.1-0.6,6.6-1,10.3-1.3
					c3.7-0.3,7.2-0.4,10.4-0.4c4.3,0,8.3,0.3,11.9,1c3.6,0.6,6.7,1.7,9.3,3.1c2.6,1.5,4.7,3.5,6.1,5.9s2.2,5.5,2.2,9
					c0,5.4-2.6,9.7-7.8,12.8c4.3,1.6,7.2,3.9,8.8,6.6c1.6,2.8,2.4,6,2.4,9.5c0,7.1-2.6,12.4-7.8,16
					C214.1,141.3,206.5,143.1,196.2,143.1z M188.5,101.1h7.4c4.7,0,8-0.6,10.1-1.8c2-1.2,3-3.1,3-5.8c0-2.7-1-4.7-3.1-5.8
					c-2.1-1.1-5.2-1.7-9.2-1.7c-1.3,0-2.7,0-4.2,0c-1.5,0-2.8,0.1-4,0.2C188.5,86.4,188.5,101.1,188.5,101.1z M188.5,112.8v17.5
					c1.1,0.2,2.3,0.2,3.6,0.3s2.7,0.1,4.3,0.1c4.6,0,8.2-0.6,11-2c2.8-1.3,4.2-3.7,4.2-7.2c0-3.1-1.2-5.4-3.5-6.7
					c-2.4-1.4-5.7-2-10.1-2L188.5,112.8L188.5,112.8L188.5,112.8z"/>
				<path fill="#4D4D4D" d="M248.8,76c0,2.7-0.8,4.8-2.6,6.3c-1.7,1.6-3.8,2.3-6.1,2.3c-2.4,0-4.4-0.8-6.1-2.3
					c-1.7-1.6-2.6-3.6-2.6-6.3c0-2.7,0.8-4.8,2.6-6.3c1.7-1.5,3.8-2.3,6.1-2.3c2.4,0,4.4,0.8,6.1,2.3C248,71.3,248.8,73.4,248.8,76z
					 M247.5,142.2h-14.5V90.8h14.5V142.2z"/>
				<path fill="#4D4D4D" d="M255.3,78.1l14.5-2.4v15.1h17.5V103h-17.5v18c0,3.1,0.6,5.5,1.6,7.3s3.3,2.7,6.5,2.7
					c1.6,0,3.1-0.2,4.8-0.4c1.7-0.3,3.1-0.7,4.6-1.2l2.1,11.3c-1.8,0.7-3.7,1.4-5.9,1.9c-2.2,0.5-4.8,0.8-7.9,0.8
					c-4,0-7.3-0.6-9.9-1.6c-2.6-1-4.7-2.6-6.3-4.5c-1.6-1.9-2.7-4.3-3.3-7c-0.6-2.7-1-5.8-1-9.1L255.3,78.1L255.3,78.1z"/>
				<path fill="#4D4D4D" d="M289.3,116.5c0-3.7,0.6-7.2,1.8-10.5c1.2-3.3,2.9-6.2,5.2-8.6c2.3-2.5,5.1-4.4,8.3-5.8
					c3.3-1.5,7-2.2,11.1-2.2c2.7,0,5.3,0.2,7.5,0.8s4.5,1.2,6.6,2.1l-3,11.6c-1.4-0.5-2.9-1-4.5-1.4c-1.6-0.4-3.5-0.6-5.5-0.6
					c-4.3,0-7.5,1.4-9.6,4c-2.1,2.7-3.1,6.2-3.1,10.5c0,4.6,1,8.2,2.9,10.7c2,2.6,5.5,3.8,10.4,3.8c1.8,0,3.7-0.2,5.7-0.5
					c2-0.3,3.9-0.8,5.6-1.6l2.1,11.9c-1.7,0.7-3.8,1.4-6.4,1.9c-2.6,0.5-5.4,0.8-8.4,0.8c-4.7,0-8.7-0.7-12.1-2.1
					c-3.4-1.4-6.2-3.3-8.4-5.7c-2.2-2.4-3.8-5.3-4.8-8.5C289.8,123.9,289.3,120.4,289.3,116.5z"/>
				<path fill="#4D4D4D" d="M380.8,116.5c0,4.1-0.6,7.7-1.8,11.1c-1.2,3.4-2.9,6.2-5.1,8.6c-2.2,2.4-4.9,4.2-8,5.5
					c-3.1,1.3-6.6,2-10.4,2c-3.8,0-7.2-0.6-10.3-2c-3.1-1.3-5.8-3.1-8-5.5c-2.2-2.4-4-5.3-5.2-8.6c-1.3-3.4-1.9-7.1-1.9-11.1
					c0-4.1,0.6-7.7,1.9-11c1.3-3.3,3-6.2,5.3-8.5c2.3-2.4,4.9-4.2,8-5.5s6.5-2,10.1-2c3.7,0,7.1,0.6,10.2,2s5.8,3.1,8,5.5
					c2.2,2.4,4,5.2,5.2,8.5C380.2,108.7,380.8,112.4,380.8,116.5z M366,116.5c0-4.5-0.9-8-2.7-10.6c-1.8-2.6-4.4-3.9-7.7-3.9
					c-3.3,0-5.9,1.3-7.7,3.9c-1.8,2.6-2.7,6.1-2.7,10.6c0,4.5,0.9,8.1,2.7,10.7c1.8,2.7,4.4,4,7.7,4c3.3,0,5.9-1.3,7.7-4
					C365.1,124.5,366,120.9,366,116.5z"/>
				<path fill="#4D4D4D" d="M402.6,76c0,2.7-0.8,4.8-2.6,6.3c-1.7,1.6-3.8,2.3-6.1,2.3c-2.4,0-4.4-0.8-6.1-2.3
					c-1.7-1.6-2.6-3.6-2.6-6.3c0-2.7,0.8-4.8,2.6-6.3c1.7-1.5,3.8-2.3,6.1-2.3c2.4,0,4.4,0.8,6.1,2.3
					C401.7,71.3,402.6,73.4,402.6,76z M401.2,142.2h-14.5V90.8h14.5V142.2z"/>
				<path fill="#4D4D4D" d="M409.5,92.6c2.5-0.7,5.7-1.4,9.6-2c3.9-0.6,8-1,12.3-1c4.4,0,8,0.6,10.9,1.7c2.9,1.2,5.2,2.7,6.9,4.8
					c1.7,2.1,2.9,4.6,3.6,7.4c0.7,2.9,1,6.1,1,9.6v29h-14.5v-27.3c0-4.7-0.6-8-1.9-10c-1.3-2-3.6-2.9-6.9-2.9c-1,0-2.2,0-3.3,0.2
					s-2.2,0.2-3.1,0.4v39.6h-14.5L409.5,92.6L409.5,92.6z"/>
				<path fill="#F7941D" d="M493.5,143.6c-11,0-19.4-3.1-25.1-9.2c-5.8-6.1-8.6-14.8-8.6-26.1c0-5.6,0.9-10.6,2.7-15
					c1.8-4.4,4.2-8.1,7.2-11.1s6.7-5.3,10.9-6.9c4.2-1.6,8.8-2.4,13.8-2.4c2.9,0,5.5,0.2,7.8,0.6c2.4,0.4,4.4,0.9,6.2,1.5
					c1.8,0.6,3.2,1.1,4.4,1.7c1.2,0.6,2,1,2.6,1.4l-4.4,12.3c-2.1-1.1-4.5-2.1-7.3-2.8c-2.7-0.8-5.9-1.2-9.4-1.2
					c-2.4,0-4.7,0.4-6.9,1.2c-2.3,0.8-4.2,2.1-6,3.8c-1.7,1.7-3.1,4-4.2,6.7c-1,2.7-1.6,6.1-1.6,10c0,3.1,0.4,6,1,8.7
					c0.7,2.7,1.8,5,3.3,7c1.6,2,3.5,3.5,6,4.7c2.5,1.2,5.5,1.7,9,1.7c2.2,0,4.2-0.2,6-0.4c1.8-0.2,3.3-0.6,4.7-1
					c1.4-0.4,2.6-0.8,3.6-1.2c1-0.4,2-0.9,2.8-1.3l4.2,12.2c-2.2,1.3-5.2,2.5-9.1,3.5C503.2,143.1,498.6,143.6,493.5,143.6z"/>
				<path fill="#F7941D" d="M539,89.5c4.3,0,7.9,0.5,10.7,1.5c2.9,1,5.2,2.4,6.9,4.2c1.7,1.8,2.9,4.1,3.7,6.6c0.7,2.6,1,5.5,1,8.7
					v30.3c-2.1,0.4-5,1-8.7,1.6c-3.7,0.6-8.2,1-13.5,1c-3.3,0-6.3-0.3-9-0.9c-2.7-0.6-5-1.6-7-2.9c-2-1.4-3.5-3.1-4.5-5.2
					c-1-2.2-1.6-4.8-1.6-7.9c0-3,0.6-5.5,1.8-7.6s2.8-3.8,4.8-5c2-1.3,4.3-2.2,6.9-2.7c2.6-0.6,5.3-0.8,8.1-0.8c1.9,0,3.6,0.1,5,0.2
					c1.5,0.2,2.7,0.4,3.6,0.6v-1.4c0-2.5-0.8-4.5-2.3-6c-1.5-1.5-4.1-2.3-7.8-2.3c-2.5,0-4.9,0.2-7.3,0.6c-2.4,0.4-4.5,0.8-6.3,1.5
					l-1.9-11.7c0.8-0.2,1.9-0.6,3.1-0.8c1.3-0.3,2.7-0.6,4.2-0.8c1.5-0.2,3.1-0.4,4.7-0.6C535.6,89.6,537.3,89.5,539,89.5z
					 M540.1,132c1.5,0,2.8,0,4.1-0.1c1.3,0,2.4-0.2,3.1-0.3v-11c-0.6-0.2-1.5-0.2-2.7-0.4c-1.2-0.2-2.3-0.2-3.2-0.2
					c-1.4,0-2.7,0.1-3.9,0.2c-1.2,0.2-2.3,0.4-3.1,1c-0.9,0.4-1.6,1-2.2,1.9c-0.5,0.8-0.8,1.8-0.8,2.9c0,2.3,0.8,3.9,2.3,4.7
					C535.4,131.6,537.5,132,540.1,132z"/>
				<path fill="#F7941D" d="M583.9,131.8c2.7,0,4.6-0.2,5.7-0.8c1.1-0.5,1.7-1.6,1.7-3c0-1.2-0.7-2.2-2.2-3.1
					c-1.5-0.9-3.6-1.9-6.6-2.9c-2.3-0.8-4.4-1.7-6.2-2.7c-1.9-0.9-3.5-2-4.7-3.3c-1.3-1.3-2.3-2.8-3-4.6s-1-3.9-1-6.4
					c0-4.8,1.8-8.6,5.4-11.4c3.6-2.8,8.5-4.2,14.7-4.2c3.1,0,6.1,0.3,9,0.8c2.9,0.6,5.2,1.2,6.8,1.8l-2.6,11.3
					c-1.7-0.6-3.5-1.1-5.5-1.6c-2-0.4-4.2-0.7-6.7-0.7c-4.6,0-6.8,1.3-6.8,3.8c0,0.6,0.1,1.1,0.3,1.6c0.2,0.4,0.6,0.9,1.2,1.3
					c0.6,0.4,1.4,0.9,2.4,1.4c1,0.5,2.3,1,3.9,1.6c3.2,1.2,5.8,2.4,7.9,3.5c2.1,1.2,3.7,2.4,4.9,3.7c1.2,1.4,2.1,2.8,2.6,4.4
					c0.5,1.6,0.8,3.5,0.8,5.7c0,5.1-1.9,8.9-5.7,11.5c-3.8,2.6-9.2,3.9-16.1,3.9c-4.6,0-8.4-0.4-11.4-1.2c-3-0.8-5.1-1.5-6.3-2
					l2.5-11.8c2.5,1,5,1.8,7.6,2.3C578.8,131.5,581.3,131.8,583.9,131.8z"/>
				<path fill="#F7941D" d="M611.1,142.2V68.8l14.5-2.4v24.6c1-0.3,2.2-0.6,3.8-1s3-0.4,4.5-0.4c4.2,0,7.6,0.6,10.4,1.7
					c2.7,1.2,5,2.7,6.6,4.8c1.7,2.1,2.8,4.6,3.5,7.4c0.7,2.9,1,6.1,1,9.6v29h-14.5v-27.3c0-4.7-0.6-8-1.8-10c-1.2-2-3.5-2.9-6.7-2.9
					c-1.3,0-2.5,0.1-3.7,0.4s-2.2,0.4-3.1,0.8v39L611.1,142.2L611.1,142.2z"/>
			</g>
		</g>
		<g>
			<path fill="#4D4D4D" d="M289.1,202.9c-0.1-1.2-0.1-2.4-0.2-3.6s-0.2-2.3-0.3-3.5h-12.1c-0.6,1.1-1.3,2.3-2,3.5s-1.3,2.3-2,3.6
				H265c2-3.5,3.9-6.7,5.6-9.6c1.8-2.9,3.4-5.7,5.1-8.3s3.2-5.1,4.8-7.4c1.6-2.3,3.1-4.6,4.7-6.9h6.5c0.5,2.2,1,4.7,1.4,7.4
				c0.4,2.7,0.9,5.5,1.3,8.3c0.4,2.8,0.7,5.7,1.1,8.5c0.3,2.8,0.6,5.5,0.9,8H289.1z M286.9,177.7c-1.3,2.1-2.6,4.1-3.8,6.2
				c-1.3,2-2.5,4.1-3.6,6.3h8.7c-0.2-1.9-0.3-3.9-0.5-6C287.5,182,287.2,179.9,286.9,177.7z"/>
			<path fill="#4D4D4D" d="M323.3,201.5c-1.3,0.6-2.7,1.1-4.2,1.5c-1.6,0.4-3.4,0.6-5.7,0.6c-1.9,0-3.7-0.3-5.3-1
				c-1.6-0.6-3-1.5-4.1-2.7c-1.1-1.2-2-2.6-2.6-4.3c-0.6-1.7-0.9-3.6-0.9-5.7c0-2.4,0.4-4.8,1.3-7.2c0.9-2.4,2.1-4.5,3.8-6.4
				c1.7-1.9,3.7-3.4,6.1-4.6s5.2-1.8,8.3-1.8c1.5,0,3,0.2,4.4,0.5c1.4,0.3,3,0.9,4.5,1.8l-2.6,5.6c-1.3-0.7-2.5-1.1-3.5-1.4
				c-1-0.2-2.1-0.4-3.3-0.4c-1.8,0-3.4,0.4-4.8,1.1c-1.4,0.7-2.6,1.7-3.6,2.9c-1,1.2-1.8,2.6-2.3,4.3c-0.5,1.6-0.8,3.3-0.8,5.1
				c0,2.7,0.6,4.7,1.8,6s2.9,1.9,5.1,1.9c1.5,0,2.9-0.2,4.1-0.5c1.3-0.3,2.4-0.7,3.5-1.2L323.3,201.5z"/>
			<path fill="#4D4D4D" d="M351.4,201.5c-1.3,0.6-2.7,1.1-4.2,1.5c-1.6,0.4-3.4,0.6-5.7,0.6c-1.9,0-3.7-0.3-5.3-1
				c-1.6-0.6-3-1.5-4.1-2.7c-1.1-1.2-2-2.6-2.6-4.3c-0.6-1.7-0.9-3.6-0.9-5.7c0-2.4,0.4-4.8,1.3-7.2c0.9-2.4,2.1-4.5,3.8-6.4
				c1.7-1.9,3.7-3.4,6.1-4.6s5.2-1.8,8.3-1.8c1.5,0,3,0.2,4.4,0.5c1.4,0.3,3,0.9,4.5,1.8l-2.6,5.6c-1.3-0.7-2.5-1.1-3.5-1.4
				c-1-0.2-2.1-0.4-3.3-0.4c-1.8,0-3.4,0.4-4.8,1.1c-1.4,0.7-2.6,1.7-3.6,2.9c-1,1.2-1.8,2.6-2.3,4.3c-0.5,1.6-0.8,3.3-0.8,5.1
				c0,2.7,0.6,4.7,1.8,6s2.9,1.9,5.1,1.9c1.5,0,2.9-0.2,4.1-0.5c1.3-0.3,2.4-0.7,3.5-1.2L351.4,201.5z"/>
			<path fill="#4D4D4D" d="M355.4,202.9l7.7-32.2h21.1l-1.5,6h-13.8l-1.5,6.5h12.2l-1.4,5.9h-12.2l-1.9,7.9h14.9l-1.5,6H355.4z"/>
			<path fill="#4D4D4D" d="M398.9,170.3c2,0,3.7,0.2,5.3,0.6c1.6,0.4,2.9,1,4,1.8c1.1,0.8,1.9,1.8,2.5,2.9c0.6,1.1,0.9,2.4,0.9,3.9
				c0,2.3-0.5,4.3-1.3,5.9c-0.9,1.6-2.1,2.9-3.7,3.9c-1.6,1-3.4,1.7-5.6,2.1c-2.1,0.4-4.5,0.7-7,0.7h-1.8l-2.6,10.8h-7.2l7.6-31.8
				c1.7-0.3,3.3-0.5,4.8-0.7C396.2,170.4,397.6,170.3,398.9,170.3z M398.3,176.4c-0.5,0-1,0-1.3,0c-0.4,0-0.7,0.1-1.1,0.1l-2.2,9.5
				h1.8c1.3,0,2.5-0.1,3.6-0.3c1.1-0.2,2-0.5,2.7-1c0.8-0.5,1.3-1.1,1.8-1.8c0.4-0.7,0.6-1.6,0.6-2.7c0-1.4-0.5-2.4-1.5-3
				C401.6,176.7,400.2,176.4,398.3,176.4z"/>
			<path fill="#4D4D4D" d="M442.2,170.7l-1.5,6.1h-9.4l-6.3,26.1h-7.3l6.3-26.1h-9.4l1.5-6.1H442.2z"/>
			<path fill="#4D4D4D" d="M438.3,202.9l7.7-32.2h21.1l-1.5,6h-13.8l-1.5,6.5h12.2l-1.4,5.9h-12.2l-1.9,7.9h14.9l-1.5,6H438.3z"/>
			<path fill="#4D4D4D" d="M496.9,183.2c0,3.1-0.5,5.9-1.5,8.4s-2.5,4.6-4.4,6.3c-1.9,1.7-4.2,3-7,4c-2.7,0.9-5.8,1.4-9.3,1.4
				c-1.3,0-2.8-0.1-4.5-0.2c-1.7-0.2-3.3-0.4-4.9-0.7l7.5-31.1c1.8-0.3,3.5-0.6,5.1-0.7c1.6-0.1,3.1-0.2,4.4-0.2
				c2.3,0,4.3,0.3,6.2,0.9c1.8,0.6,3.3,1.5,4.6,2.7c1.3,1.1,2.2,2.5,2.9,4.1C496.5,179.6,496.9,181.3,496.9,183.2z M473.8,197.1
				c0.3,0,0.7,0.1,1,0.1c0.4,0,0.8,0,1.5,0c2,0,3.8-0.3,5.5-0.9c1.6-0.6,3-1.5,4.1-2.7c1.1-1.2,2-2.6,2.6-4.3
				c0.6-1.7,0.9-3.6,0.9-5.7c0-1.1-0.1-2.1-0.4-3c-0.3-0.9-0.7-1.6-1.4-2.3c-0.6-0.6-1.5-1.1-2.5-1.5c-1-0.3-2.2-0.5-3.6-0.5
				c-0.9,0-1.9,0-2.8,0.1L473.8,197.1z"/>
			<path fill="#4D4D4D" d="M535,170.7h7.3l-7.8,32.2h-7.3l3.3-13.7H519l-3.3,13.7h-7.2l7.7-32.2h7.3l-3,12.4H532L535,170.7z"/>
			<path fill="#4D4D4D" d="M541.1,202.9l7.7-32.2h21.1l-1.5,6h-13.8l-1.5,6.5h12.2l-1.4,5.9h-12.2l-1.9,7.9h14.9l-1.5,6H541.1z"/>
			<path fill="#4D4D4D" d="M584.8,170.3c2.1,0,3.9,0.2,5.4,0.7c1.6,0.5,2.8,1.2,3.9,2c1,0.8,1.8,1.8,2.3,3c0.5,1.1,0.7,2.3,0.7,3.6
				c0,1-0.1,2-0.3,3c-0.2,1-0.7,1.9-1.3,2.8c-0.6,0.9-1.5,1.7-2.6,2.5c-1.1,0.8-2.4,1.4-4.1,1.9c0.9,1.6,1.8,3.6,2.7,5.9
				c0.9,2.3,1.8,4.7,2.6,7.2h-7.8c-0.7-2.1-1.4-4.3-2.2-6.3c-0.7-2.1-1.5-3.9-2.4-5.4h-3.6l-2.8,11.8h-7.2l7.6-31.8
				c1.7-0.3,3.3-0.5,4.9-0.7C582.1,170.4,583.5,170.3,584.8,170.3z M584.6,176.4c-0.5,0-1.1,0-1.6,0c-0.6,0-1,0.1-1.4,0.1l-2.1,8.8
				h2.5c1.5,0,2.7-0.1,3.8-0.4s1.8-0.7,2.5-1.1c0.6-0.5,1.1-1,1.3-1.6c0.3-0.6,0.4-1.2,0.4-1.8c0-0.5-0.1-1-0.2-1.5
				c-0.2-0.5-0.4-0.9-0.8-1.3c-0.4-0.4-0.9-0.7-1.6-0.9C586.5,176.6,585.7,176.4,584.6,176.4z"/>
			<path fill="#4D4D4D" d="M597.9,202.9l7.7-32.2h21.1l-1.5,6h-13.8l-1.5,6.5h12.2l-1.4,5.9h-12.2l-1.9,7.9h14.9l-1.5,6H597.9z"/>
		</g>
	</g>
</g>
</svg>
