<?xml version="1.0" encoding="utf-8"?>
<!-- Generator: Adobe Illustrator 22.0.1, SVG Export Plug-In . SVG Version: 6.00 Build 0)  -->
<svg version="1.1" id="Layer_1" xmlns="http://www.w3.org/2000/svg" xmlns:xlink="http://www.w3.org/1999/xlink" x="0px" y="0px"
	 width="703.5px" height="270px" viewBox="0 0 703.5 270" style="enable-background:new 0 0 703.5 270;" xml:space="preserve">
<style type="text/css">
	.st0{fill:#F7941D;}
	.st1{clip-path:url(#SVGID_3_);fill:#F7941D;}
	.st2{clip-path:url(#SVGID_5_);fill:#F7941D;}
	.st3{clip-path:url(#SVGID_7_);fill:#F7941D;}
	.st4{clip-path:url(#SVGID_9_);fill:#F7941D;}
	.st5{clip-path:url(#SVGID_11_);fill:#F7941D;}
	.st6{clip-path:url(#SVGID_13_);fill:#F7941D;}
	.st7{clip-path:url(#SVGID_15_);fill:#F7941D;}
	.st8{clip-path:url(#SVGID_17_);fill:#F7941D;}
	.st9{clip-path:url(#SVGID_19_);fill:#F7941D;}
	.st10{clip-path:url(#SVGID_21_);fill:#F7941D;}
	.st11{clip-path:url(#SVGID_23_);fill:#F7941D;}
	.st12{clip-path:url(#SVGID_25_);fill:#F7941D;}
	.st13{clip-path:url(#SVGID_27_);fill:#F7941D;}
	.st14{clip-path:url(#SVGID_29_);fill:#F7941D;}
	.st15{clip-path:url(#SVGID_31_);fill:#F7941D;}
	.st16{clip-path:url(#SVGID_33_);fill:#F7941D;}
	.st17{clip-path:url(#SVGID_35_);fill:#F7941D;}
	.st18{clip-path:url(#SVGID_37_);fill:#F7941D;}
	.st19{clip-path:url(#SVGID_39_);fill:#F7941D;}
	.st20{clip-path:url(#SVGID_41_);fill:#F7941D;}
	.st21{clip-path:url(#SVGID_43_);fill:#F7941D;}
	.st22{clip-path:url(#SVGID_45_);fill:#F7941D;}
	.st23{clip-path:url(#SVGID_47_);fill:#F7941D;}
	.st24{clip-path:url(#SVGID_49_);fill:#F7941D;}
	.st25{clip-path:url(#SVGID_51_);fill:#F7941D;}
	.st26{clip-path:url(#SVGID_53_);fill:#F7941D;}
	.st27{clip-path:url(#SVGID_55_);fill:#F7941D;}
	.st28{clip-path:url(#SVGID_57_);fill:#F7941D;}
	.st29{clip-path:url(#SVGID_59_);fill:#F7941D;}
	.st30{clip-path:url(#SVGID_61_);fill:#F7941D;}
	.st31{clip-path:url(#SVGID_63_);fill:#F7941D;}
	.st32{clip-path:url(#SVGID_65_);fill:#F7941D;}
	.st33{clip-path:url(#SVGID_67_);fill:#F7941D;}
	.st34{clip-path:url(#SVGID_69_);fill:#F7941D;}
	.st35{clip-path:url(#SVGID_71_);fill:#F7941D;}
	.st36{clip-path:url(#SVGID_73_);fill:#F7941D;}
	.st37{clip-path:url(#SVGID_75_);fill:#F7941D;}
	.st38{clip-path:url(#SVGID_77_);fill:#F7941D;}
	.st39{clip-path:url(#SVGID_79_);fill:#F7941D;}
	.st40{clip-path:url(#SVGID_81_);fill:#F7941D;}
	.st41{clip-path:url(#SVGID_83_);fill:#F7941D;}
	.st42{fill:#FFFFFF;}
</style>
<g>
	<g>
		<g>
			<path id="SVGID_1_" class="st0" d="M637.3,262.3H66.2C34,262.3,7.7,236,7.7,203.8V66.2C7.7,34,34.1,7.7,66.2,7.7h571.1
				c32.2,0,58.5,26.3,58.5,58.5v137.6C695.8,236,669.5,262.3,637.3,262.3z"/>
		</g>
		<g>
			<defs>
				<path id="SVGID_2_" d="M637.3,262.3H66.2C34,262.3,7.7,236,7.7,203.8V66.2C7.7,34,34.1,7.7,66.2,7.7h571.1
					c32.2,0,58.5,26.3,58.5,58.5v137.6C695.8,236,669.5,262.3,637.3,262.3z"/>
			</defs>
			<clipPath id="SVGID_3_">
				<use xlink:href="#SVGID_2_"  style="overflow:visible;"/>
			</clipPath>
			<path class="st1" d="M695.8,7.7H7.7H695.8z"/>
		</g>
		<g>
			<defs>
				<path id="SVGID_4_" d="M637.3,262.3H66.2C34,262.3,7.7,236,7.7,203.8V66.2C7.7,34,34.1,7.7,66.2,7.7h571.1
					c32.2,0,58.5,26.3,58.5,58.5v137.6C695.8,236,669.5,262.3,637.3,262.3z"/>
			</defs>
			<clipPath id="SVGID_5_">
				<use xlink:href="#SVGID_4_"  style="overflow:visible;"/>
			</clipPath>
			<rect x="7.7" y="7.7" class="st2" width="688" height="6.5"/>
		</g>
		<g>
			<defs>
				<path id="SVGID_6_" d="M637.3,262.3H66.2C34,262.3,7.7,236,7.7,203.8V66.2C7.7,34,34.1,7.7,66.2,7.7h571.1
					c32.2,0,58.5,26.3,58.5,58.5v137.6C695.8,236,669.5,262.3,637.3,262.3z"/>
			</defs>
			<clipPath id="SVGID_7_">
				<use xlink:href="#SVGID_6_"  style="overflow:visible;"/>
			</clipPath>
			<rect x="7.7" y="14.2" class="st3" width="688" height="6.5"/>
		</g>
		<g>
			<defs>
				<path id="SVGID_8_" d="M637.3,262.3H66.2C34,262.3,7.7,236,7.7,203.8V66.2C7.7,34,34.1,7.7,66.2,7.7h571.1
					c32.2,0,58.5,26.3,58.5,58.5v137.6C695.8,236,669.5,262.3,637.3,262.3z"/>
			</defs>
			<clipPath id="SVGID_9_">
				<use xlink:href="#SVGID_8_"  style="overflow:visible;"/>
			</clipPath>
			<rect x="7.7" y="20.8" class="st4" width="688" height="6.5"/>
		</g>
		<g>
			<defs>
				<path id="SVGID_10_" d="M637.3,262.3H66.2C34,262.3,7.7,236,7.7,203.8V66.2C7.7,34,34.1,7.7,66.2,7.7h571.1
					c32.2,0,58.5,26.3,58.5,58.5v137.6C695.8,236,669.5,262.3,637.3,262.3z"/>
			</defs>
			<clipPath id="SVGID_11_">
				<use xlink:href="#SVGID_10_"  style="overflow:visible;"/>
			</clipPath>
			<rect x="7.7" y="27.3" class="st5" width="688" height="6.5"/>
		</g>
		<g>
			<defs>
				<path id="SVGID_12_" d="M637.3,262.3H66.2C34,262.3,7.7,236,7.7,203.8V66.2C7.7,34,34.1,7.7,66.2,7.7h571.1
					c32.2,0,58.5,26.3,58.5,58.5v137.6C695.8,236,669.5,262.3,637.3,262.3z"/>
			</defs>
			<clipPath id="SVGID_13_">
				<use xlink:href="#SVGID_12_"  style="overflow:visible;"/>
			</clipPath>
			<rect x="7.7" y="33.8" class="st6" width="688" height="6.5"/>
		</g>
		<g>
			<defs>
				<path id="SVGID_14_" d="M637.3,262.3H66.2C34,262.3,7.7,236,7.7,203.8V66.2C7.7,34,34.1,7.7,66.2,7.7h571.1
					c32.2,0,58.5,26.3,58.5,58.5v137.6C695.8,236,669.5,262.3,637.3,262.3z"/>
			</defs>
			<clipPath id="SVGID_15_">
				<use xlink:href="#SVGID_14_"  style="overflow:visible;"/>
			</clipPath>
			<rect x="7.7" y="40.4" class="st7" width="688" height="6.5"/>
		</g>
		<g>
			<defs>
				<path id="SVGID_16_" d="M637.3,262.3H66.2C34,262.3,7.7,236,7.7,203.8V66.2C7.7,34,34.1,7.7,66.2,7.7h571.1
					c32.2,0,58.5,26.3,58.5,58.5v137.6C695.8,236,669.5,262.3,637.3,262.3z"/>
			</defs>
			<clipPath id="SVGID_17_">
				<use xlink:href="#SVGID_16_"  style="overflow:visible;"/>
			</clipPath>
			<rect x="7.7" y="46.9" class="st8" width="688" height="6.5"/>
		</g>
		<g>
			<defs>
				<path id="SVGID_18_" d="M637.3,262.3H66.2C34,262.3,7.7,236,7.7,203.8V66.2C7.7,34,34.1,7.7,66.2,7.7h571.1
					c32.2,0,58.5,26.3,58.5,58.5v137.6C695.8,236,669.5,262.3,637.3,262.3z"/>
			</defs>
			<clipPath id="SVGID_19_">
				<use xlink:href="#SVGID_18_"  style="overflow:visible;"/>
			</clipPath>
			<rect x="7.7" y="53.4" class="st9" width="688" height="6.5"/>
		</g>
		<g>
			<defs>
				<path id="SVGID_20_" d="M637.3,262.3H66.2C34,262.3,7.7,236,7.7,203.8V66.2C7.7,34,34.1,7.7,66.2,7.7h571.1
					c32.2,0,58.5,26.3,58.5,58.5v137.6C695.8,236,669.5,262.3,637.3,262.3z"/>
			</defs>
			<clipPath id="SVGID_21_">
				<use xlink:href="#SVGID_20_"  style="overflow:visible;"/>
			</clipPath>
			<rect x="7.7" y="59.9" class="st10" width="688" height="6.5"/>
		</g>
		<g>
			<defs>
				<path id="SVGID_22_" d="M637.3,262.3H66.2C34,262.3,7.7,236,7.7,203.8V66.2C7.7,34,34.1,7.7,66.2,7.7h571.1
					c32.2,0,58.5,26.3,58.5,58.5v137.6C695.8,236,669.5,262.3,637.3,262.3z"/>
			</defs>
			<clipPath id="SVGID_23_">
				<use xlink:href="#SVGID_22_"  style="overflow:visible;"/>
			</clipPath>
			<rect x="7.7" y="66.5" class="st11" width="688" height="6.5"/>
		</g>
		<g>
			<defs>
				<path id="SVGID_24_" d="M637.3,262.3H66.2C34,262.3,7.7,236,7.7,203.8V66.2C7.7,34,34.1,7.7,66.2,7.7h571.1
					c32.2,0,58.5,26.3,58.5,58.5v137.6C695.8,236,669.5,262.3,637.3,262.3z"/>
			</defs>
			<clipPath id="SVGID_25_">
				<use xlink:href="#SVGID_24_"  style="overflow:visible;"/>
			</clipPath>
			<rect x="7.7" y="73" class="st12" width="688" height="6.5"/>
		</g>
		<g>
			<defs>
				<path id="SVGID_26_" d="M637.3,262.3H66.2C34,262.3,7.7,236,7.7,203.8V66.2C7.7,34,34.1,7.7,66.2,7.7h571.1
					c32.2,0,58.5,26.3,58.5,58.5v137.6C695.8,236,669.5,262.3,637.3,262.3z"/>
			</defs>
			<clipPath id="SVGID_27_">
				<use xlink:href="#SVGID_26_"  style="overflow:visible;"/>
			</clipPath>
			<rect x="7.7" y="79.5" class="st13" width="688" height="6.5"/>
		</g>
		<g>
			<defs>
				<path id="SVGID_28_" d="M637.3,262.3H66.2C34,262.3,7.7,236,7.7,203.8V66.2C7.7,34,34.1,7.7,66.2,7.7h571.1
					c32.2,0,58.5,26.3,58.5,58.5v137.6C695.8,236,669.5,262.3,637.3,262.3z"/>
			</defs>
			<clipPath id="SVGID_29_">
				<use xlink:href="#SVGID_28_"  style="overflow:visible;"/>
			</clipPath>
			<rect x="7.7" y="86" class="st14" width="688" height="6.5"/>
		</g>
		<g>
			<defs>
				<path id="SVGID_30_" d="M637.3,262.3H66.2C34,262.3,7.7,236,7.7,203.8V66.2C7.7,34,34.1,7.7,66.2,7.7h571.1
					c32.2,0,58.5,26.3,58.5,58.5v137.6C695.8,236,669.5,262.3,637.3,262.3z"/>
			</defs>
			<clipPath id="SVGID_31_">
				<use xlink:href="#SVGID_30_"  style="overflow:visible;"/>
			</clipPath>
			<rect x="7.7" y="92.6" class="st15" width="688" height="6.5"/>
		</g>
		<g>
			<defs>
				<path id="SVGID_32_" d="M637.3,262.3H66.2C34,262.3,7.7,236,7.7,203.8V66.2C7.7,34,34.1,7.7,66.2,7.7h571.1
					c32.2,0,58.5,26.3,58.5,58.5v137.6C695.8,236,669.5,262.3,637.3,262.3z"/>
			</defs>
			<clipPath id="SVGID_33_">
				<use xlink:href="#SVGID_32_"  style="overflow:visible;"/>
			</clipPath>
			<rect x="7.7" y="99.1" class="st16" width="688" height="6.5"/>
		</g>
		<g>
			<defs>
				<path id="SVGID_34_" d="M637.3,262.3H66.2C34,262.3,7.7,236,7.7,203.8V66.2C7.7,34,34.1,7.7,66.2,7.7h571.1
					c32.2,0,58.5,26.3,58.5,58.5v137.6C695.8,236,669.5,262.3,637.3,262.3z"/>
			</defs>
			<clipPath id="SVGID_35_">
				<use xlink:href="#SVGID_34_"  style="overflow:visible;"/>
			</clipPath>
			<rect x="7.7" y="105.6" class="st17" width="688" height="6.5"/>
		</g>
		<g>
			<defs>
				<path id="SVGID_36_" d="M637.3,262.3H66.2C34,262.3,7.7,236,7.7,203.8V66.2C7.7,34,34.1,7.7,66.2,7.7h571.1
					c32.2,0,58.5,26.3,58.5,58.5v137.6C695.8,236,669.5,262.3,637.3,262.3z"/>
			</defs>
			<clipPath id="SVGID_37_">
				<use xlink:href="#SVGID_36_"  style="overflow:visible;"/>
			</clipPath>
			<rect x="7.7" y="112.2" class="st18" width="688" height="6.5"/>
		</g>
		<g>
			<defs>
				<path id="SVGID_38_" d="M637.3,262.3H66.2C34,262.3,7.7,236,7.7,203.8V66.2C7.7,34,34.1,7.7,66.2,7.7h571.1
					c32.2,0,58.5,26.3,58.5,58.5v137.6C695.8,236,669.5,262.3,637.3,262.3z"/>
			</defs>
			<clipPath id="SVGID_39_">
				<use xlink:href="#SVGID_38_"  style="overflow:visible;"/>
			</clipPath>
			<rect x="7.7" y="118.7" class="st19" width="688" height="6.5"/>
		</g>
		<g>
			<defs>
				<path id="SVGID_40_" d="M637.3,262.3H66.2C34,262.3,7.7,236,7.7,203.8V66.2C7.7,34,34.1,7.7,66.2,7.7h571.1
					c32.2,0,58.5,26.3,58.5,58.5v137.6C695.8,236,669.5,262.3,637.3,262.3z"/>
			</defs>
			<clipPath id="SVGID_41_">
				<use xlink:href="#SVGID_40_"  style="overflow:visible;"/>
			</clipPath>
			<rect x="7.7" y="125.2" class="st20" width="688" height="6.5"/>
		</g>
		<g>
			<defs>
				<path id="SVGID_42_" d="M637.3,262.3H66.2C34,262.3,7.7,236,7.7,203.8V66.2C7.7,34,34.1,7.7,66.2,7.7h571.1
					c32.2,0,58.5,26.3,58.5,58.5v137.6C695.8,236,669.5,262.3,637.3,262.3z"/>
			</defs>
			<clipPath id="SVGID_43_">
				<use xlink:href="#SVGID_42_"  style="overflow:visible;"/>
			</clipPath>
			<rect x="7.7" y="131.7" class="st21" width="688" height="6.5"/>
		</g>
		<g>
			<defs>
				<path id="SVGID_44_" d="M637.3,262.3H66.2C34,262.3,7.7,236,7.7,203.8V66.2C7.7,34,34.1,7.7,66.2,7.7h571.1
					c32.2,0,58.5,26.3,58.5,58.5v137.6C695.8,236,669.5,262.3,637.3,262.3z"/>
			</defs>
			<clipPath id="SVGID_45_">
				<use xlink:href="#SVGID_44_"  style="overflow:visible;"/>
			</clipPath>
			<rect x="7.7" y="138.3" class="st22" width="688" height="6.5"/>
		</g>
		<g>
			<defs>
				<path id="SVGID_46_" d="M637.3,262.3H66.2C34,262.3,7.7,236,7.7,203.8V66.2C7.7,34,34.1,7.7,66.2,7.7h571.1
					c32.2,0,58.5,26.3,58.5,58.5v137.6C695.8,236,669.5,262.3,637.3,262.3z"/>
			</defs>
			<clipPath id="SVGID_47_">
				<use xlink:href="#SVGID_46_"  style="overflow:visible;"/>
			</clipPath>
			<rect x="7.7" y="144.8" class="st23" width="688" height="6.5"/>
		</g>
		<g>
			<defs>
				<path id="SVGID_48_" d="M637.3,262.3H66.2C34,262.3,7.7,236,7.7,203.8V66.2C7.7,34,34.1,7.7,66.2,7.7h571.1
					c32.2,0,58.5,26.3,58.5,58.5v137.6C695.8,236,669.5,262.3,637.3,262.3z"/>
			</defs>
			<clipPath id="SVGID_49_">
				<use xlink:href="#SVGID_48_"  style="overflow:visible;"/>
			</clipPath>
			<rect x="7.7" y="151.3" class="st24" width="688" height="6.5"/>
		</g>
		<g>
			<defs>
				<path id="SVGID_50_" d="M637.3,262.3H66.2C34,262.3,7.7,236,7.7,203.8V66.2C7.7,34,34.1,7.7,66.2,7.7h571.1
					c32.2,0,58.5,26.3,58.5,58.5v137.6C695.8,236,669.5,262.3,637.3,262.3z"/>
			</defs>
			<clipPath id="SVGID_51_">
				<use xlink:href="#SVGID_50_"  style="overflow:visible;"/>
			</clipPath>
			<rect x="7.7" y="157.8" class="st25" width="688" height="6.5"/>
		</g>
		<g>
			<defs>
				<path id="SVGID_52_" d="M637.3,262.3H66.2C34,262.3,7.7,236,7.7,203.8V66.2C7.7,34,34.1,7.7,66.2,7.7h571.1
					c32.2,0,58.5,26.3,58.5,58.5v137.6C695.8,236,669.5,262.3,637.3,262.3z"/>
			</defs>
			<clipPath id="SVGID_53_">
				<use xlink:href="#SVGID_52_"  style="overflow:visible;"/>
			</clipPath>
			<rect x="7.7" y="164.4" class="st26" width="688" height="6.5"/>
		</g>
		<g>
			<defs>
				<path id="SVGID_54_" d="M637.3,262.3H66.2C34,262.3,7.7,236,7.7,203.8V66.2C7.7,34,34.1,7.7,66.2,7.7h571.1
					c32.2,0,58.5,26.3,58.5,58.5v137.6C695.8,236,669.5,262.3,637.3,262.3z"/>
			</defs>
			<clipPath id="SVGID_55_">
				<use xlink:href="#SVGID_54_"  style="overflow:visible;"/>
			</clipPath>
			<rect x="7.7" y="170.9" class="st27" width="688" height="6.5"/>
		</g>
		<g>
			<defs>
				<path id="SVGID_56_" d="M637.3,262.3H66.2C34,262.3,7.7,236,7.7,203.8V66.2C7.7,34,34.1,7.7,66.2,7.7h571.1
					c32.2,0,58.5,26.3,58.5,58.5v137.6C695.8,236,669.5,262.3,637.3,262.3z"/>
			</defs>
			<clipPath id="SVGID_57_">
				<use xlink:href="#SVGID_56_"  style="overflow:visible;"/>
			</clipPath>
			<rect x="7.7" y="177.4" class="st28" width="688" height="6.5"/>
		</g>
		<g>
			<defs>
				<path id="SVGID_58_" d="M637.3,262.3H66.2C34,262.3,7.7,236,7.7,203.8V66.2C7.7,34,34.1,7.7,66.2,7.7h571.1
					c32.2,0,58.5,26.3,58.5,58.5v137.6C695.8,236,669.5,262.3,637.3,262.3z"/>
			</defs>
			<clipPath id="SVGID_59_">
				<use xlink:href="#SVGID_58_"  style="overflow:visible;"/>
			</clipPath>
			<rect x="7.7" y="184" class="st29" width="688" height="6.5"/>
		</g>
		<g>
			<defs>
				<path id="SVGID_60_" d="M637.3,262.3H66.2C34,262.3,7.7,236,7.7,203.8V66.2C7.7,34,34.1,7.7,66.2,7.7h571.1
					c32.2,0,58.5,26.3,58.5,58.5v137.6C695.8,236,669.5,262.3,637.3,262.3z"/>
			</defs>
			<clipPath id="SVGID_61_">
				<use xlink:href="#SVGID_60_"  style="overflow:visible;"/>
			</clipPath>
			<rect x="7.7" y="190.5" class="st30" width="688" height="6.5"/>
		</g>
		<g>
			<defs>
				<path id="SVGID_62_" d="M637.3,262.3H66.2C34,262.3,7.7,236,7.7,203.8V66.2C7.7,34,34.1,7.7,66.2,7.7h571.1
					c32.2,0,58.5,26.3,58.5,58.5v137.6C695.8,236,669.5,262.3,637.3,262.3z"/>
			</defs>
			<clipPath id="SVGID_63_">
				<use xlink:href="#SVGID_62_"  style="overflow:visible;"/>
			</clipPath>
			<rect x="7.7" y="197" class="st31" width="688" height="6.5"/>
		</g>
		<g>
			<defs>
				<path id="SVGID_64_" d="M637.3,262.3H66.2C34,262.3,7.7,236,7.7,203.8V66.2C7.7,34,34.1,7.7,66.2,7.7h571.1
					c32.2,0,58.5,26.3,58.5,58.5v137.6C695.8,236,669.5,262.3,637.3,262.3z"/>
			</defs>
			<clipPath id="SVGID_65_">
				<use xlink:href="#SVGID_64_"  style="overflow:visible;"/>
			</clipPath>
			<rect x="7.7" y="203.5" class="st32" width="688" height="6.5"/>
		</g>
		<g>
			<defs>
				<path id="SVGID_66_" d="M637.3,262.3H66.2C34,262.3,7.7,236,7.7,203.8V66.2C7.7,34,34.1,7.7,66.2,7.7h571.1
					c32.2,0,58.5,26.3,58.5,58.5v137.6C695.8,236,669.5,262.3,637.3,262.3z"/>
			</defs>
			<clipPath id="SVGID_67_">
				<use xlink:href="#SVGID_66_"  style="overflow:visible;"/>
			</clipPath>
			<rect x="7.7" y="210.1" class="st33" width="688" height="6.5"/>
		</g>
		<g>
			<defs>
				<path id="SVGID_68_" d="M637.3,262.3H66.2C34,262.3,7.7,236,7.7,203.8V66.2C7.7,34,34.1,7.7,66.2,7.7h571.1
					c32.2,0,58.5,26.3,58.5,58.5v137.6C695.8,236,669.5,262.3,637.3,262.3z"/>
			</defs>
			<clipPath id="SVGID_69_">
				<use xlink:href="#SVGID_68_"  style="overflow:visible;"/>
			</clipPath>
			<rect x="7.7" y="216.6" class="st34" width="688" height="6.5"/>
		</g>
		<g>
			<defs>
				<path id="SVGID_70_" d="M637.3,262.3H66.2C34,262.3,7.7,236,7.7,203.8V66.2C7.7,34,34.1,7.7,66.2,7.7h571.1
					c32.2,0,58.5,26.3,58.5,58.5v137.6C695.8,236,669.5,262.3,637.3,262.3z"/>
			</defs>
			<clipPath id="SVGID_71_">
				<use xlink:href="#SVGID_70_"  style="overflow:visible;"/>
			</clipPath>
			<rect x="7.7" y="223.1" class="st35" width="688" height="6.5"/>
		</g>
		<g>
			<defs>
				<path id="SVGID_72_" d="M637.3,262.3H66.2C34,262.3,7.7,236,7.7,203.8V66.2C7.7,34,34.1,7.7,66.2,7.7h571.1
					c32.2,0,58.5,26.3,58.5,58.5v137.6C695.8,236,669.5,262.3,637.3,262.3z"/>
			</defs>
			<clipPath id="SVGID_73_">
				<use xlink:href="#SVGID_72_"  style="overflow:visible;"/>
			</clipPath>
			<rect x="7.7" y="229.6" class="st36" width="688" height="6.5"/>
		</g>
		<g>
			<defs>
				<path id="SVGID_74_" d="M637.3,262.3H66.2C34,262.3,7.7,236,7.7,203.8V66.2C7.7,34,34.1,7.7,66.2,7.7h571.1
					c32.2,0,58.5,26.3,58.5,58.5v137.6C695.8,236,669.5,262.3,637.3,262.3z"/>
			</defs>
			<clipPath id="SVGID_75_">
				<use xlink:href="#SVGID_74_"  style="overflow:visible;"/>
			</clipPath>
			<rect x="7.7" y="236.2" class="st37" width="688" height="6.5"/>
		</g>
		<g>
			<defs>
				<path id="SVGID_76_" d="M637.3,262.3H66.2C34,262.3,7.7,236,7.7,203.8V66.2C7.7,34,34.1,7.7,66.2,7.7h571.1
					c32.2,0,58.5,26.3,58.5,58.5v137.6C695.8,236,669.5,262.3,637.3,262.3z"/>
			</defs>
			<clipPath id="SVGID_77_">
				<use xlink:href="#SVGID_76_"  style="overflow:visible;"/>
			</clipPath>
			<rect x="7.7" y="242.7" class="st38" width="688" height="6.5"/>
		</g>
		<g>
			<defs>
				<path id="SVGID_78_" d="M637.3,262.3H66.2C34,262.3,7.7,236,7.7,203.8V66.2C7.7,34,34.1,7.7,66.2,7.7h571.1
					c32.2,0,58.5,26.3,58.5,58.5v137.6C695.8,236,669.5,262.3,637.3,262.3z"/>
			</defs>
			<clipPath id="SVGID_79_">
				<use xlink:href="#SVGID_78_"  style="overflow:visible;"/>
			</clipPath>
			<rect x="7.7" y="249.2" class="st39" width="688" height="6.5"/>
		</g>
		<g>
			<defs>
				<path id="SVGID_80_" d="M637.3,262.3H66.2C34,262.3,7.7,236,7.7,203.8V66.2C7.7,34,34.1,7.7,66.2,7.7h571.1
					c32.2,0,58.5,26.3,58.5,58.5v137.6C695.8,236,669.5,262.3,637.3,262.3z"/>
			</defs>
			<clipPath id="SVGID_81_">
				<use xlink:href="#SVGID_80_"  style="overflow:visible;"/>
			</clipPath>
			<rect x="7.7" y="255.8" class="st40" width="688" height="6.5"/>
		</g>
		<g>
			<defs>
				<path id="SVGID_82_" d="M637.3,262.3H66.2C34,262.3,7.7,236,7.7,203.8V66.2C7.7,34,34.1,7.7,66.2,7.7h571.1
					c32.2,0,58.5,26.3,58.5,58.5v137.6C695.8,236,669.5,262.3,637.3,262.3z"/>
			</defs>
			<clipPath id="SVGID_83_">
				<use xlink:href="#SVGID_82_"  style="overflow:visible;"/>
			</clipPath>
			<path class="st41" d="M7.7,262.3h688H7.7z"/>
		</g>
	</g>
	<g>
		<g>
			<g>
				<g>
					<path class="st42" d="M196.2,143.1c-3.7,0-7.4-0.1-11.1-0.4c-3.7-0.2-7.5-0.8-11.5-1.6V75.5c3.1-0.6,6.6-1,10.3-1.3
						s7.2-0.4,10.4-0.4c4.3,0,8.3,0.3,11.9,1c3.6,0.6,6.7,1.7,9.3,3.1c2.6,1.5,4.7,3.5,6.1,5.9c1.5,2.5,2.2,5.5,2.2,9
						c0,5.4-2.6,9.7-7.8,12.8c4.3,1.6,7.2,3.9,8.8,6.6c1.6,2.8,2.4,6,2.4,9.5c0,7.1-2.6,12.4-7.8,16
						C214.1,141.3,206.5,143.1,196.2,143.1z M188.5,101.1h7.4c4.7,0,8-0.6,10.1-1.8c2-1.2,3-3.1,3-5.8c0-2.7-1-4.7-3.1-5.8
						c-2.1-1.1-5.2-1.7-9.2-1.7c-1.3,0-2.7,0-4.2,0s-2.8,0.1-4,0.2C188.5,86.4,188.5,101.1,188.5,101.1z M188.5,112.8v17.5
						c1.1,0.2,2.3,0.2,3.6,0.3s2.7,0.1,4.3,0.1c4.6,0,8.2-0.6,11-2c2.8-1.3,4.2-3.7,4.2-7.2c0-3.1-1.2-5.4-3.5-6.7
						c-2.4-1.4-5.7-2-10.1-2L188.5,112.8L188.5,112.8L188.5,112.8z"/>
					<path class="st42" d="M248.8,76c0,2.7-0.8,4.8-2.6,6.3c-1.7,1.6-3.8,2.3-6.1,2.3s-4.4-0.8-6.1-2.3c-1.7-1.6-2.6-3.6-2.6-6.3
						c0-2.7,0.8-4.8,2.6-6.3c1.7-1.5,3.8-2.3,6.1-2.3s4.4,0.8,6.1,2.3C248,71.3,248.8,73.4,248.8,76z M247.5,142.2H233V90.8h14.5
						V142.2z"/>
					<path class="st42" d="M255.3,78.1l14.5-2.4v15.1h17.5V103h-17.5v18c0,3.1,0.6,5.5,1.6,7.3s3.3,2.7,6.5,2.7
						c1.6,0,3.1-0.2,4.8-0.4c1.7-0.3,3.1-0.7,4.6-1.2l2.1,11.3c-1.8,0.7-3.7,1.4-5.9,1.9c-2.2,0.5-4.8,0.8-7.9,0.8
						c-4,0-7.3-0.6-9.9-1.6s-4.7-2.6-6.3-4.5c-1.6-1.9-2.7-4.3-3.3-7c-0.6-2.7-1-5.8-1-9.1L255.3,78.1L255.3,78.1z"/>
					<path class="st42" d="M289.3,116.5c0-3.7,0.6-7.2,1.8-10.5c1.2-3.3,2.9-6.2,5.2-8.6c2.3-2.5,5.1-4.4,8.3-5.8
						c3.3-1.5,7-2.2,11.1-2.2c2.7,0,5.3,0.2,7.5,0.8c2.3,0.5,4.5,1.2,6.6,2.1l-3,11.6c-1.4-0.5-2.9-1-4.5-1.4s-3.5-0.6-5.5-0.6
						c-4.3,0-7.5,1.4-9.6,4c-2.1,2.7-3.1,6.2-3.1,10.5c0,4.6,1,8.2,2.9,10.7c2,2.6,5.5,3.8,10.4,3.8c1.8,0,3.7-0.2,5.7-0.5
						s3.9-0.8,5.6-1.6l2.1,11.9c-1.7,0.7-3.8,1.4-6.4,1.9s-5.4,0.8-8.4,0.8c-4.7,0-8.7-0.7-12.1-2.1c-3.4-1.4-6.2-3.3-8.4-5.7
						s-3.8-5.3-4.8-8.5C289.9,123.9,289.3,120.4,289.3,116.5z"/>
					<path class="st42" d="M380.8,116.5c0,4.1-0.6,7.7-1.8,11.1s-2.9,6.2-5.1,8.6s-4.9,4.2-8,5.5s-6.6,2-10.4,2s-7.2-0.6-10.3-2
						s-5.8-3.1-8-5.5s-4-5.3-5.2-8.6c-1.3-3.4-1.9-7.1-1.9-11.1c0-4.1,0.6-7.7,1.9-11s3-6.2,5.3-8.5c2.3-2.4,4.9-4.2,8-5.5
						s6.5-2,10.1-2c3.7,0,7.1,0.6,10.2,2c3.1,1.3,5.8,3.1,8,5.5s4,5.2,5.2,8.5C380.2,108.7,380.8,112.4,380.8,116.5z M366,116.5
						c0-4.5-0.9-8-2.7-10.6c-1.8-2.6-4.4-3.9-7.7-3.9c-3.3,0-5.9,1.3-7.7,3.9c-1.8,2.6-2.7,6.1-2.7,10.6s0.9,8.1,2.7,10.7
						c1.8,2.7,4.4,4,7.7,4c3.3,0,5.9-1.3,7.7-4S366,120.9,366,116.5z"/>
					<path class="st42" d="M402.6,76c0,2.7-0.8,4.8-2.6,6.3c-1.7,1.6-3.8,2.3-6.1,2.3c-2.4,0-4.4-0.8-6.1-2.3
						c-1.7-1.6-2.6-3.6-2.6-6.3c0-2.7,0.8-4.8,2.6-6.3c1.7-1.5,3.8-2.3,6.1-2.3c2.4,0,4.4,0.8,6.1,2.3
						C401.7,71.3,402.6,73.4,402.6,76z M401.2,142.2h-14.5V90.8h14.5V142.2z"/>
					<path class="st42" d="M409.5,92.6c2.5-0.7,5.7-1.4,9.6-2s8-1,12.3-1c4.4,0,8,0.6,10.9,1.7c2.9,1.2,5.2,2.7,6.9,4.8
						c1.7,2.1,2.9,4.6,3.6,7.4c0.7,2.9,1,6.1,1,9.6v29h-14.5v-27.3c0-4.7-0.6-8-1.9-10s-3.6-2.9-6.9-2.9c-1,0-2.2,0-3.3,0.2
						s-2.2,0.2-3.1,0.4v39.6h-14.5L409.5,92.6L409.5,92.6z"/>
					<path class="st42" d="M493.5,143.6c-11,0-19.4-3.1-25.1-9.2c-5.8-6.1-8.6-14.8-8.6-26.1c0-5.6,0.9-10.6,2.7-15
						c1.8-4.4,4.2-8.1,7.2-11.1c3.1-3,6.7-5.3,10.9-6.9c4.2-1.6,8.8-2.4,13.8-2.4c2.9,0,5.5,0.2,7.8,0.6c2.4,0.4,4.4,0.9,6.2,1.5
						c1.8,0.6,3.2,1.1,4.4,1.7c1.2,0.6,2,1,2.6,1.4L511,90.4c-2.1-1.1-4.5-2.1-7.3-2.8c-2.7-0.8-5.9-1.2-9.4-1.2
						c-2.4,0-4.7,0.4-6.9,1.2c-2.3,0.8-4.2,2.1-6,3.8c-1.7,1.7-3.1,4-4.2,6.7c-1,2.7-1.6,6.1-1.6,10c0,3.1,0.4,6,1,8.7
						c0.7,2.7,1.8,5,3.3,7c1.6,2,3.5,3.5,6,4.7s5.5,1.7,9,1.7c2.2,0,4.2-0.2,6-0.4s3.3-0.6,4.7-1c1.4-0.4,2.6-0.8,3.6-1.2
						c1-0.4,2-0.9,2.8-1.3l4.2,12.2c-2.2,1.3-5.2,2.5-9.1,3.5C503.2,143.1,498.6,143.6,493.5,143.6z"/>
					<path class="st42" d="M539,89.5c4.3,0,7.9,0.5,10.7,1.5s5.2,2.4,6.9,4.2c1.7,1.8,2.9,4.1,3.7,6.6c0.7,2.6,1,5.5,1,8.7v30.3
						c-2.1,0.4-5,1-8.7,1.6s-8.2,1-13.5,1c-3.3,0-6.3-0.3-9-0.9c-2.7-0.6-5-1.6-7-2.9c-2-1.4-3.5-3.1-4.5-5.2
						c-1-2.2-1.6-4.8-1.6-7.9c0-3,0.6-5.5,1.8-7.6s2.8-3.8,4.8-5c2-1.3,4.3-2.2,6.9-2.7c2.6-0.6,5.3-0.8,8.1-0.8
						c1.9,0,3.6,0.1,5,0.2c1.5,0.2,2.7,0.4,3.6,0.6v-1.4c0-2.5-0.8-4.5-2.3-6s-4.1-2.3-7.8-2.3c-2.5,0-4.9,0.2-7.3,0.6
						c-2.4,0.4-4.5,0.8-6.3,1.5l-1.9-11.7c0.8-0.2,1.9-0.6,3.1-0.8c1.3-0.3,2.7-0.6,4.2-0.8c1.5-0.2,3.1-0.4,4.7-0.6
						C535.6,89.6,537.3,89.5,539,89.5z M540.1,132c1.5,0,2.8,0,4.1-0.1c1.3,0,2.4-0.2,3.1-0.3v-11c-0.6-0.2-1.5-0.2-2.7-0.4
						c-1.2-0.2-2.3-0.2-3.2-0.2c-1.4,0-2.7,0.1-3.9,0.2c-1.2,0.2-2.3,0.4-3.1,1c-0.9,0.4-1.6,1-2.2,1.9c-0.5,0.8-0.8,1.8-0.8,2.9
						c0,2.3,0.8,3.9,2.3,4.7C535.4,131.6,537.5,132,540.1,132z"/>
					<path class="st42" d="M583.9,131.8c2.7,0,4.6-0.2,5.7-0.8c1.1-0.5,1.7-1.6,1.7-3c0-1.2-0.7-2.2-2.2-3.1s-3.6-1.9-6.6-2.9
						c-2.3-0.8-4.4-1.7-6.2-2.7c-1.9-0.9-3.5-2-4.7-3.3c-1.3-1.3-2.3-2.8-3-4.6s-1-3.9-1-6.4c0-4.8,1.8-8.6,5.4-11.4
						s8.5-4.2,14.7-4.2c3.1,0,6.1,0.3,9,0.8c2.9,0.6,5.2,1.2,6.8,1.8l-2.6,11.3c-1.7-0.6-3.5-1.1-5.5-1.6c-2-0.4-4.2-0.7-6.7-0.7
						c-4.6,0-6.8,1.3-6.8,3.8c0,0.6,0.1,1.1,0.3,1.6s0.6,0.9,1.2,1.3c0.6,0.4,1.4,0.9,2.4,1.4s2.3,1,3.9,1.6
						c3.2,1.2,5.8,2.4,7.9,3.5c2.1,1.2,3.7,2.4,4.9,3.7c1.2,1.4,2.1,2.8,2.6,4.4s0.8,3.5,0.8,5.7c0,5.1-1.9,8.9-5.7,11.5
						s-9.2,3.9-16.1,3.9c-4.6,0-8.4-0.4-11.4-1.2s-5.1-1.5-6.3-2l2.5-11.8c2.5,1,5,1.8,7.6,2.3C578.8,131.5,581.3,131.8,583.9,131.8
						z"/>
					<path class="st42" d="M611.1,142.2V68.8l14.5-2.4V91c1-0.3,2.2-0.6,3.8-1s3-0.4,4.5-0.4c4.2,0,7.6,0.6,10.4,1.7s5,2.7,6.6,4.8
						c1.7,2.1,2.8,4.6,3.5,7.4c0.7,2.9,1,6.1,1,9.6v29h-14.5v-27.3c0-4.7-0.6-8-1.8-10s-3.5-2.9-6.7-2.9c-1.3,0-2.5,0.1-3.7,0.4
						c-1.2,0.2-2.2,0.4-3.1,0.8v39L611.1,142.2L611.1,142.2z"/>
				</g>
			</g>
			<g>
				<path class="st42" d="M289.1,202.9c-0.1-1.2-0.1-2.4-0.2-3.6s-0.2-2.3-0.3-3.5h-12.1c-0.6,1.1-1.3,2.3-2,3.5s-1.3,2.3-2,3.6H265
					c2-3.5,3.9-6.7,5.6-9.6c1.8-2.9,3.4-5.7,5.1-8.3s3.2-5.1,4.8-7.4c1.6-2.3,3.1-4.6,4.7-6.9h6.5c0.5,2.2,1,4.7,1.4,7.4
					s0.9,5.5,1.3,8.3s0.7,5.7,1.1,8.5c0.3,2.8,0.6,5.5,0.9,8H289.1z M286.9,177.7c-1.3,2.1-2.6,4.1-3.8,6.2c-1.3,2-2.5,4.1-3.6,6.3
					h8.7c-0.2-1.9-0.3-3.9-0.5-6C287.5,182,287.2,179.9,286.9,177.7z"/>
				<path class="st42" d="M323.3,201.5c-1.3,0.6-2.7,1.1-4.2,1.5c-1.6,0.4-3.4,0.6-5.7,0.6c-1.9,0-3.7-0.3-5.3-1
					c-1.6-0.6-3-1.5-4.1-2.7s-2-2.6-2.6-4.3s-0.9-3.6-0.9-5.7c0-2.4,0.4-4.8,1.3-7.2s2.1-4.5,3.8-6.4c1.7-1.9,3.7-3.4,6.1-4.6
					s5.2-1.8,8.3-1.8c1.5,0,3,0.2,4.4,0.5s3,0.9,4.5,1.8l-2.6,5.6c-1.3-0.7-2.5-1.1-3.5-1.4c-1-0.2-2.1-0.4-3.3-0.4
					c-1.8,0-3.4,0.4-4.8,1.1c-1.4,0.7-2.6,1.7-3.6,2.9s-1.8,2.6-2.3,4.3c-0.5,1.6-0.8,3.3-0.8,5.1c0,2.7,0.6,4.7,1.8,6
					c1.2,1.2,2.9,1.9,5.1,1.9c1.5,0,2.9-0.2,4.1-0.5c1.3-0.3,2.4-0.7,3.5-1.2L323.3,201.5z"/>
				<path class="st42" d="M351.4,201.5c-1.3,0.6-2.7,1.1-4.2,1.5c-1.6,0.4-3.4,0.6-5.7,0.6c-1.9,0-3.7-0.3-5.3-1
					c-1.6-0.6-3-1.5-4.1-2.7s-2-2.6-2.6-4.3s-0.9-3.6-0.9-5.7c0-2.4,0.4-4.8,1.3-7.2s2.1-4.5,3.8-6.4c1.7-1.9,3.7-3.4,6.1-4.6
					s5.2-1.8,8.3-1.8c1.5,0,3,0.2,4.4,0.5s3,0.9,4.5,1.8l-2.6,5.6c-1.3-0.7-2.5-1.1-3.5-1.4c-1-0.2-2.1-0.4-3.3-0.4
					c-1.8,0-3.4,0.4-4.8,1.1c-1.4,0.7-2.6,1.7-3.6,2.9s-1.8,2.6-2.3,4.3c-0.5,1.6-0.8,3.3-0.8,5.1c0,2.7,0.6,4.7,1.8,6
					s2.9,1.9,5.1,1.9c1.5,0,2.9-0.2,4.1-0.5c1.3-0.3,2.4-0.7,3.5-1.2L351.4,201.5z"/>
				<path class="st42" d="M355.4,202.9l7.7-32.2h21.1l-1.5,6h-13.8l-1.5,6.5h12.2l-1.4,5.9H366l-1.9,7.9H379l-1.5,6h-22.1V202.9z"/>
				<path class="st42" d="M398.9,170.3c2,0,3.7,0.2,5.3,0.6c1.6,0.4,2.9,1,4,1.8s1.9,1.8,2.5,2.9c0.6,1.1,0.9,2.4,0.9,3.9
					c0,2.3-0.5,4.3-1.3,5.9c-0.9,1.6-2.1,2.9-3.7,3.9s-3.4,1.7-5.6,2.1c-2.1,0.4-4.5,0.7-7,0.7h-1.8l-2.6,10.8h-7.2l7.6-31.8
					c1.7-0.3,3.3-0.5,4.8-0.7C396.2,170.4,397.6,170.3,398.9,170.3z M398.3,176.4c-0.5,0-1,0-1.3,0c-0.4,0-0.7,0.1-1.1,0.1l-2.2,9.5
					h1.8c1.3,0,2.5-0.1,3.6-0.3s2-0.5,2.7-1c0.8-0.5,1.3-1.1,1.8-1.8c0.4-0.7,0.6-1.6,0.6-2.7c0-1.4-0.5-2.4-1.5-3
					C401.6,176.7,400.2,176.4,398.3,176.4z"/>
				<path class="st42" d="M442.2,170.7l-1.5,6.1h-9.4l-6.3,26.1h-7.3l6.3-26.1h-9.4l1.5-6.1H442.2z"/>
				<path class="st42" d="M438.3,202.9l7.7-32.2h21.1l-1.5,6h-13.8l-1.5,6.5h12.2l-1.4,5.9h-12.2L447,197h14.9l-1.5,6h-22.1V202.9z"
					/>
				<path class="st42" d="M496.9,183.2c0,3.1-0.5,5.9-1.5,8.4s-2.5,4.6-4.4,6.3s-4.2,3-7,4c-2.7,0.9-5.8,1.4-9.3,1.4
					c-1.3,0-2.8-0.1-4.5-0.2c-1.7-0.2-3.3-0.4-4.9-0.7l7.5-31.1c1.8-0.3,3.5-0.6,5.1-0.7c1.6-0.1,3.1-0.2,4.4-0.2
					c2.3,0,4.3,0.3,6.2,0.9c1.8,0.6,3.3,1.5,4.6,2.7c1.3,1.1,2.2,2.5,2.9,4.1C496.5,179.6,496.9,181.3,496.9,183.2z M473.8,197.1
					c0.3,0,0.7,0.1,1,0.1s0.8,0,1.5,0c2,0,3.8-0.3,5.5-0.9s3-1.5,4.1-2.7s2-2.6,2.6-4.3s0.9-3.6,0.9-5.7c0-1.1-0.1-2.1-0.4-3
					s-0.7-1.6-1.4-2.3s-1.5-1.1-2.5-1.5c-1-0.3-2.2-0.5-3.6-0.5c-0.9,0-1.9,0-2.8,0.1L473.8,197.1z"/>
				<path class="st42" d="M535,170.7h7.3l-7.8,32.2h-7.3l3.3-13.7h-11.4l-3.3,13.7h-7.2l7.7-32.2h7.3l-3,12.4H532L535,170.7z"/>
				<path class="st42" d="M541.1,202.9l7.7-32.2h21.1l-1.5,6h-13.8l-1.5,6.5h12.2l-1.4,5.9h-12.2l-1.9,7.9h14.9l-1.5,6h-22.1V202.9z
					"/>
				<path class="st42" d="M584.8,170.3c2.1,0,3.9,0.2,5.4,0.7c1.6,0.5,2.8,1.2,3.9,2c1,0.8,1.8,1.8,2.3,3c0.5,1.1,0.7,2.3,0.7,3.6
					c0,1-0.1,2-0.3,3s-0.7,1.9-1.3,2.8s-1.5,1.7-2.6,2.5s-2.4,1.4-4.1,1.9c0.9,1.6,1.8,3.6,2.7,5.9c0.9,2.3,1.8,4.7,2.6,7.2h-7.8
					c-0.7-2.1-1.4-4.3-2.2-6.3c-0.7-2.1-1.5-3.9-2.4-5.4h-3.6l-2.8,11.8h-7.2l7.6-31.8c1.7-0.3,3.3-0.5,4.9-0.7
					C582.1,170.4,583.5,170.3,584.8,170.3z M584.6,176.4c-0.5,0-1.1,0-1.6,0c-0.6,0-1,0.1-1.4,0.1l-2.1,8.8h2.5
					c1.5,0,2.7-0.1,3.8-0.4c1-0.3,1.8-0.7,2.5-1.1c0.6-0.5,1.1-1,1.3-1.6c0.3-0.6,0.4-1.2,0.4-1.8c0-0.5-0.1-1-0.2-1.5
					s-0.4-0.9-0.8-1.3c-0.4-0.4-0.9-0.7-1.6-0.9C586.5,176.6,585.7,176.4,584.6,176.4z"/>
				<path class="st42" d="M597.9,202.9l7.7-32.2h21.1l-1.5,6h-13.8l-1.5,6.5h12.2l-1.4,5.9h-12.2l-1.9,7.9h14.9l-1.5,6h-22.1V202.9z
					"/>
			</g>
		</g>
		<g>
			<g>
				<g>
					<path class="st42" d="M129.413,143.428c11.002-7.719,18.191-20.497,18.191-34.958s-7.189-27.251-18.191-34.97H161.5v69.928
						H129.413L129.413,143.428z"/>
					<path class="st42" d="M62.239,108.458c0,14.461,7.189,27.239,18.191,34.958H48.307V73.5h32.122
						C69.428,81.219,62.239,93.997,62.239,108.458z"/>
				</g>
				<g>
					<path class="st42" d="M108.699,103.136l0.022-0.031l0.012-0.014l0.016-0.02l0.006-0.011l0.016-0.02l0.006-0.011l0.016-0.02
						l0.006-0.011l0.016-0.02l0.006-0.011l0.013-0.019l0.006-0.011l0.013-0.019l0.006-0.011l0.013-0.019l0.006-0.011l0.013-0.019
						l0.006-0.011l0.013-0.019l0.006-0.011l0.013-0.019l0.006-0.011l0.013-0.019l0.006-0.011l0.013-0.019l0.006-0.011l0.01-0.017
						l0.006-0.011l0.01-0.017l0.006-0.011l0.01-0.017l0.006-0.011l0.01-0.017l0.003-0.009l0.01-0.017l0.003-0.009l0.01-0.017
						l0.003-0.009l0.01-0.017l0.003-0.009l0.01-0.017l0.003-0.009l0.01-0.017l0.003-0.009l0.007-0.016l0.003-0.009l0.01-0.017
						l0.013-0.026l0.024-0.056c0.277-0.618,0.35-1.31,0.211-1.973l-0.005-0.009c-0.007-0.02-0.012-0.036-0.014-0.055l-0.002-0.003
						l-0.01-0.018c-0.003-0.034-0.008-0.058-0.015-0.085c-0.007-0.027-0.015-0.05-0.022-0.077l-0.01-0.018l-0.002-0.003
						c-0.005-0.017-0.012-0.036-0.017-0.053l-0.005-0.009c-0.198-0.65-0.595-1.221-1.136-1.628c-0.017-0.01-0.033-0.025-0.05-0.035
						l-0.023-0.015l-0.017-0.01l-0.006-0.004l-0.014-0.012l-0.006-0.004l-0.017-0.01l-0.006-0.004l-0.017-0.01l-0.006-0.004
						l-0.017-0.01l-0.006-0.004l-0.017-0.01l-0.008-0.007l-0.017-0.01l-0.011-0.006l-0.017-0.01l-0.011-0.006l-0.017-0.01
						l-0.011-0.006l-0.017-0.01l-0.011-0.006l-0.017-0.01l-0.011-0.006l-0.019-0.013l-0.011-0.006l-0.019-0.013l-0.011-0.006
						l-0.019-0.013l-0.011-0.006l-0.022-0.012l-0.011-0.006l-0.022-0.011l-0.011-0.006l-0.022-0.012l-0.011-0.006l-0.022-0.012
						l-0.011-0.006l-0.022-0.012l-0.011-0.006l-0.022-0.012l-0.011-0.006l-0.022-0.011l-0.011-0.006l-0.022-0.012l-0.011-0.006
						l-0.022-0.012l-0.016-0.007l-0.036-0.016c-1.058-0.509-2.413-0.646-3.788-0.294c-0.865,0.225-3.488,0.883-4.122,1.046
						l1.959,7.56c0.634-0.163,3.25-0.849,4.116-1.071C106.894,104.868,108.015,104.094,108.699,103.136z"/>
					<path class="st42" d="M104.904,73.507c-19.294,0-34.934,15.641-34.934,34.934c0,19.294,15.641,34.934,34.934,34.934
						c19.294,0,34.934-15.641,34.934-34.934C139.838,89.147,124.197,73.507,104.904,73.507z M121.047,114.594l-0.001,0.005
						c-0.014,0.039-0.033,0.076-0.05,0.116l-0.023,0.051l-0.017,0.04l-0.007,0.016l-0.016,0.036l-0.01,0.017l-0.016,0.036
						l-0.01,0.017l-0.019,0.037l-0.01,0.017l-0.019,0.037l-0.01,0.017l-0.019,0.037l-0.01,0.017l-0.019,0.037l-0.01,0.017
						l-0.019,0.037l-0.01,0.017l-0.019,0.037l-0.009,0.02l-0.022,0.039l-0.009,0.02l-0.022,0.039l-0.012,0.022l-0.022,0.039
						l-0.012,0.022l-0.022,0.039l-0.011,0.022l-0.025,0.041l-0.011,0.022l-0.025,0.041l-0.012,0.022l-0.023,0.043l-0.011,0.022
						l-0.023,0.043l-0.011,0.022l-0.026,0.045l-0.012,0.022l-0.026,0.045l-0.012,0.022l-0.026,0.045l-0.015,0.023l-0.026,0.045
						l-0.015,0.023l-0.029,0.047l-0.015,0.023l-0.029,0.047l-0.022,0.031l-0.003,0.002l-0.045,0.067
						c-1.345,2.009-3.567,3.62-6.315,4.327c-0.375,0.097-0.916,0.237-1.546,0.401l1.606,6.25l-3.716,0.956l-1.601-6.226
						l-2.974,0.763l1.601,6.226l-3.716,0.956l-1.62-6.212l-7.659,1.968l-0.159-4.716l2.707-0.696
						c0.681-0.177,1.095-0.872,0.918-1.554l-4.288-16.684c-0.26-1.024-1.307-1.641-2.329-1.378l-3.09,0.793l-1.02-3.965l7.668-1.973
						l-1.599-6.223l3.718-0.953l1.6,6.203l2.974-0.763l-1.599-6.223l3.718-0.953l1.604,6.247l0.634-0.163
						c2.439-0.626,4.862-0.327,6.77,0.664l0.065,0.035l0.002,0.003l0.031,0.014l0.043,0.023l0.022,0.012l0.043,0.023l0.022,0.012
						l0.041,0.025l0.022,0.012l0.041,0.025l0.019,0.013l0.039,0.022l0.019,0.013l0.039,0.022l0.019,0.013l0.039,0.022l0.017,0.01
						l0.039,0.022l0.017,0.01l0.036,0.023l0.017,0.01l0.036,0.023l0.017,0.01l0.034,0.02l0.017,0.01l0.034,0.02l0.017,0.01
						l0.034,0.02l0.017,0.01l0.034,0.02l0.017,0.01l0.031,0.022l0.017,0.01l0.031,0.022l0.017,0.01l0.031,0.022l0.014,0.012
						l0.031,0.022l0.014,0.012l0.031,0.022L113.561,94l0.027,0.018l0.014,0.012l0.027,0.021l0.014,0.012l0.027,0.021l0.014,0.012
						l0.031,0.022l0.039,0.029c0.028,0.024,0.059,0.046,0.088,0.069l0.002,0.003c0.932,0.744,1.68,1.816,2.076,3.106l0.002,0.003
						l0.002,0.003l0.002,0.003l0.002,0.003l0.002,0.003l0.002,0.003l0.002,0.003c0.01,0.033,0.02,0.067,0.031,0.1l0.003,0.006
						l0.018,0.033c0.014,0.047,0.029,0.097,0.04,0.146c0.015,0.05,0.026,0.099,0.037,0.147l0.015,0.027l0.002,0.003l0.002,0.003
						l0,0.008c0.01,0.033,0.017,0.068,0.025,0.103l0.002,0.003l0.002,0.003l0.002,0.003l0.002,0.003l0.002,0.003l0.002,0.003
						l0.003,0.006l0.002,0.003c0.272,1.321,0.139,2.623-0.322,3.721l-0.003,0.002c-0.016,0.036-0.028,0.07-0.044,0.105l-0.022,0.047
						l-0.016,0.036l-0.007,0.016l-0.014,0.031l-0.007,0.016l-0.014,0.031l-0.007,0.016l-0.014,0.031l-0.007,0.016l-0.017,0.033
						l-0.007,0.016l-0.017,0.033l-0.007,0.016l-0.017,0.033l-0.007,0.016l-0.017,0.033l-0.01,0.017l-0.017,0.033l-0.01,0.017
						l-0.02,0.034l-0.01,0.017l-0.02,0.034l-0.01,0.017l-0.019,0.037l-0.01,0.017l-0.019,0.037l-0.01,0.017l-0.019,0.037
						l-0.01,0.017l-0.022,0.039l-0.01,0.017l-0.022,0.039l-0.01,0.017l-0.022,0.039l-0.013,0.019l-0.022,0.039l-0.013,0.019
						l-0.025,0.041l-0.013,0.019l-0.025,0.041l-0.013,0.019l-0.025,0.041l-0.013,0.019l-0.025,0.041l-0.013,0.019l-0.025,0.041
						l-0.019,0.03l-0.003,0.002l-0.041,0.061c-0.258,0.379-0.542,0.738-0.855,1.073c1.112,0.155,2.191,0.494,3.19,1.008
						c0.023,0.015,0.048,0.025,0.072,0.039l0.002,0.003l0.033,0.017l0.048,0.025l0.023,0.015l0.048,0.025l0.023,0.015l0.045,0.026
						l0.023,0.015l0.045,0.026l0.022,0.012l0.045,0.026l0.022,0.012l0.045,0.026l0.022,0.011l0.043,0.023l0.022,0.012l0.041,0.025
						l0.022,0.012l0.041,0.025l0.019,0.013l0.041,0.025l0.019,0.013l0.041,0.025l0.019,0.013l0.041,0.025l0.019,0.013l0.037,0.026
						l0.019,0.013l0.036,0.023l0.019,0.013l0.036,0.023l0.019,0.013l0.036,0.023l0.019,0.013l0.021,0.031l0.017,0.01l0.036,0.023
						l0.017,0.01l0.033,0.025l0.017,0.01l0.033,0.025l0.014,0.012l0.031,0.022l0.014,0.012l0.031,0.022l0.014,0.012l0.033,0.025
						l0.045,0.034c0.033,0.025,0.067,0.053,0.1,0.078l0.002,0.003c1.047,0.834,1.886,2.04,2.333,3.491l0.003,0.006l0.002,0.003
						l0.002,0.003l0.002,0.003l0.002,0.003l0.002,0.003l0.002,0.003c0.013,0.039,0.022,0.077,0.034,0.114l0.003,0.006l0.02,0.036
						c0.003,0.064,0.011,0.122,0.012,0.154c0.017,0.053,0.028,0.109,0.042,0.164l0.006,0.012l0.002,0.003l0.002,0.003l0.002,0.003
						l0.002,0.003l0.002,0.003l0.002,0.003l0.002,0.003l0.002,0.003l0.002,0.003l0.002,0.003l0.002,0.003l0.002,0.003l0.002,0.003
						l0,0.008c0.009,0.038,0.018,0.076,0.026,0.114l0.002,0.003l0.002,0.003l0.002,0.003l0.002,0.003l0.002,0.003l0.002,0.003
						l0.002,0.003l0.002,0.003C121.718,111.896,121.561,113.358,121.047,114.594z"/>
					<path class="st42" d="M114.005,111.612l-0.002-0.003l-0.002-0.003L114,111.603c-0.004-0.021-0.009-0.038-0.012-0.059
						l-0.002-0.003l-0.01-0.018c0.005-0.042,0.002-0.075-0.011-0.078c-0.009-0.03-0.016-0.058-0.022-0.085l-0.01-0.018l-0.002-0.003
						c-0.007-0.02-0.012-0.036-0.018-0.056l-0.006-0.012c-0.223-0.711-0.682-1.325-1.3-1.745c-0.019-0.013-0.041-0.025-0.059-0.038
						l-0.025-0.018l-0.019-0.013l-0.011-0.006l-0.017-0.01l-0.011-0.006l-0.019-0.013l-0.011-0.006l-0.019-0.013l-0.011-0.006
						l-0.019-0.013l-0.011-0.006l-0.019-0.013l-0.011-0.006l-0.019-0.013l-0.011-0.006l-0.022-0.012l-0.011-0.006l-0.022-0.012
						l-0.011-0.006l-0.022-0.011l-0.011-0.006l-0.022-0.012l-0.011-0.006l-0.022-0.011l-0.011-0.006l-0.022-0.012l-0.011-0.006
						l-0.022-0.012l-0.011-0.006l-0.022-0.012l-0.011-0.006l-0.022-0.012l-0.011-0.006l-0.026-0.013l-0.011-0.006l-0.026-0.013
						l-0.011-0.006l-0.026-0.013l-0.011-0.006l-0.026-0.013l-0.014-0.004l-0.026-0.013l-0.014-0.004l-0.026-0.013l-0.014-0.004
						l-0.029-0.011l-0.02-0.009l-0.04-0.017c-1.235-0.527-2.832-0.646-4.458-0.228c-1.026,0.265-4.134,1.045-4.887,1.241l2.11,8.211
						c0.754-0.193,3.854-1.003,4.88-1.268c1.627-0.418,2.966-1.29,3.796-2.35l0.028-0.034l0.015-0.016l0.018-0.025l0.009-0.012
						l0.018-0.025l0.009-0.012l0.018-0.025l0.009-0.012l0.018-0.025l0.009-0.012l0.018-0.025l0.009-0.012l0.015-0.023l0.009-0.012
						l0.015-0.023l0.006-0.011l0.015-0.023l0.006-0.011l0.015-0.023l0.006-0.011l0.016-0.02l0.006-0.011l0.016-0.02l0.006-0.011
						l0.013-0.019l0.006-0.011l0.013-0.019l0.006-0.011l0.013-0.019l0.006-0.011l0.013-0.019l0.006-0.011l0.013-0.019l0.006-0.011
						l0.013-0.019l0.006-0.011l0.013-0.019l0.006-0.011l0.013-0.019l0.006-0.011l0.013-0.019l0.006-0.011l0.01-0.017l0.006-0.011
						l0.01-0.017l0.006-0.011l0.012-0.022l0.016-0.028l0.033-0.061c0.341-0.665,0.445-1.423,0.299-2.156L114.005,111.612z"/>
				</g>
			</g>
		</g>
	</g>
</g>
</svg>
