<?xml version="1.0" encoding="utf-8"?>
<!-- Generator: Adobe Illustrator 22.0.1, SVG Export Plug-In . SVG Version: 6.00 Build 0)  -->
<svg version="1.1" id="Layer_1" xmlns="http://www.w3.org/2000/svg" xmlns:xlink="http://www.w3.org/1999/xlink" x="0px" y="0px"
	 width="833px" height="833px" viewBox="0 0 833 833" enable-background="new 0 0 833 833" xml:space="preserve">
<g id="g16_1_" transform="scale(0.015625)">
	<path id="coin_1_" fill="#F7941D" d="M52034.1,20498.1c3401.9,14016.2-5203.4,28137.2-19221.4,31539.1
		C18800.1,55437.1,4678.6,46831.1,1278.8,32814.9C-2125.3,18797.8,6479.5,4676.1,20493.5,1275.6
		C34510.4-2126.7,48631.8,6481,52034.1,20498.1L52034.1,20498.1z"/>
	<path id="symbol_1_" fill="#FFFFFF" d="M35128.4,18016.9c-1151.9-3320.4-4363.6-3748-8147.8-3173.4l-1144.7-4715.9l-2870.5,696.9
		l1114.6,4591.7c-754.5,183.3-1522.4,385.4-2285.2,586.5l-1121.2-4622.2l-2869,696.2l1143.1,4714.8
		c-618.3,163.5-1226,323.2-1821,467.9l-3.9-14.5l-3959.6,959.5l744.9,3065.8c0,0,2110-555,2084.2-507.4
		c1162.9-281.8,1705.1,301.4,1956.5,857l1304.1,5372.5c80.4-19,185.8-41.1,308.2-53.7c-95.7,23.3-198.2,47.6-303.1,73.9
		l1825.9,7526.4c37.9,378.2-35.7,1013.9-847.7,1212.6c44.5,23.7-2086.8,505.8-2086.8,505.8l261.7,3566.5l3735.6-906.7
		c695.5-167.8,1382.2-322.2,2054.7-480.8l1158.7,4769.2l2867.6-695.5l-1145.3-4719.2c791.3-174.8,1554.7-353.4,2298.5-534.7
		l1138.8,4697.8l2870.5-696.9l-1154.6-4761.5c4758.8-1448.1,7841.4-3483.8,7161-8117.5c-546.9-3731.5-2658.9-4943.1-5558.1-4936.1
		C35297.6,22191.3,35975.7,20445.7,35128.4,18016.9L35128.4,18016.9z M33587.7,29190.1c866.5,3564-5335,4639.8-7279.8,5113.8
		l-1533-6319.6C26720.7,27512.4,32685.5,25472.4,33587.7,29190.1z M30088.7,20598.2c786.1,3243.1-4395.7,4100.1-6016.1,4493.4
		L22681.8,19360C24302.2,18966.5,29267.4,17215.9,30088.7,20598.2z"/>
</g>
</svg>
