<?xml version="1.0" encoding="utf-8"?>
<!-- Generator: Adobe Illustrator 22.0.1, SVG Export Plug-In . SVG Version: 6.00 Build 0)  -->
<svg version="1.1" id="Layer_1" xmlns="http://www.w3.org/2000/svg" xmlns:xlink="http://www.w3.org/1999/xlink" x="0px" y="0px"
	 width="833px" height="833px" viewBox="0 0 833 833" style="enable-background:new 0 0 833 833;" xml:space="preserve">
<style type="text/css">
	.st0{fill:#F7941D;}
	.st1{fill:#FFFFFF;}
</style>
<g>
	<circle class="st0" cx="416.5" cy="416.5" r="407.379"/>
	<path class="st1" d="M607.571,433.421L607.344,433l-0.038-0.07c-0.138-0.424-0.24-0.867-0.397-1.326l-0.019-0.035l-0.019-0.035
		l-0.019-0.035l-0.019-0.035l-0.019-0.035l-0.019-0.035l-0.038-0.07c-5.218-16.926-15.004-30.987-27.21-40.712l-0.019-0.035
		c-0.383-0.292-0.785-0.618-1.169-0.91l-0.529-0.394l-0.383-0.292l-0.165-0.138l-0.364-0.257l-0.165-0.138l-0.364-0.257
		l-0.165-0.138l-0.383-0.292l-0.2-0.119l-0.383-0.292l-0.2-0.119l-0.418-0.273l-0.2-0.119l-0.243-0.367l-0.219-0.154l-0.418-0.273
		l-0.219-0.154l-0.418-0.273l-0.219-0.154l-0.418-0.273l-0.219-0.154l-0.437-0.308l-0.219-0.154l-0.472-0.289l-0.219-0.154
		l-0.472-0.289l-0.219-0.154l-0.472-0.289l-0.219-0.154l-0.472-0.289l-0.254-0.135l-0.472-0.289l-0.254-0.135l-0.508-0.27
		l-0.254-0.135l-0.526-0.305l-0.254-0.135l-0.526-0.305l-0.254-0.135l-0.526-0.305l-0.273-0.17l-0.526-0.305l-0.273-0.17
		l-0.561-0.286l-0.273-0.17l-0.561-0.286l-0.381-0.203l-0.019-0.035c-0.273-0.17-0.561-0.286-0.834-0.456
		c-11.647-5.997-24.232-9.951-37.197-11.753c3.645-3.908,6.96-8.092,9.966-12.516l0.478-0.71l0.035-0.019l0.221-0.346l0.289-0.472
		l0.154-0.219l0.289-0.472l0.154-0.219l0.289-0.472l0.154-0.219l0.289-0.472l0.154-0.219l0.289-0.472l0.154-0.219l0.254-0.453
		l0.154-0.219l0.254-0.453l0.119-0.2l0.254-0.453l0.119-0.2l0.254-0.453l0.119-0.2l0.219-0.435l0.119-0.2l0.219-0.435l0.119-0.2
		l0.219-0.435l0.119-0.2l0.238-0.399l0.119-0.2l0.238-0.399l0.119-0.2l0.203-0.381l0.119-0.2l0.203-0.381l0.084-0.181l0.203-0.381
		l0.084-0.181l0.203-0.381l0.084-0.181l0.203-0.381l0.084-0.181l0.167-0.362l0.084-0.181l0.167-0.362l0.084-0.181l0.167-0.362
		l0.084-0.181l0.184-0.416l0.251-0.543c0.184-0.416,0.332-0.812,0.516-1.228l0.035-0.019c5.374-12.805,6.931-27.992,3.756-43.393
		l-0.019-0.035l-0.038-0.071l-0.019-0.035l-0.019-0.035l-0.019-0.035l-0.019-0.035l-0.019-0.035l-0.019-0.035
		c-0.084-0.408-0.167-0.815-0.286-1.204l-0.003-0.089l-0.019-0.035l-0.019-0.035l-0.019-0.035l0.019,0.035l-0.17-0.316
		c-0.124-0.567-0.248-1.134-0.426-1.717c-0.124-0.567-0.302-1.15-0.461-1.698l-0.208-0.386l-0.038-0.07
		c-0.119-0.389-0.237-0.777-0.356-1.166l-0.019-0.035l-0.019-0.035l-0.019-0.035l-0.019-0.035l-0.019-0.035l-0.019-0.035
		l-0.019-0.035c-4.609-15.037-13.331-27.542-24.203-36.219l-0.019-0.035c-0.329-0.275-0.694-0.532-1.023-0.807l-0.456-0.343
		l-0.364-0.257l-0.165-0.138l-0.31-0.24l-0.165-0.138l-0.31-0.24l-0.165-0.138l-0.346-0.221l-0.165-0.138l-0.364-0.257l-0.165-0.138
		l-0.364-0.257l-0.165-0.138l-0.364-0.257l-0.2-0.119l-0.364-0.257l-0.2-0.119l-0.364-0.257l-0.2-0.119l-0.399-0.238l-0.2-0.119
		l-0.399-0.238l-0.2-0.119l-0.399-0.238l-0.2-0.119l-0.399-0.238l-0.2-0.119l-0.418-0.273l-0.2-0.119l-0.418-0.273l-0.2-0.119
		l-0.453-0.254l-0.2-0.119l-0.453-0.254l-0.219-0.154l-0.453-0.254l-0.219-0.154l-0.453-0.254l-0.219-0.154l-0.472-0.289
		l-0.254-0.135l-0.472-0.289l-0.254-0.135l-0.507-0.27l-0.254-0.135l-0.507-0.27l-0.362-0.167l-0.019-0.035l-0.761-0.405
		c-22.247-11.562-50.51-15.043-78.947-7.748l-7.397,1.899l-18.71-72.853l-43.355,11.115l18.648,72.57l-34.684,8.892l-18.659-72.338
		l-43.355,11.115l18.648,72.57l-89.415,23.008l11.898,46.238l36.028-9.254c11.927-3.07,24.127,4.123,27.162,16.068l0,0
		l50.003,194.563c2.059,7.945-2.761,16.061-10.706,18.12l-31.569,8.121l1.855,54.994l89.31-22.951l18.894,72.437l43.336-11.151
		l-18.667-72.605l34.684-8.892l18.667,72.605l43.336-11.151l-18.729-72.888c7.343-1.916,13.66-3.55,18.03-4.681
		c32.047-8.242,57.961-27.035,73.643-50.458l0.529-0.783l0.035-0.019l0.257-0.364l0.34-0.545l0.17-0.273l0.34-0.545l0.17-0.273
		l0.305-0.526l0.17-0.273l0.305-0.526l0.135-0.254l0.305-0.526l0.135-0.254l0.305-0.526l0.135-0.254l0.27-0.507l0.135-0.254
		l0.27-0.507l0.135-0.254l0.289-0.472l0.135-0.254l0.289-0.472l0.135-0.254l0.254-0.453l0.135-0.254l0.254-0.453l0.135-0.254
		l0.254-0.453l0.1-0.235l0.254-0.453l0.1-0.235l0.219-0.435l0.119-0.2l0.219-0.435l0.119-0.2l0.219-0.435l0.119-0.2l0.219-0.435
		l0.119-0.2l0.219-0.435l0.119-0.2l0.219-0.435l0.119-0.2l0.184-0.416l0.119-0.2l0.184-0.416l0.084-0.181l0.2-0.47l0.267-0.597
		c0.2-0.47,0.419-0.904,0.583-1.355l0.016-0.054c6.003-14.412,7.825-31.461,4.234-48.811l-0.019-0.035l-0.019-0.035l-0.019-0.035
		l-0.019-0.035l-0.019-0.035l-0.019-0.035l-0.019-0.035l-0.019-0.035c-0.103-0.443-0.205-0.885-0.308-1.328l-0.003-0.089
		l-0.019-0.035l-0.019-0.035l-0.019-0.035l-0.019-0.035l-0.019-0.035l-0.019-0.035l-0.019-0.035l-0.019-0.035l-0.019-0.035
		l-0.019-0.035l-0.019-0.035l-0.019-0.035l-0.019-0.035l-0.076-0.14c-0.162-0.637-0.289-1.293-0.486-1.911
		C607.703,434.844,607.611,434.169,607.571,433.421z M352.828,303.257c7.397-1.899,37.98-9.58,48.066-12.203
		c16.033-4.104,31.827-2.511,44.168,3.429l0.416,0.184l0,0l0.181,0.084l0.254,0.135l0.127,0.068l0.254,0.135l0.127,0.068
		l0.254,0.135l0.127,0.068l0.254,0.135l0.127,0.068l0.254,0.135l0.127,0.068l0.254,0.135l0.127,0.068l0.254,0.135l0.127,0.068
		l0.254,0.135l0.127,0.068l0.254,0.135l0.127,0.068l0.219,0.154l0.127,0.068l0.219,0.154l0.127,0.068l0.219,0.154l0.127,0.068
		l0.2,0.119l0.127,0.068l0.2,0.119l0.127,0.068l0.2,0.119l0.127,0.068l0.2,0.119l0.127,0.068l0.2,0.119l0.092,0.086l0.2,0.119
		l0.073,0.051l0.2,0.119l0.073,0.051l0.2,0.119l0.073,0.051l0.2,0.119l0.073,0.051l0.165,0.138l0.073,0.051l0.2,0.119l0.273,0.17
		c0.2,0.119,0.383,0.292,0.583,0.41l0,0c6.313,4.749,10.937,11.404,13.252,18.985l0,0l0.057,0.105
		c0.059,0.194,0.138,0.424,0.197,0.618l0.019,0.035l0.113,0.211c0.081,0.319,0.178,0.583,0.259,0.902s0.143,0.602,0.173,0.993
		l0.113,0.211l0.019,0.035c0.024,0.213,0.084,0.408,0.162,0.637l0.057,0.105l0,0c1.624,7.726,0.762,15.795-2.463,23.007l0,0
		l-0.284,0.651l-0.151,0.308l-0.119,0.2l-0.032,0.108l-0.084,0.181l-0.032,0.108l-0.119,0.2l-0.032,0.108l-0.119,0.2l-0.032,0.108
		l-0.119,0.2l-0.032,0.108l-0.119,0.2l-0.032,0.108l-0.119,0.2l-0.032,0.108l-0.119,0.2l-0.068,0.127l-0.119,0.2l-0.068,0.127
		l-0.119,0.2l-0.068,0.127l-0.119,0.2L463.855,350l-0.154,0.219l-0.068,0.127l-0.154,0.219l-0.068,0.127l-0.154,0.219l-0.068,0.127
		l-0.154,0.219l-0.068,0.127l-0.154,0.219l-0.068,0.127l-0.154,0.219l-0.068,0.127l-0.154,0.219l-0.068,0.127l-0.154,0.219
		l-0.068,0.127l-0.189,0.238l-0.068,0.127l-0.189,0.238l-0.068,0.127l-0.189,0.237l-0.068,0.127l-0.189,0.238l-0.138,0.165l0,0
		l-0.257,0.364c-7.973,11.172-21.04,20.197-37.073,24.301c-10.104,2.587-40.607,10.587-48.004,12.486L352.828,303.257z
		 M522.297,452.434l0.113,0.211l0.019,0.035c0.043,0.248,0.102,0.443,0.146,0.691l0,0l0.019,0.035l0,0l0,0l0.019,0.035l0.019,0.035
		l0.019,0.035l0,0c1.702,8.544,0.489,17.39-3.486,25.142l0,0l-0.389,0.707l-0.186,0.327l-0.135,0.254l-0.068,0.127l-0.119,0.2
		l-0.068,0.127l-0.119,0.2l-0.068,0.127l-0.154,0.219l-0.068,0.127l-0.154,0.219l-0.068,0.127l-0.154,0.219l-0.068,0.127
		l-0.154,0.219l-0.068,0.127l-0.154,0.219l-0.068,0.127l-0.154,0.219l-0.068,0.127l-0.154,0.219l-0.068,0.127l-0.154,0.219
		l-0.068,0.127l-0.154,0.219l-0.068,0.127l-0.189,0.238l-0.068,0.127l-0.189,0.238l-0.068,0.127l-0.17,0.273l-0.068,0.127
		l-0.17,0.273l-0.068,0.127l-0.17,0.273l-0.103,0.146l-0.17,0.273l-0.103,0.146l-0.205,0.292l-0.103,0.146l-0.205,0.292
		l-0.103,0.146l-0.205,0.292l-0.103,0.146l-0.205,0.292l-0.103,0.146l-0.205,0.292l-0.173,0.184l0,0l-0.327,0.402
		c-9.685,12.365-25.303,22.537-44.272,27.407c-11.962,3.089-48.109,12.543-56.904,14.787l-24.608-95.751
		c8.776-2.28,45.023-11.38,56.985-14.469c18.97-4.87,37.593-3.488,51.991,2.658l0.47,0.2l0,0l0.235,0.1l0.343,0.132l0.162,0.049
		l0.308,0.151l0.162,0.049l0.308,0.151l0.162,0.049l0.308,0.151l0.127,0.068l0.308,0.151l0.127,0.068l0.308,0.151l0.127,0.068
		l0.308,0.151l0.127,0.068l0.254,0.135l0.127,0.068l0.254,0.135l0.127,0.068l0.254,0.135l0.127,0.068l0.254,0.135l0.127,0.068
		l0.254,0.135l0.127,0.068l0.254,0.135l0.127,0.068l0.254,0.135l0.127,0.068l0.254,0.135l0.127,0.068l0.254,0.135l0.127,0.068
		l0.219,0.154l0.127,0.068l0.219,0.154l0.127,0.068l0.219,0.154l0.127,0.068l0.219,0.154l0.127,0.068l0.219,0.154l0.127,0.068
		l0.2,0.119l0.127,0.068l0.219,0.154l0.292,0.205c0.219,0.154,0.472,0.289,0.691,0.443l0,0c7.21,4.901,12.562,12.068,15.165,20.353
		l0,0l0.076,0.14c0.078,0.229,0.138,0.424,0.216,0.653l0.019,0.035l0.113,0.211c0.081,0.319,0.162,0.637,0.262,0.991
		C522.325,451.56,522.354,451.951,522.297,452.434L522.297,452.434z"/>
</g>
</svg>
